<?xml version="1.0" encoding="UTF-8"?>
<!DOCTYPE svg PUBLIC "-//W3C//DTD SVG 1.1//EN" "http://www.w3.org/Graphics/SVG/1.1/DTD/svg11.dtd">
<!-- Creator: CorelDRAW Home & Student X8 -->
<svg xmlns="http://www.w3.org/2000/svg" xml:space="preserve" width="159.279mm" height="201.612mm" version="1.1" style="shape-rendering:geometricPrecision; text-rendering:geometricPrecision; image-rendering:optimizeQuality; fill-rule:evenodd; clip-rule:evenodd"
viewBox="0 0 15928 20161"
 xmlns:xlink="http://www.w3.org/1999/xlink">
 <defs>
  <style type="text/css">
   <![CDATA[
    .str7 {stroke:black;stroke-width:79.37}
    .str8 {stroke:black;stroke-width:26.46}
    .str0 {stroke:#663300;stroke-width:26.46}
    .str2 {stroke:#999966;stroke-width:26.46}
    .str6 {stroke:#999999;stroke-width:26.46}
    .str1 {stroke:#FFFFCC;stroke-width:26.46}
    .str3 {stroke:black;stroke-width:20}
    .str5 {stroke:black;stroke-width:7.62}
    .str4 {stroke:black;stroke-width:7.62}
    .fil0 {fill:none}
    .fil7 {fill:black}
    .fil9 {fill:#1A1A1A}
    .fil11 {fill:#7A4E31}
    .fil8 {fill:#996633}
    .fil1 {fill:#999966}
    .fil10 {fill:#999999}
    .fil4 {fill:#E6E6E6}
    .fil2 {fill:#FFFF99}
    .fil5 {fill:#FFFFCC}
    .fil3 {fill:#FFFFCC}
    .fil6 {fill:white}
   ]]>
  </style>
 </defs>
 <g id="Warstwa_x0020_1">
  <metadata id="CorelCorpID_0Corel-Layer"/>
  <polyline class="fil0 str0" points="8321,10173 8401,10306 8506,10464 8559,10623 8586,10782 8612,10941 8612,11020 "/>
  <polygon class="fil1" points="6972,16973 6787,17158 6575,17317 6443,17529 6548,17899 6489,17945 6443,17767 6366,17556 6281,17328 6271,17145 6284,17026 6390,16867 6469,16748 6523,16667 6578,16595 6707,16708 6866,16841 "/>
  <polygon class="fil2" points="4855,15121 3638,15227 2077,15941 728,16444 114,16572 26,16572 13,20148 6734,20148 6760,19963 6892,19619 6972,19275 7131,18984 7316,18666 7554,18322 7713,18084 7871,17952 7898,17740 7818,17608 7653,17373 7364,17180 6972,16973 6575,17158 6285,17790 6390,18164 5781,17449 5226,16206 "/>
  <polygon class="fil3 str1" points="5024,14268 4829,14407 4564,14645 4326,14777 4088,14883 3823,14989 3506,15094 3162,15227 2871,15333 2633,15438 2421,15491 2156,15597 1945,15703 1707,15862 1468,16021 1177,16179 886,16206 437,16206 278,16206 119,16232 26,16232 26,16632 225,16629 437,16629 675,16629 886,16576 1098,16497 1310,16391 1521,16312 1839,16179 2051,16126 2262,16047 2394,15941 2580,15809 2871,15677 3056,15597 3215,15544 3453,15491 3797,15412 3982,15359 4088,15253 4273,15200 4511,15147 4776,15121 4855,15121 4870,14900 4948,14568 "/>
  <polygon class="fil2 str2" points="5163,13490 5384,13772 5781,14036 6178,14380 6548,14645 6919,14936 7210,15200 7448,15438 7898,15756 7713,15756 7554,15782 7369,15862 7183,16047 6945,16206 6760,16391 6548,16629 6390,16867 6284,17026 6257,17264 6337,17476 6443,17767 6535,18124 6522,18269 6496,18508 6257,18269 5755,17582 5708,17469 5292,16695 5173,16523 5014,16232 4908,15729 4855,15333 4855,14962 4934,14618 5014,14327 5067,14010 5120,13772 "/>
  <circle class="fil4 str3" transform="matrix(1 0.723928 -0 0.887407 6230.93 17846.1)" r="198"/>
  <polygon class="fil1" points="7369,18084 7236,18084 7104,18005 6919,17873 6787,17793 6654,17714 6522,17714 6628,17793 6760,17873 6919,18005 7078,18164 7236,18322 7342,18481 7395,18322 7395,18164 "/>
  <polygon class="fil5 str1" points="11908,14124 12369,14327 13057,14565 14010,14883 14751,15121 15412,15386 15729,15491 15983,15490 15986,15983 15518,15968 15200,15915 14936,15888 14380,15729 13798,15465 13481,15200 13189,15121 12978,15121 12766,15121 12449,15015 12211,14989 11989,14976 11982,14530 "/>
  <polygon class="fil2" points="11989,14976 11933,15452 11893,15650 11615,16179 11230,16772 10779,17287 10411,17714 10067,18164 9750,18481 9750,18111 9750,17634 9750,17370 9697,17079 9510,16706 9022,17079 8877,17185 8824,17529 8744,17793 8824,18005 9088,18375 9300,18640 9406,18931 9432,19407 9459,19857 9459,20112 15904,20112 15986,16049 15518,15968 14936,15888 14380,15729 13798,15465 13481,15200 13189,15121 12766,15121 12449,15015 "/>
  <polygon class="fil1" points="9538,17899 9460,17925 9379,17952 9247,18084 9168,18217 9194,18508 9353,18137 9512,18058 "/>
  <polygon class="fil1" points="9432,16761 9168,16973 8877,17185 8824,17529 8744,17793 8824,18005 8983,17714 9168,17529 9327,17343 9379,17105 9578,16841 "/>
  <polygon class="fil1" points="9759,18151 9772,18746 9644,18957 9512,18693 9512,18534 9750,17727 "/>
  <polygon class="fil2 str2" points="11311,12793 11258,13084 11152,13375 11046,13586 10835,13824 10464,14142 10173,14354 9856,14565 9432,14830 9088,15094 8744,15333 8533,15491 8374,15703 8559,15835 8797,15968 9036,16179 9274,16391 9459,16603 9697,17079 9750,17370 9750,17634 9750,17820 9750,18111 9723,18349 9750,18481 10067,18164 10411,17714 10729,17343 10967,17079 11284,16708 11523,16338 11708,16021 11893,15650 11972,15253 11999,14803 11972,14380 11893,14063 11681,13824 11549,13613 11496,13295 11443,13031 "/>
  <circle class="fil6 str3" transform="matrix(-1 0.723928 -0 0.887407 10040.8 17791.5)" r="198"/>
  <polygon class="fil7" points="8374,15703 8189,15677 8030,15703 7898,15756 7713,15756 7587,15777 7414,15842 7276,15954 7183,16047 7014,16160 6853,16298 6712,16445 6578,16595 6787,16775 6972,16973 7422,17211 7686,17396 7818,17608 7898,17740 7885,17846 7871,17952 7669,18149 7406,18535 7192,18879 7006,19213 6932,19447 6892,19619 6798,19863 6760,19963 6760,20112 9459,20112 9446,19632 9419,19169 9406,18931 9353,18785 9300,18640 9194,18508 8990,18238 8824,18005 8757,17827 8758,17747 8830,17490 8877,17185 9134,16993 9353,16826 9510,16706 9332,16458 9036,16179 8739,15935 "/>
  <polygon class="fil7" points="7977,6734 7845,6734 7686,6787 7554,6839 7818,6654 8109,6601 8321,6601 8533,6654 8665,6707 8824,6760 8903,6813 8665,6787 8586,6787 8295,6681 "/>
  <ellipse class="fil7" cx="8272" cy="6832" rx="332" ry="273"/>
  <ellipse class="fil6" cx="8229" cy="6773" rx="93" ry="66"/>
  <polygon class="fil8" points="8004,2368 6866,2209 5675,2368 4961,2712 4405,2924 3863,3731 3612,4208 3413,4630 3347,4961 3268,5305 3241,5543 3215,5834 3215,6099 3241,6363 3294,6601 3321,6892 3347,7289 3347,7713 3347,8030 3347,8639 3373,9088 3506,9591 3612,10147 3717,10888 3823,11364 3956,11708 4220,12211 4458,12687 4670,12978 5014,13322 5226,13560 5384,13772 5763,14056 6074,14290 6423,14555 6789,14833 7064,15068 7329,15319 7720,15630 7898,15756 8374,15703 8453,15597 8639,15412 8916,15214 9307,14926 9818,14589 10319,14248 10782,13869 11046,13586 11165,13340 11247,13115 11284,12938 11311,12793 11284,12528 11311,12078 11390,11708 11443,11364 11496,10835 11523,10438 11549,10173 11761,10173 11972,10120 12211,9962 12396,9776 12607,9618 12713,9406 12846,9062 12925,8586 12951,8162 13004,7845 13110,7448 13084,7051 12951,6839 12793,6628 12660,6601 12502,6601 12316,6601 12105,6654 11893,6800 11681,6945 11562,7078 11443,7210 11284,7422 11270,7443 11070,7253 10914,7104 10967,6681 10993,6461 10982,6051 10914,5596 10863,5538 10729,5384 10570,5278 10467,5210 10411,4723 9988,3400 9115,2686 8718,2447 "/>
  <polygon class="fil7 str4" points="8480,1707 8189,1654 7766,1627 7263,1627 6919,1707 6443,1865 5966,2024 5675,2183 5358,2368 5014,2527 4723,2686 4405,2924 4088,3215 3797,3585 3585,3982 3413,4630 3744,3929 3982,3532 4352,3188 4958,2860 5305,2659 5808,2447 6310,2342 6641,2381 7190,2320 8607,2652 9106,2887 9753,3404 10014,4141 10120,4379 10253,4670 10411,5173 10729,5384 10914,5596 10993,6125 10993,6496 10941,6866 10914,7104 11483,7646 11681,6945 12105,6654 12105,5834 12052,5067 11919,4405 11708,3850 11443,3453 10967,2977 10491,2580 10014,2289 9512,2051 9036,1839 "/>
  <path class="fil7 str5" d="M9538 5781c-80,-19 -215,12 -356,-72 -335,-198 -740,-95 -1116,-141 -137,-17 -314,-36 -450,12 -94,33 -592,177 -635,155 -88,-45 -209,94 -121,-124 9,-22 454,-407 538,-400 6,1 314,-66 412,-66 290,0 593,-12 877,27 160,22 80,-47 251,51 41,24 305,112 305,114 -1,16 98,64 143,134 80,126 264,186 152,310z"/>
  <path class="fil7 str5" d="M3281 6297c284,-166 449,-192 768,-288 132,-39 304,-88 446,-63 97,17 613,74 652,46 78,-59 221,58 98,-143 -13,-20 -516,-325 -597,-304 -7,2 -321,-11 -418,5 0,0 -532,133 -738,271 -47,32 -211,185 -211,271 -1,153 10,186 0,205z"/>
  <polygon class="fil9" points="8983,6099 9142,6258 9358,6238 12211,6628 12105,6456 9523,6050 "/>
  <polygon class="fil6 str1" points="7929,6724 7784,6751 7603,6821 7461,6918 7459,7068 7519,7068 7757,7095 7942,7068 8223,7090 "/>
  <polygon class="fil6 str1" points="8625,6787 8604,6832 8554,6976 8419,7077 8692,7078 8903,6998 9036,6892 8864,6787 8599,6681 "/>
  <ellipse class="fil7" cx="8166" cy="6822" rx="332" ry="273"/>
  <polygon class="fil0 str6" points="6687,6630 6693,7164 6813,7422 7051,7766 7183,7898 7438,8068 7713,8136 8030,8136 8162,8136 8572,8114 8824,8004 9036,7845 9131,7732 9228,7618 9327,7501 9406,7183 9406,6998 9379,6839 9353,6628 9221,6337 8983,6099 8800,6024 8615,6002 8255,5993 7951,5993 7834,5992 7554,6006 7236,6072 7075,6153 6959,6231 6853,6337 6773,6429 6690,6585 "/>
  <ellipse class="fil6" cx="8166" cy="6756" rx="93" ry="66"/>
  <polygon class="fil6 str1" points="6787,6919 6628,6919 6628,6972 6787,6972 6945,6972 6945,6919 "/>
  <polygon class="fil10" points="6688,6607 6575,6522 6416,6443 6284,6443 6019,6443 5861,6469 5762,6489 5728,6496 5596,6601 5490,6681 5409,6756 5407,6881 5517,6787 5596,6681 5861,6548 6019,6548 6284,6548 6416,6575 6548,6628 6688,6697 "/>
  <polygon class="fil6 str1" points="5728,6496 5749,6532 6021,6496 6315,6502 6315,6443 6019,6443 "/>
  <polygon class="fil7" points="2818,6601 2818,6760 3082,6813 3321,6892 3294,6681 "/>
  <polygon class="fil6 str1" points="4259,7131 4215,7030 4059,7120 3995,7263 3995,7355 4179,7422 4298,7422 4528,7408 "/>
  <polygon class="fil6 str1" points="4934,6959 4947,7015 4949,7035 4936,7098 4922,7131 4868,7280 5067,7263 5252,7210 5089,7035 "/>
  <ellipse class="fil7" cx="4591" cy="7131" rx="332" ry="273"/>
  <polyline class="fil0 str0" points="5305,7183 5252,7210 5067,7263 4908,7342 4678,7394 4379,7422 4061,7422 3823,7395 3717,7395 "/>
  <polygon class="fil7" points="4728,6979 4860,6970 5021,7013 5157,7057 4881,6889 4587,6855 4376,6868 4168,6934 4039,6996 3884,7058 3651,7355 3995,7355 3995,7170 4124,7070 4407,6946 "/>
  <path class="fil0 str0" d="M5113 7031l-133 -81c0,0 -146,-66 -196,-72 -50,-6 -197,-23 -197,-23l-211 13 -208 66 -129 62 -193 91 -155 96 -159 133"/>
  <polyline class="fil0 str0" points="5358,6892 5226,6813 5067,6734 4908,6681 4776,6628 4591,6601 4273,6628 4141,6654 3982,6707 3823,6787 3717,6919 3664,7025 3585,7131 "/>
  <polygon class="fil0 str6" points="3056,6562 3295,6421 3647,6344 3946,6286 4060,6264 4338,6225 4662,6230 4802,6244 4934,6297 5067,6350 5199,6416 5305,6522 5347,6634 5379,6657 5409,6756 5401,7200 5332,7476 5163,7858 5057,8013 4839,8228 4583,8346 4271,8406 4141,8431 3612,8427 3367,8276 3188,8109 2977,7792 2924,7554 2897,7342 2897,7157 2917,6869 "/>
  <polygon class="fil6 str1" points="5331,7051 5173,7051 5173,7104 5331,7104 5490,7104 5490,7051 "/>
  <polygon class="fil11 str3" points="6204,10491 6284,10385 6363,10332 6469,10279 6575,10279 6681,10279 6787,10332 6919,10385 7051,10438 7183,10491 7316,10544 7448,10623 7633,10702 7766,10755 8136,10861 7898,11020 7713,11099 7474,11205 7289,11284 7104,11364 6972,11443 6839,11496 6601,11549 6310,11576 6072,11576 5861,11549 5649,11523 5464,11443 5252,11364 5040,11258 4987,11232 5093,11046 5226,10835 5358,10649 5517,10491 5702,10358 5834,10332 5940,10332 6072,10385 6125,10438 "/>
  <polyline class="fil0 str7" points="5040,11258 5173,11179 5358,11073 5517,11020 5675,10967 5861,10941 6072,10914 6231,10914 6337,10914 6522,10888 6707,10861 6919,10861 7104,10861 7289,10861 7448,10888 7633,10941 7766,10941 7924,10941 "/>
  <polyline class="fil0 str0" points="9406,11165 9406,11351 9406,11536 9379,11642 9353,11800 9274,11880 9168,12039 9062,12171 9009,12224 "/>
  <polyline class="fil0 str0" points="6681,12211 6548,12184 6416,12184 6284,12211 6178,12237 6046,12290 5940,12316 5834,12396 "/>
  <polyline class="fil0 str0" points="5067,8956 5067,9141 5120,9247 5226,9327 5331,9406 5464,9432 5569,9459 "/>
  <polygon class="fil7 str3" points="5882,9235 5877,9195 5675,9088 5543,8983 5464,8983 5384,9009 5345,9088 5325,9141 5416,9231 5543,9274 5649,9274 5728,9274 "/>
  <polygon class="fil7 str3" points="6469,8824 6390,8824 6284,8877 6231,8983 6204,9088 6231,9194 6325,9240 6443,9221 6601,9221 6707,9221 6813,9194 6919,9141 6959,9062 6919,9009 6839,8956 6734,8903 6654,8850 6575,8824 "/>
  <polyline class="fil0 str0" points="6892,8189 6998,8268 7131,8401 7236,8506 7316,8612 7395,8797 7395,8956 7395,9115 7342,9247 7263,9327 7078,9353 6892,9353 "/>
  <polyline class="fil0 str0" points="4511,10173 4432,10385 4326,10649 4247,10888 4247,11046 "/>
  <polyline class="fil0 str0" points="4035,10676 4088,10782 4194,11179 "/>
  <polyline class="fil0 str0" points="4220,11496 4299,11734 4326,11946 4432,12158 4643,12475 4908,12687 "/>
  <ellipse class="fil6" cx="4618" cy="7083" rx="93" ry="66"/>
  <polygon class="fil7" points="7951,6648 7818,6648 7660,6701 7527,6753 7792,6568 8083,6515 8295,6515 8506,6568 8639,6621 8797,6674 8877,6727 8639,6701 8559,6701 8268,6595 "/>
  <polyline class="fil0 str0" points="7316,6707 7448,6548 7660,6363 7845,6284 8136,6257 8427,6257 8612,6310 8771,6390 8956,6496 9115,6601 9221,6707 9375,6804 9485,6813 "/>
  <polyline class="fil0 str0" points="7183,7051 7369,6919 7474,6813 7607,6734 7739,6628 7924,6548 8162,6522 8401,6535 8612,6601 8877,6681 9088,6787 9274,6866 9430,6808 "/>
  <polyline class="fil0 str8" points="11787,8030 11840,7792 11972,7501 12025,7289 12158,7104 12290,6998 12475,6839 12581,6813 12713,6839 12793,6945 12872,7078 12898,7263 12872,7501 12793,7766 12766,8083 12793,8480 12793,8665 12687,8903 12607,9088 12502,9274 12343,9406 "/>
  <path class="fil0 str8" d="M12158 9327l370 -397 79 -106 80 -132 0 -159 0 -318 0 -238 0 -370 -27 -185 -26 -159 -27 -106 -132 -26 -106 79 -106 106 -132 -27 27 133 -80 158 -159 291m-105 635l-27 159 -132 185 -27 159 106 79"/>
  <polyline class="fil0 str8" points="5696,13979 6125,13983 6416,13930 6787,13877 7210,13851 7501,13851 7792,13824 8109,13719 8453,13507 8744,13295 9062,13084 9459,12925 9803,12740 10094,12607 10597,12237 10861,11946 11020,11602 11046,11126 11126,10782 11232,10517 11364,10226 "/>
  <polyline class="fil0 str0" points="7263,7078 7501,7078 7739,7104 7977,7131 8162,7131 8551,7096 8794,7057 8903,6998 9168,6919 "/>
 </g>
</svg>
