<?xml version="1.0" encoding="UTF-8"?>
<!DOCTYPE svg PUBLIC "-//W3C//DTD SVG 1.1//EN" "http://www.w3.org/Graphics/SVG/1.1/DTD/svg11.dtd">
<!-- Creator: CorelDRAW Home & Student X8 -->
<svg xmlns="http://www.w3.org/2000/svg" xml:space="preserve" width="159.279mm" height="201.612mm" version="1.1" style="shape-rendering:geometricPrecision; text-rendering:geometricPrecision; image-rendering:optimizeQuality; fill-rule:evenodd; clip-rule:evenodd"
viewBox="0 0 15928 20161"
 xmlns:xlink="http://www.w3.org/1999/xlink">
 <defs>
  <style type="text/css">
   <![CDATA[
    .str1 {stroke:#0C1706;stroke-width:26.46}
    .str3 {stroke:#1A1A1A;stroke-width:26.46}
    .str2 {stroke:#996633;stroke-width:26.46}
    .str4 {stroke:#666666;stroke-width:132.29}
    .str0 {stroke:black;stroke-width:20}
    .fil2 {fill:none}
    .fil0 {fill:black}
    .fil4 {fill:black}
    .fil1 {fill:#003333}
    .fil3 {fill:#0C1706}
    .fil5 {fill:#0C1706}
    .fil16 {fill:#663300}
    .fil14 {fill:#666666}
    .fil17 {fill:gray}
    .fil9 {fill:#996633}
    .fil8 {fill:#999999}
    .fil11 {fill:#CC9933}
    .fil7 {fill:#E07786}
    .fil10 {fill:#FF9933}
    .fil6 {fill:#FFCC99}
    .fil15 {fill:#FFFFCC}
    .fil13 {fill:white}
    .fil12 {fill:#522C2C;fill-rule:nonzero}
   ]]>
  </style>
 </defs>
 <g id="Warstwa_x0020_1">
  <metadata id="CorelCorpID_0Corel-Layer"/>
  <polygon class="fil0 str0" points="5067,13692 5110,13485 5146,13269 5199,13057 4987,13084 4855,13242 4643,13507 4352,13957 4670,13824 4868,13758 "/>
  <polygon class="fil1 str0" points="5067,13692 5278,13957 5622,14354 5913,14803 6310,15386 6681,15915 6919,16312 7342,16841 7660,17238 7977,17714 8348,18031 8903,18402 9353,18719 9856,19063 10358,19407 10702,19672 10941,19910 11154,20082 106,20082 106,17610 410,17317 833,17026 1416,16735 1918,16444 2474,16047 3162,15438 3717,14909 4220,14248 4352,13957 4670,13824 "/>
  <polygon class="fil0 str0" points="4141,14724 4379,14512 4723,14380 4934,14327 5199,14327 4908,14459 4538,14618 4326,14751 4035,14936 "/>
  <polygon class="fil0 str0" points="754,18693 1892,18137 2289,17926 2580,17793 2738,17846 2924,17873 3082,17767 3426,17661 3797,17529 4141,17449 4379,17449 4273,17238 4035,17211 3982,17343 3664,17449 3321,17582 2844,17634 2606,17661 2262,17793 1945,17952 "/>
  <polygon class="fil0 str0" points="7660,17238 7527,17238 7289,17423 6945,17661 6575,18058 6310,18428 6125,18746 5940,19063 6390,19010 6866,18693 7210,18481 7395,18402 7898,18428 7713,18190 "/>
  <polygon class="fil0 str0" points="8189,18904 8665,18904 9221,18931 9459,18957 9723,19143 9995,19159 10219,19312 10530,19539 10358,19566 10120,19434 9962,19301 9644,19248 9115,19301 8586,19248 "/>
  <polyline class="fil2 str1" points="5940,19063 5715,18852 5067,17952 4723,17238 4328,16489 3982,15518 3916,15108 3897,14815 3969,14579 "/>
  <polygon class="fil3 str0" points="8039,17767 8004,17926 8030,18084 8083,18269 8083,18428 8136,18534 8242,18349 8242,18217 8418,18078 "/>
  <polygon class="fil1 str0" points="14380,18561 14466,18848 14724,19116 14962,19513 15121,19751 15261,20082 13673,20082 13666,19592 13983,19566 13957,19434 13719,19222 13666,18799 14116,18680 13904,18375 14036,18058 "/>
  <polygon class="fil4 str0" points="13533,18746 13533,18940 13533,19143 13507,19619 13507,20082 13673,20082 13666,19592 13824,19566 13983,19566 13930,19301 13719,19222 13666,18799 13983,18772 14142,18799 14089,18561 14010,18269 14274,18402 14221,17926 14168,17370 14168,17079 14010,16920 13719,16973 13586,17079 13666,17264 13877,17396 13957,17555 13798,17820 13692,18005 13481,18190 13322,18349 "/>
  <polygon class="fil1 str0" points="12316,15650 12819,15994 13295,16312 13745,16735 14010,16920 13983,17238 14010,17767 13322,18349 12872,18058 13428,18547 13666,18799 13666,19407 13590,20082 13184,20082 12978,19592 12687,18957 12290,18243 11919,17634 11628,17052 11233,16369 11364,15782 "/>
  <polygon class="fil0 str0" points="10173,13904 10173,14380 10173,14698 10147,14989 10426,15258 10623,15624 10808,15941 11046,16100 11284,16444 11337,16047 11734,16073 12158,16021 12475,15941 12683,15901 12025,15359 11443,14803 11073,14486 10649,14221 "/>
  <polygon class="fil5 str0" points="11946,17264 12263,17687 12634,18084 13137,18508 13533,18746 13322,18349 12872,18058 12502,17661 "/>
  <polygon class="fil6 str0" points="5403,10421 5384,10835 5384,11549 5384,12158 5331,12528 5199,13057 5067,13692 5370,14063 5690,14458 5997,14925 6310,15386 6717,15975 7342,16841 7660,17238 8039,17767 8548,18165 9128,18561 9604,18891 9995,19159 10530,19539 10941,19910 11154,20082 13184,20082 12859,19334 12412,18462 11955,17692 11593,16991 11336,16548 10996,16066 10525,15441 10298,15171 10147,14989 10173,14698 10173,13904 10226,13189 10279,13176 10358,13163 10570,13084 10835,12872 11179,12607 11470,12237 11655,11787 11840,11311 11972,10755 12131,10094 12211,9591 12290,9009 12290,8348 12237,7927 12176,7453 12182,7183 12155,6495 12131,5966 12052,5437 11919,5040 11734,4591 11523,4273 11099,3929 10676,3797 10147,3691 9538,3717 9168,4194 8692,4670 8212,5317 7792,5808 7422,6257 6813,7131 5993,7924 5543,8480 5384,9353 5146,10014 5112,10315 5133,10398 5173,10438 5226,10438 5278,10438 5343,10399 "/>
  <polygon class="fil7" points="9829,10517 9644,10464 9432,10491 9141,10544 8903,10623 8744,10702 8533,10782 8321,10888 8162,10941 8324,10981 8480,11020 8692,11126 9009,11205 9300,11284 9671,11337 9962,11337 10332,11258 10676,11126 10941,11073 11099,10941 10914,10782 10702,10623 10544,10544 10385,10517 10147,10491 9988,10544 "/>
  <ellipse class="fil8 str0" transform="matrix(0.951354 0.350298 -0.186543 0.982447 7358.32 16641.4)" rx="212" ry="79"/>
  <polygon class="fil0 str0" points="7262,16555 7264,16704 7414,16732 7419,16586 "/>
  <ellipse class="fil8 str0" transform="matrix(1 0.166681 -0 1 7768.39 16782.7)" rx="212" ry="79"/>
  <polygon class="fil0 str0" points="7690,16694 7692,16843 7842,16872 7847,16725 "/>
  <ellipse class="fil8 str0" transform="matrix(1 0.166681 -0 1 8161.51 16889.1)" rx="212" ry="79"/>
  <polygon class="fil0 str0" points="8083,16800 8085,16949 8235,16978 8240,16832 "/>
  <polyline class="fil2 str2" points="10543,13094 10133,13205 9935,13189 9591,13216 9247,13216 9075,13203 8506,13057 8004,12898 7580,12713 7131,12422 6839,12211 6522,11972 6231,11681 5966,11364 5808,11099 "/>
  <ellipse class="fil8 str0" transform="matrix(1 0.166681 -0 1 8557.3 16987.4)" rx="212" ry="79"/>
  <polygon class="fil0 str0" points="8479,16898 8481,17048 8631,17076 8636,16930 "/>
  <ellipse class="fil8 str0" transform="matrix(1 0.166681 -0 1 8980.34 17103.1)" rx="212" ry="79"/>
  <polygon class="fil0 str0" points="8902,17014 8904,17163 9054,17192 9059,17046 "/>
  <ellipse class="fil8 str0" transform="matrix(-1 0.166681 -0 1 9406.6 17124.9)" rx="212" ry="79"/>
  <polygon class="fil0 str0" points="9485,17036 9483,17185 9333,17214 9328,17068 "/>
  <ellipse class="fil8 str0" transform="matrix(0.984194 -0.243196 0.396234 0.91815 9791.71 17052.6)" rx="212" ry="79"/>
  <polygon class="fil0 str0" points="9713,16964 9716,17113 9866,17142 9870,16995 "/>
  <ellipse class="fil8 str0" transform="matrix(-0.915289 0.166681 -0 1 10193.8 16928.5)" rx="212" ry="79"/>
  <polygon class="fil0 str0" points="10272,16840 10270,16989 10120,17017 10115,16871 "/>
  <ellipse class="fil8 str0" transform="matrix(-0.650776 0.646295 0.650797 0.631248 10498 16731.2)" rx="212" ry="79"/>
  <polygon class="fil0 str0" points="10382,16749 10480,16636 10614,16711 10523,16826 "/>
  <ellipse class="fil8 str0" transform="matrix(-0.161426 0.821567 0.947628 0.262164 10670 16411.3)" rx="212" ry="79"/>
  <polygon class="fil0 str0" points="10590,16326 10738,16345 10750,16497 10604,16486 "/>
  <ellipse class="fil8 str0" transform="matrix(0.273148 0.850254 0.871568 -0.127875 10646.3 16057.5)" rx="212" ry="79"/>
  <polygon class="fil0 str0" points="10707,15980 10705,16105 10579,16129 10575,16006 "/>
  <ellipse class="fil8 str0" transform="matrix(0.214242 0.696871 0.712778 -0.0954355 10544.2 15680.4)" rx="212" ry="79"/>
  <polygon class="fil0 str0" points="10513,15595 10514,15738 10574,15766 10576,15625 "/>
  <ellipse class="fil8 str0" transform="matrix(-0.371423 -0.570999 -0.912966 0.0677429 10460 15445.9)" rx="212" ry="79"/>
  <polygon class="fil0 str0" points="10414,15394 10416,15481 10503,15498 10506,15412 "/>
  <ellipse class="fil8 str0" transform="matrix(0.318619 0.479191 0.656373 -0.161308 10372.9 15268.8)" rx="212" ry="79"/>
  <polygon class="fil0 str0" points="10319,15208 10320,15310 10424,15330 10427,15229 "/>
  <polygon class="fil0 str0" points="5303,12640 5173,12528 5067,12581 4908,12687 4829,12793 4802,12925 4961,12978 5093,13070 5199,13057 "/>
  <polygon class="fil0 str0" points="8189,2977 8004,3056 7766,3162 7660,3215 7818,3268 8004,3162 "/>
  <polygon class="fil0 str0" points="7263,3241 7369,3241 7633,3082 7924,2950 8189,2871 8427,2818 8692,2738 8401,2738 8109,2818 7818,2871 7607,2977 "/>
  <polygon class="fil0 str0" points="11390,4035 11549,4220 11655,4352 11814,4432 11999,4617 11893,4352 12025,4405 11867,4220 11761,4088 11655,3982 "/>
  <polygon class="fil0 str0" points="12290,6178 12343,6496 12422,6707 12392,6986 12396,7289 12422,7607 12343,7924 12343,8057 12263,7898 12184,7580 12158,7183 12211,6734 12184,6337 12211,5940 "/>
  <polygon class="fil0 str0" points="10888,3426 11258,3506 11606,3542 11972,3731 12199,3615 11394,3321 11020,3294 10755,3294 "/>
  <polyline class="fil2 str3" points="9697,1812 10041,2156 10253,2342 10379,2790 10464,3321 10411,3744 "/>
  <path class="fil9 str0" d="M9697 1812l-542 -172 -750 -231 -639 -73 -503 0 -556 106 -688 397 -555 423 -503 397 -450 450 -238 344 -370 688 -371 820 -79 317 159 -132 -212 371 -185 344 -95 95 -91 90 265 -53 -159 211 -106 239 -158 291 -27 582 -79 635 0 582 -106 211 -238 133 132 53 238 -53 -185 185 -291 238 265 -26 158 -80 -211 291 -133 133 265 -106 -106 317 -79 238 185 -105 -106 344 -79 132 264 -185 -158 396 -53 133 211 -106 -105 291 -80 185 212 -132 -79 370 -27 318 185 -238 -53 397 133 291 211 132 159 106 159 79 106 106 158 79 186 53 238 80 291 53 370 79 265 -344 236 59 81 -482 0 -544 0 -846 53 -489 -145 185 -93 0 -66 -13 -40 -145 53 -292 238 -661 80 -437 79 -436 289 -357 354 -385 217 -211 506 -535 698 -959 635 -913c0,0 21,-339 211,-344 191,-6 450,-503 450,-503l609 -489 330 -80 569 40 688 185 308 250 327 412 252 648 105 463 40 529 53 728 -2 552 110 832 -42 957 -184 1065 -226 946 -370 926 -291 370 -344 265 -133 106 318 0 291 -80 556 -158 238 -238 344 26 -225 -212 410 106 -159 -317 291 79 -132 -450 212 106 -53 -291 238 265 -212 -530 132 -105 -264 -424 -106 -291 238 27 53 -318 79 -238 80 -423 344 -582 344 -662 158 -582 106 -661 -26 -662 -106 -767 -185 -662 -582 -1164 -344 -555 -424 -450 -688 -423 -635 -186 -344 -132 -370 -53 -238 -26 -172 39 -172 -172z"/>
  <polygon class="fil10 str0" points="8744,1601 7924,1468 7474,1521 6839,1733 6125,2130 5464,2659 4934,3109 4485,3585 4035,4008 4458,3426 4908,2924 5464,2447 6125,1945 6681,1627 7210,1468 7766,1336 8321,1389 8983,1548 9327,1733 "/>
  <polygon class="fil10 str0" points="9988,2315 10226,2474 10253,2659 9776,2342 9115,1998 8506,1892 8083,1839 7474,2024 7025,2156 6654,2474 6257,2818 5940,3188 5384,3691 4829,4247 4326,4776 3903,4987 3612,5146 4061,4723 4538,4299 5120,3664 5755,3056 6363,2421 6866,2103 7422,1892 7977,1680 8586,1707 9168,1839 9671,2024 "/>
  <polygon class="fil10 str0" points="9848,2620 10325,2806 9618,2659 8983,2606 8401,2738 7964,2844 7607,2977 7263,3241 6932,3413 6496,3929 6046,4485 5569,5226 5252,6046 5067,6972 4934,7263 4405,7554 4061,7633 3797,7607 3956,7474 4299,7448 4696,7236 4961,6866 5067,6337 5199,5755 5464,5067 5728,4643 6125,4061 6575,3532 6972,3162 7369,2924 7845,2686 8401,2527 8877,2474 9406,2474 "/>
  <polygon class="fil10 str0" points="8771,2342 8215,2394 8011,2454 7580,2580 6945,2871 6178,3426 5702,3850 5093,4432 4564,5040 4220,5411 3850,5596 3532,5569 3770,5702 4114,5622 4405,5384 4908,4908 5331,4405 5940,3770 6257,3559 5808,4035 5278,4696 5040,5067 4749,5517 4485,5887 4088,6257 3744,6628 3453,6919 3135,6972 3321,7104 3664,7025 3797,6866 4194,6469 4564,6125 4987,5596 5173,5278 5384,4855 5702,4432 5993,3982 6390,3506 6839,3109 7448,2765 "/>
  <polygon class="fil10 str0" points="9776,2871 9432,2871 8956,2977 8427,3268 7977,3638 7554,4008 7157,4538 6681,5146 6416,5517 6284,5913 6099,6443 5913,6787 6019,6204 6337,5278 6919,4538 7474,3823 8109,3347 8586,3003 9115,2791 "/>
  <polygon class="fil10 str0" points="9909,3135 9485,3109 8930,3373 8215,3823 7713,4247 7183,4882 6681,5808 6125,6681 6734,5966 7316,5014 7951,4247 8586,3770 9141,3426 9379,3321 "/>
  <polygon class="fil10 str0" points="10306,3135 10306,3321 10067,3215 9856,3321 9459,3585 8930,3982 8586,4194 8162,4643 7898,4934 7448,5543 7025,6178 6681,6813 6416,7316 5966,7739 5437,8136 4934,8401 4220,8427 3453,8189 3056,7739 2844,7316 2712,6919 2633,6548 2871,6734 3082,7131 3294,7474 3691,7792 4061,7898 4538,7951 5146,7871 5358,7845 4776,7739 4617,7633 4987,7633 5358,7660 5755,7580 6046,7342 6416,6839 6787,6204 7183,5543 7501,5040 7898,4538 8268,4194 8956,3717 9591,3321 9909,3135 "/>
  <polygon class="fil10 str0" points="10464,2500 10941,2474 11284,2527 11708,2580 12025,2659 11417,2394 10967,2342 10597,2342 "/>
  <polygon class="fil10 str0" points="10325,2806 10941,2633 11337,2659 11814,2738 12237,2897 12528,3109 11999,2950 11284,2818 10835,2818 10517,2871 "/>
  <polygon class="fil10 str0" points="10888,3135 12263,3638 12766,4114 13057,4511 13242,5040 13428,5596 13428,6152 13401,6866 13348,7342 13613,6575 13586,5569 13507,5067 13269,4564 13110,4299 12713,3876 12158,3479 "/>
  <polygon class="fil10 str0" points="11523,3479 12369,4114 12713,4617 12898,4987 13084,5543 13189,6231 13137,6813 13031,7686 12713,8718 13242,7660 13242,7025 13295,6125 13242,5569 13057,4934 12713,4432 12422,3982 "/>
  <polygon class="fil10 str0" points="10649,3479 11576,3823 12158,4299 12528,4882 12766,5517 12872,6337 12872,6998 12793,7633 12554,8162 12396,8559 12290,8856 12343,9459 12449,8877 12687,8348 12951,7554 13031,6654 13031,6099 12925,5437 12740,4934 12369,4326 11867,3850 11337,3612 "/>
  <polygon class="fil10 str0" points="13348,7342 13269,7871 13057,8559 12846,9062 12581,9538 12343,9988 12740,9512 13137,8771 13295,8083 "/>
  <polygon class="fil10 str0" points="12263,10173 12184,10597 12025,11311 11708,12422 11311,12898 11734,12554 12025,11893 12237,11284 "/>
  <polygon class="fil10 str0" points="12290,10702 12316,10993 12422,11628 12343,12131 12105,12502 12237,11919 12237,11284 "/>
  <polygon class="fil10 str0" points="3241,8268 3453,8321 3347,8665 3188,9141 2977,9565 2712,9829 2844,9512 3003,9194 3135,8850 3215,8506 "/>
  <polygon class="fil10 str0" points="3744,8453 3876,8506 3876,8824 3717,9274 3479,9618 3188,10014 2924,10226 2791,10385 2977,9935 3268,9644 3506,9300 3638,8930 "/>
  <polygon class="fil10 str0" points="4194,8559 4088,8930 3876,9432 3612,9750 3321,10120 3135,10385 3479,10173 3770,9776 4035,9432 4247,8983 4326,8559 "/>
  <polygon class="fil10 str0" points="4802,8559 4987,8533 4882,8824 4723,9300 4458,9565 3903,10067 3559,10332 3294,10491 3744,10041 4352,9459 4564,9221 4723,8824 "/>
  <polygon class="fil11 str0" points="5173,8983 5146,9353 5040,9723 4882,10067 4670,10332 4485,10570 4141,10729 3744,10861 3479,10835 3109,10729 2871,10570 2659,10491 2791,10385 3003,10491 3241,10623 3506,10702 3744,10729 4008,10623 4379,10411 4643,10200 4776,9909 4882,9697 4908,9406 4908,9247 "/>
  <polygon class="fil11 str0" points="3559,10835 3479,10835 3321,10835 3347,11073 3373,11205 3453,11099 3506,11258 3532,11443 3612,11628 3717,11814 3876,11999 3982,12131 4088,12211 4008,11972 3903,11787 3744,11576 3691,11337 3664,11205 3770,11205 3850,11258 3929,11179 3903,11073 3823,10993 3744,10861 "/>
  <polygon class="fil11 str0" points="3956,10888 4008,11046 4088,11284 4299,11364 4405,11496 4696,11602 4829,11708 4776,11549 4591,11470 4485,11337 4643,11390 4749,11443 4802,11337 4643,11205 4538,11046 4432,10888 4326,10835 4114,10861 "/>
  <polygon class="fil10 str0" points="3029,10914 3135,11258 3135,11523 3188,12025 3321,12237 3003,11972 3003,11311 "/>
  <polygon class="fil10 str0" points="3532,11443 3559,11840 3850,12237 4247,12502 4868,12740 4352,12713 3850,12422 3532,12025 3426,11549 "/>
  <polygon class="fil10 str0" points="3956,11496 4088,11761 4379,11999 4643,12211 4745,12300 4851,12392 5067,12581 5173,12528 4273,11734 "/>
  <ellipse class="fil2 str4" transform="matrix(0.999548 0.0248097 -0.0300692 0.824715 5197.45 11150.8)" rx="169" ry="351"/>
  <line class="fil2 str4" x1="5208" y1="10861" x2="5199" y2= "10464" />
  <polyline class="fil2 str2" points="10226,7104 10226,7448 10253,7871 10358,8321 10438,8639 10517,8983 10570,9247 10544,9459 10332,9644 10041,9829 9856,9776 "/>
  <g>
   <path class="fil12" d="M10839 10986l211 14 -61 14 -211 -14 -32 -4 93 -10zm-61 14l-23 -1 -9 -3 32 4zm-66 -62l158 53 -124 5 -159 -53 123 -6 2 1zm-2 -1l1 1 1 0 -2 -1zm-185 -52l185 52 -122 7 -185 -53 118 -7 4 1zm-4 -1l2 0 2 1 -4 -1zm-132 -27l132 27 -113 8 -133 -27 9 -9 105 1zm-105 -1l60 -8 45 9 -105 -1zm-211 26l211 -26 96 11 -212 26 -48 3 -47 -14zm95 11l-20 3 -28 0 48 -3zm-392 -13l344 0 0 16 -344 0 -47 -3 47 -13zm0 16l-28 0 -19 -3 47 3zm-164 -40l212 26 -95 11 -212 -26 48 -14 47 3zm-47 -3l28 0 19 3 -47 -3zm-238 0l238 0 0 16 -238 0 -48 -13 48 -3zm-48 3l19 -3 29 0 -48 3zm-212 26l212 -26 95 11 -211 26 -48 3 -48 -14zm96 11l-20 3 -28 0 48 -3zm-286 -13l238 0 0 16 -238 0 -45 -14 45 -2zm-45 2l19 -2 26 0 -45 2zm-238 26l238 -26 90 11 -238 27 -99 -11 9 -1zm-9 1l4 0 5 -1 -9 1zm-159 27l159 -27 107 10 -158 26 -16 2 -92 -11zm108 9l-7 1 -9 1 16 -2zm-329 9l237 -20 76 13 -237 20 -76 -13z"/>
  </g>
  <polygon class="fil13 str0" points="8263,7183 8286,7273 8295,7342 8279,7435 8193,7562 8070,7594 7897,7640 7752,7576 7686,7474 7635,7369 7594,7316 7554,7303 7433,7361 7366,7391 7382,7455 7461,7580 7660,7660 7898,7766 8123,7739 8334,7699 8559,7607 8758,7501 8692,7395 8506,7236 8361,7117 "/>
  <g>
   <path class="fil14" d="M7648 7251l521 -147c77,56 126,142 126,238 0,168 -148,304 -331,304 -183,0 -331,-136 -331,-304 0,-32 5,-62 15,-91z"/>
   <path class="fil2" d="M8169 7104c77,56 126,142 126,238 0,168 -148,304 -331,304 -183,0 -331,-136 -331,-304 0,-32 5,-62 15,-91"/>
  </g>
  <polygon class="fil8" points="7342,7408 7422,7501 7527,7580 7660,7660 7845,7713 8004,7739 8162,7713 8321,7660 8480,7607 8665,7527 8718,7501 8692,7395 8506,7236 8639,7263 8797,7395 8903,7501 8718,7607 8533,7686 8401,7739 8215,7792 7977,7818 7766,7792 7554,7713 7422,7633 7316,7580 7236,7474 "/>
  <polygon class="fil0 str0" points="6945,7527 7051,7527 7183,7501 7289,7448 7395,7369 7527,7342 7660,7289 7818,7236 7977,7210 8032,7196 8083,7183 8242,7183 8348,7183 8427,7236 8506,7236 8639,7263 8506,7157 8401,7131 8321,7104 8109,7078 7951,7104 7686,7157 7474,7210 7316,7316 7157,7395 7078,7448 "/>
  <ellipse class="fil0 str0" cx="7990" cy="7326" rx="172" ry="146"/>
  <ellipse class="fil15 str0" cx="7990" cy="7326" rx="66" ry="53"/>
  <polygon class="fil16" points="9829,9459 9723,9406 9538,9406 9406,9459 9300,9485 9327,9565 9432,9565 9538,9565 9618,9512 9723,9512 9882,9538 "/>
  <polygon class="fil13 str0" points="11038,7214 10861,7236 10666,7328 10570,7369 10358,7501 10358,7607 10570,7660 10808,7713 11046,7792 11377,7779 11768,7607 11628,7395 11328,7252 "/>
  <g>
   <path class="fil14" d="M11259 7187l-536 72c-48,82 -59,180 -20,269 67,154 257,220 424,147 168,-73 249,-256 182,-411 -12,-29 -29,-55 -50,-77z"/>
   <path class="fil2" d="M10723 7259c-48,82 -59,180 -20,269 67,154 257,220 424,147 168,-73 249,-256 182,-411 -12,-29 -29,-55 -50,-77"/>
  </g>
  <ellipse class="fil0 str0" cx="10993" cy="7369" rx="172" ry="146"/>
  <ellipse class="fil15 str0" cx="10993" cy="7369" rx="66" ry="53"/>
  <polygon class="fil17" points="11073,7210 10861,7236 10763,7288 10570,7369 10464,7501 10358,7607 10491,7633 10649,7686 10808,7713 10991,7732 11123,7720 11311,7713 11496,7686 11681,7607 11761,7660 11602,7713 11470,7766 11284,7792 11126,7792 10967,7792 10729,7766 10597,7739 10464,7713 10306,7660 10358,7501 10491,7369 10623,7263 10702,7210 10782,7183 10941,7157 11099,7157 "/>
  <polygon class="fil0 str0" points="10755,7170 11134,7239 11232,7263 11417,7316 11523,7395 11628,7501 11681,7607 11972,7607 11946,7448 11840,7316 11734,7263 11549,7210 11390,7183 11258,7183 11165,7170 11065,7157 10941,7157 "/>
  <path class="fil16 str0" d="M8971 6685c51,16 -231,-212 -312,-214 -3,0 -207,-42 -256,-46 -265,-28 -568,-37 -829,0 -133,18 -423,-44 -497,78 -52,85 -145,155 -159,221 -17,84 0,104 -52,142 0,61 363,-98 394,-108 111,-36 265,-124 402,-117 37,2 293,-31 402,-31 279,0 325,8 566,117 111,49 182,141 274,37 58,-65 13,10 67,-79z"/>
  <path class="fil16 str0" d="M10557 6672c-43,7 194,-149 262,-141 3,0 174,-9 215,-7 223,10 477,41 697,104 111,32 379,67 442,178 44,78 -9,-20 3,37 14,72 -23,185 21,223 0,51 -176,-106 -203,-119 -93,-44 -222,-137 -338,-149 -31,-3 -246,-62 -337,-76 -235,-35 -273,-33 -476,27 -93,28 -153,97 -230,-3 -49,-62 -11,7 -56,-74z"/>
  <polygon class="fil10 str0" points="9671,3612 9353,3956 9079,4256 8808,4553 8480,4987 7944,5647 7422,6257 7006,6854 6813,7131 6320,7607 6760,6945 7077,6503 7580,5755 7977,5252 8427,4617 9062,4008 "/>
 </g>
</svg>
