<?xml version="1.0" encoding="UTF-8"?>
<!DOCTYPE svg PUBLIC "-//W3C//DTD SVG 1.1//EN" "http://www.w3.org/Graphics/SVG/1.1/DTD/svg11.dtd">
<!-- Creator: CorelDRAW Home & Student X8 -->
<svg xmlns="http://www.w3.org/2000/svg" xml:space="preserve" width="159.276mm" height="201.611mm" version="1.1" style="shape-rendering:geometricPrecision; text-rendering:geometricPrecision; image-rendering:optimizeQuality; fill-rule:evenodd; clip-rule:evenodd"
viewBox="0 0 15928 20161"
 xmlns:xlink="http://www.w3.org/1999/xlink">
 <defs>
  <style type="text/css">
   <![CDATA[
    .str2 {stroke:black;stroke-width:79.37}
    .str5 {stroke:#663300;stroke-width:26.46}
    .str3 {stroke:#996633;stroke-width:26.46}
    .str1 {stroke:#BFB0B0;stroke-width:26.46}
    .str7 {stroke:#F7AFAF;stroke-width:26.46}
    .str6 {stroke:#FF9966;stroke-width:26.46}
    .str4 {stroke:black;stroke-width:52.92}
    .str0 {stroke:black;stroke-width:20}
    .str8 {stroke:#996633;stroke-width:7.62}
    .fil2 {fill:none}
    .fil6 {fill:none;fill-rule:nonzero}
    .fil3 {fill:black}
    .fil4 {fill:#1A1A1A}
    .fil11 {fill:#240303}
    .fil13 {fill:#333333}
    .fil9 {fill:#4D4D4D}
    .fil14 {fill:#663300}
    .fil17 {fill:#663333}
    .fil1 {fill:#6666FF}
    .fil12 {fill:gray}
    .fil8 {fill:#990000}
    .fil16 {fill:#996633}
    .fil21 {fill:#999999}
    .fil7 {fill:#A1423A}
    .fil15 {fill:#B3B3B3}
    .fil19 {fill:#FF9966}
    .fil18 {fill:#FF9999}
    .fil10 {fill:#FFCC99}
    .fil20 {fill:#FFCCCC}
    .fil5 {fill:#FFFFCC}
    .fil0 {fill:white}
   ]]>
  </style>
 </defs>
 <g id="Warstwa_x0020_1">
  <metadata id="CorelCorpID_0Corel-Layer"/>
  <polygon class="fil0 str0" points="5067,13613 4961,13692 4855,13824 4776,13930 4696,14063 4617,14195 4590,14354 4643,14539 4749,14698 4802,14777 4829,14459 4881,14142 4961,13877 5067,13745 "/>
  <polygon class="fil1 str0" points="4908,13586 4776,13613 4617,13692 4537,13772 4458,13877 4485,14221 4590,14354 4617,14195 4736,13996 4855,13824 4961,13692 "/>
  <polygon class="fil2 str0" points="4908,13586 5038,13634 "/>
  <polygon class="fil3 str0" points="4405,14010 4326,13930 4273,13824 4283,13656 4405,13533 4458,13428 4511,13269 4564,13163 4670,13057 4696,12898 4723,12766 4776,12898 4855,13004 4961,13110 4987,13295 5031,13452 5040,13533 5067,13613 4950,13671 4874,13593 4776,13613 4617,13692 4537,13772 4458,13877 4471,14049 "/>
  <polygon class="fil4 str0" points="4617,12634 4511,12793 4299,12925 4167,12978 4061,13084 4088,13242 4141,13375 4194,13507 4246,13692 4405,13533 4485,13348 4564,13163 4670,13057 4683,12978 4723,12766 "/>
  <polygon class="fil5 str0" points="5834,16417 5728,16338 5622,16312 5543,16338 5543,16444 5569,16550 5649,16603 5728,16682 5807,16788 5887,16814 5966,16788 5966,16708 5940,16603 5887,16497 "/>
  <line class="fil2 str0" x1="5755" y1="16563" x2="5675" y2= "16444" />
  <polygon class="fil5 str0" points="7243,18805 7223,18812 6945,18825 6839,19010 6813,19116 6839,19195 6919,19275 7038,19341 7210,19354 7342,19328 7395,19248 7421,19169 7448,19037 7421,18931 7342,18878 "/>
  <path class="fil6 str0" d="M6988 19010l60 0 -20 53 -60 0 20 -53zm30 0m20 27m-40 26m-20 -26"/>
  <path class="fil6 str0" d="M7190 18971l40 0 -14 79 -39 0 13 -79zm20 0m13 39m-26 40m-14 -40"/>
  <path class="fil6 str0" d="M7044 19169l60 0 -20 53 -59 0 19 -53zm30 0m20 26m-40 27m-20 -27"/>
  <path class="fil6 str0" d="M7210 19169l59 0 -20 53 -59 0 20 -53zm30 0m19 26m-39 27m-20 -27"/>
  <polygon class="fil3 str0" points="6114,19926 6213,19565 6231,19090 6337,18746 6548,18375 6601,18111 6734,17846 6919,17582 7077,17211 7263,16629 7236,16497 7210,16364 7316,16841 7289,17052 7210,17264 6998,17714 6839,18005 6707,18322 6459,18879 "/>
  <polygon class="fil4 str0" points="3876,7607 3797,7448 3691,7448 3664,7580 3770,7660 3850,7765 3929,7924 3955,8109 3955,8242 4008,8453 4114,8480 4114,8321 4246,8295 4273,8215 4167,8109 4061,8004 3982,7792 "/>
  <polygon class="fil2 str0" points="8166,8177 8295,8215 8427,8268 8559,8295 8559,8189 8533,8162 "/>
  <polygon class="fil7 str1" points="6707,8427 6681,8586 6767,8546 6952,8529 7025,8559 "/>
  <polygon class="fil5 str0" points="9565,17290 9485,17264 9406,17264 9326,17290 9274,17370 9221,17449 9221,17529 9353,17714 9459,17714 9565,17687 9591,17634 9617,17555 9644,17449 9617,17396 "/>
  <path class="fil6 str0" d="M6988 19010l60 0 -20 53 -60 0 20 -53zm30 0m20 27m-40 26m-20 -26"/>
  <path class="fil6 str0" d="M6988 19010l60 0 -20 53 -60 0 20 -53zm30 0m20 27m-40 26m-20 -26"/>
  <rect class="fil2 str0" x="9326" y="17396" width="52.92" height="52.91"/>
  <rect class="fil2 str0" x="9459" y="17396" width="52.91" height="79.37"/>
  <rect class="fil2 str0" x="9326" y="17529" width="52.92" height="52.92"/>
  <rect class="fil2 str0" x="9459" y="17555" width="52.92" height="52.91"/>
  <polygon class="fil8 str2" points="4617,12634 4511,12396 4141,12740 3823,13110 3823,13719 3850,14327 3876,14830 4008,15385 4432,16206 4829,17052 5186,17621 5569,18322 5543,17899 5358,17264 5040,16655 4908,16312 4908,16020 4881,15888 4998,15714 5448,15661 5067,15253 4829,14883 4722,14657 4590,14354 4303,13874 4273,13824 4233,13665 4194,13507 4088,13242 4061,13084 4233,12951 4450,12831 "/>
  <polygon class="fil5 str0" points="5368,17533 5210,17533 5183,17718 5210,17824 5236,17930 5289,18009 5395,17983 5448,17903 5474,17797 5448,17718 5421,17639 "/>
  <polygon class="fil9 str0" points="5342,17784 5336,17734 5329,17678 5329,17864 "/>
  <polygon class="fil0 str0" points="5014,15227 5040,15491 5082,15603 5126,15720 5172,15703 5067,15253 "/>
  <polygon class="fil5 str0" points="4167,13692 4180,13876 4194,14063 4273,14459 4379,14856 4511,15253 4696,15677 4829,16073 4881,15888 4696,15518 4590,15147 4432,14724 4352,14407 4299,14168 4281,13840 "/>
  <polygon class="fil5 str0" points="4035,15253 4273,15650 4564,16153 4829,16629 5067,17026 5252,17317 5331,17423 5331,17533 5014,17079 4723,16576 4352,15915 4194,15624 "/>
  <polygon class="fil10 str0" points="3850,13533 4036,14265 4273,14883 4458,15465 4643,15941 4881,16364 4908,16470 4537,15915 4299,15227 4008,14433 3876,13877 "/>
  <polygon class="fil11 str0" points="5464,15968 5543,16338 5569,16550 5669,16642 5622,17079 5596,17687 5543,17899 5307,17166 5040,16655 4833,16279 4855,15981 4921,15835 4998,15714 5172,15703 5412,15665 "/>
  <polygon class="fil8 str0" points="5408,15648 5781,16100 6125,16391 6442,16682 6760,16973 7077,17211 6390,16999 5966,16788 5887,16497 5728,16338 5540,16256 "/>
  <line class="fil2 str0" x1="6601" y1="12449" x2="6522" y2= "12475" />
  <polygon class="fil3 str0" points="6522,12554 6628,12528 6813,12502 7077,12502 7474,12502 7421,12449 6760,12449 6562,12462 "/>
  <polygon class="fil10 str0" points="4968,13162 5067,13613 5067,13745 4961,13877 4921,14010 4873,14193 4829,14459 4815,14618 4802,14777 4855,14925 4966,15097 5146,15280 5252,15385 5448,15661 5495,15753 5693,15993 5953,16245 6154,16417 6337,16585 6601,16827 6822,17020 7077,17211 7170,16920 7226,16745 7223,16431 7210,16100 7289,15888 7395,15703 7486,15508 7236,15412 7157,15333 6866,15306 6654,15174 6469,15042 6178,14883 5966,14671 5826,14591 5781,14407 5755,14195 5728,14036 5622,13824 5331,13507 "/>
  <line class="fil2 str0" x1="5464" y1="15968" x2="5504" y2= "16089" />
  <polygon class="fil5 str0" points="6507,17035 5474,15952 5581,15981 6465,16919 "/>
  <polygon class="fil8 str0" points="3770,13983 3532,14063 3056,14221 2685,14327 2156,14486 1601,14645 1071,14856 542,15094 39,15335 39,15560 39,15877 463,15782 1019,15624 1521,15491 2183,15333 2897,15147 3373,14989 3876,14830 3823,14512 3815,14435 3806,14343 3797,14248 "/>
  <polygon class="fil10 str0" points="39,15414 39,15507 331,15385 595,15253 860,15121 1177,14989 1548,14830 1786,14724 1997,14618 2315,14512 2580,14433 2818,14327 2537,14372 2156,14486 1878,14565 1627,14698 1177,14883 807,15042 436,15227 "/>
  <polygon class="fil10 str0" points="39,15560 39,15659 357,15518 727,15385 992,15280 1230,15174 1415,15068 1601,14989 1865,14909 2103,14803 2421,14645 2791,14512 3056,14407 3320,14274 3585,14142 3774,14026 3532,14063 3267,14221 3029,14354 2738,14459 2474,14565 2183,14671 1997,14777 1759,14856 1548,14936 1336,15042 1045,15174 833,15253 516,15385 278,15491 "/>
  <polygon class="fil10 str0" points="39,15824 50,15875 189,15844 569,15677 939,15544 1257,15412 1574,15253 1892,15121 2209,15015 2500,14856 2765,14698 3029,14592 3373,14433 3532,14327 3638,14274 3797,14248 3788,14159 3585,14221 3400,14327 3294,14407 3029,14512 2791,14592 2553,14724 2421,14830 2209,14936 1654,15121 1389,15253 1124,15385 913,15465 595,15597 251,15756 "/>
  <polygon class="fil10 str0" points="3638,14486 3822,14440 3806,14343 3638,14380 3532,14512 3400,14618 3215,14698 2950,14803 2712,14909 2474,15042 2209,15174 1918,15280 1733,15333 1574,15438 1786,15385 1971,15333 2236,15253 2474,15121 2712,14989 2924,14883 3162,14777 3400,14698 "/>
  <polygon class="fil10 str0" points="3850,14671 3863,14578 3603,14689 3169,14950 2881,15147 3268,15000 3664,14777 "/>
  <polygon class="fil8 str0" points="39,15877 359,15803 463,15778 739,15702 839,15674 948,15644 1553,15484 2325,15296 2946,15131 3423,14973 3876,14830 3929,15227 4114,15703 4352,16153 4643,16735 4855,17158 5188,17685 5210,17824 5263,17969 5289,18009 5342,17996 5490,18243 5622,18455 5596,17952 5596,17687 5611,17331 5622,17079 5860,17317 6019,17370 6257,17661 6585,18194 6257,17502 6125,17317 5993,17238 5966,17105 6151,17079 6257,17317 6760,17343 6813,17476 6919,17343 6970,17178 7073,17222 6998,17396 6882,17633 6734,17846 6636,18040 6585,18194 6561,18312 6401,18634 6310,18833 6247,19037 6222,19327 6151,19672 6114,19926 6114,20042 3290,20042 39,20042 39,19661 39,17154 "/>
  <polygon class="fil10 str0" points="119,17608 198,17132 251,16682 331,16285 411,15791 359,15803 251,16391 198,16735 172,16999 119,17211 92,17449 39,17584 39,17802 "/>
  <polygon class="fil10 str0" points="39,19442 39,19707 172,19381 225,19037 331,18693 384,18375 489,17846 542,17476 569,17052 701,16576 780,16232 839,15674 789,15688 754,16047 701,16312 648,16523 542,16867 489,17211 463,17529 410,17899 304,18402 251,18772 198,18957 119,19248 "/>
  <polygon class="fil10 str0" points="1203,15576 1177,15915 1124,16100 1045,16364 1019,16655 939,17079 833,17423 754,17793 754,18058 675,18481 595,18957 516,19407 436,19725 363,20042 436,20016 489,19751 595,19275 675,18904 727,18560 807,18190 833,17846 860,17634 939,17343 1045,16999 1071,16682 1124,16338 1204,16047 1257,15809 1270,15557 "/>
  <polygon class="fil10 str0" points="1624,15466 1569,15800 1495,16206 1415,16603 1362,16973 1310,17238 1204,17608 1098,17978 1071,18349 913,19195 833,19619 780,19830 780,20042 845,20042 833,19778 886,19592 939,19381 992,19090 1098,18481 1151,18243 1204,17952 1283,17634 1389,17264 1442,16973 1468,16761 1521,16444 1574,16100 1688,15451 "/>
  <polygon class="fil10 str0" points="2078,15358 2022,15371 1945,15729 1918,16126 1864,16287 1812,16444 1786,16682 1706,17026 1680,17343 1627,17529 1627,17608 1548,17899 1468,18322 1362,18878 1257,19275 1177,19645 1151,19883 1151,20042 1223,20042 1230,19804 1283,19460 1362,19116 1468,18693 1495,18402 1574,18190 1601,17952 1680,17714 1706,17502 1759,17132 1812,16788 1865,16470 1997,16126 1997,15888 2024,15650 "/>
  <polygon class="fil10 str0" points="2540,15240 2450,15263 2447,15438 2368,15650 2315,15756 2315,15915 2289,16285 2209,16470 2156,16576 2103,16947 2077,17370 1997,17740 1945,17899 1892,18217 1812,18666 1733,19063 1627,19539 1548,19830 1548,20042 1613,20042 1601,19804 1733,19381 1812,18931 1945,18402 1997,18084 2024,17899 2077,17740 2130,17449 2156,17185 2183,16841 2236,16603 2315,16391 2341,16206 2368,15809 2447,15650 2500,15518 2527,15385 "/>
  <polygon class="fil10 str0" points="2946,15131 2897,15147 2871,15465 2738,15756 2632,15968 2632,16259 2632,16523 2553,16735 2474,16894 2460,17068 2447,17238 2394,17582 2368,17793 2315,18164 2262,18349 2183,18799 2077,19222 1997,19672 1997,20042 2083,20042 2077,19725 2130,19328 2236,18852 2315,18455 2368,18111 2421,17820 2500,17370 2553,16999 2553,16867 2632,16735 2712,16550 2712,16232 2712,15994 2791,15809 2871,15650 2924,15491 2976,15280 "/>
  <polygon class="fil10 str0" points="3373,14989 3267,15025 3188,15782 2976,16153 2976,16603 2950,16894 2871,17052 2844,17158 2818,17476 2791,17608 2738,17793 2685,18164 2580,18719 2474,19301 2421,19592 2368,19857 2368,20042 2433,20042 2447,19804 2527,19381 2606,18931 2712,18428 2765,18084 2844,17687 2924,17238 2950,17052 3029,16788 3056,16417 3056,16206 3082,16126 3241,15862 3267,15729 3320,15200 "/>
  <polygon class="fil10 str0" points="3747,14870 3703,14884 3649,14901 3611,15121 3559,15544 3532,15677 3506,15809 3479,16020 3453,16126 3373,16259 3294,16391 3320,16814 3294,16999 3241,17290 3188,17396 3162,17634 3056,18243 2950,18904 2844,19381 2765,19804 2765,20042 2817,20042 2844,19698 2976,19116 3109,18428 3188,17793 3294,17264 3373,16999 3373,16629 3373,16417 3426,16312 3532,16126 3585,15941 3611,15624 3664,15200 "/>
  <polygon class="fil10 str0" points="3976,15349 3929,15227 3823,15438 3850,15888 3823,16285 3717,16444 3638,16550 3664,16947 3638,17317 3556,17436 3559,17820 3506,18084 3426,18508 3373,18878 3267,19381 3176,19698 3176,20042 3233,20042 3241,19778 3294,19434 3479,18746 3479,18587 3532,18269 3611,17873 3638,17634 3664,17476 3744,17211 3744,16550 3876,16312 3902,15809 3902,15491 "/>
  <polygon class="fil10 str0" points="4162,15793 4249,15958 4273,16364 4246,16470 4167,16682 4114,16814 4061,17158 4035,17661 4035,17952 3955,18349 3850,18825 3770,19328 3717,19751 3691,19883 3691,20042 3611,20042 3611,19778 3717,19248 3823,18587 3942,17917 3955,17396 3982,17079 4035,16761 4035,16655 4167,16470 4194,16232 "/>
  <polygon class="fil10 str0" points="4498,16444 4608,16665 4558,16837 4504,17010 4451,17433 4379,18005 4340,18344 4299,18693 4167,19460 4114,19804 4114,20042 3974,20042 4061,19460 4194,18772 4352,17899 4432,17052 "/>
  <polygon class="fil10 str0" points="4855,17158 4816,17080 4776,17449 4749,17899 4670,18322 4590,18772 4537,19143 4458,19513 4432,19778 4432,20042 4491,20042 4485,19751 4564,19328 4643,18931 4696,18481 4749,18217 4829,17873 4855,17529 "/>
  <polygon class="fil10 str0" points="5183,17718 5146,17978 5120,18217 5067,18455 5040,18904 4987,19090 4908,19407 4855,19725 4855,20042 4914,20042 4908,19751 4987,19354 5067,19090 5093,18825 5120,18534 5172,18269 5199,18031 "/>
  <polygon class="fil10 str0" points="6416,17370 6390,17608 6390,17767 6442,17820 6469,17687 6469,17449 6475,17328 "/>
  <polygon class="fil10 str0" points="6442,18031 6390,17978 6390,18243 6390,18508 6481,18473 "/>
  <polygon class="fil10 str0" points="6813,17476 6826,17714 6919,17582 6866,17410 6797,17437 "/>
  <polygon class="fil10 str0" points="6059,17277 6059,17092 6019,17185 6019,17185 "/>
  <polygon class="fil10 str0" points="6019,17661 6138,17515 6019,17449 5993,17582 5940,17661 5940,17873 5940,18190 5940,18269 6019,18269 "/>
  <polygon class="fil10 str0" points="6125,18455 6072,18375 6046,18587 6019,18931 5993,19354 5993,19672 5993,20042 6054,20042 6072,19725 6072,19063 6099,18640 "/>
  <polygon class="fil10 str0" points="5584,18394 5556,18349 5464,18719 5411,19169 5331,19460 5278,19751 5265,19806 5252,19857 5252,20042 5305,19989 5384,19566 5437,19275 5490,19037 5516,18852 "/>
  <polygon class="fil10 str0" points="5834,18772 5834,19169 5781,19354 5755,19592 5702,20042 5757,20042 5807,19672 5860,19434 5913,19090 5887,18852 "/>
  <polygon class="fil3 str0" points="5600,18033 5781,18243 5823,18271 5940,18349 6125,18455 6204,18508 6390,18508 6257,18428 6072,18322 "/>
  <polyline class="fil2 str0" points="5699,18540 5834,18772 5987,18831 "/>
  <line class="fil2 str0" x1="5987" y1="18831" x2="5699" y2= "18540" />
  <polygon class="fil3 str0" points="5834,18772 5987,18831 5699,18540 "/>
  <polygon class="fil10 str3" points="5265,13758 5093,13428 5120,13533 5225,13719 5384,14036 5781,14565 5635,14287 5464,14089 "/>
  <polygon class="fil10 str3" points="5649,15385 6654,16470 5900,15610 5662,15346 5516,15042 4921,14010 5358,14777 5543,15174 "/>
  <polygon class="fil8 str0" points="7328,16386 7395,16708 7289,17052 7264,17111 7104,17489 6773,18164 6680,18384 6439,18940 6362,19175 6163,19746 6163,20042 16020,20042 16020,15970 15729,15888 13877,15306 12528,15015 11840,14803 11152,15782 10173,16947 9617,17555 9565,17687 9247,18111 9168,17502 9062,16814 8982,16364 8612,16444 8136,16444 7940,16430 7847,16423 "/>
  <polygon class="fil2 str0" points="7845,16788 7847,16423 "/>
  <polygon class="fil10 str0" points="7554,18005 7501,18058 7501,18269 7448,18428 7421,18587 7421,18931 7369,19209 7395,19248 7501,18904 7508,18601 7532,18488 7573,18300 "/>
  <polygon class="fil10 str0" points="8268,17370 8189,17423 8109,17634 8056,17873 7951,18137 7898,18269 7845,18931 7818,19328 7765,19460 7739,19910 7708,20042 7794,20042 7818,19645 7898,19301 7924,18931 7977,18322 8004,18243 8109,17925 8189,17714 "/>
  <line class="fil2 str0" x1="6919" y1="20042" x2="6828" y2= "20042" />
  <polygon class="fil10 str0" points="6879,19235 6813,19725 6786,19857 6786,20042 6874,20042 6866,19830 6919,19566 6919,19275 "/>
  <polygon class="fil10 str0" points="7342,19328 7316,19539 7289,19672 7263,19883 7263,20042 7324,20042 7342,19804 7395,19539 7369,19288 "/>
  <polygon class="fil10 str0" points="8718,17185 8665,17238 8639,17502 8586,17687 8453,18005 8427,18217 8374,18560 8347,18957 8268,19195 8242,19354 8242,19487 8189,19619 8189,20042 8277,20042 8268,19619 8321,19381 8347,19195 8400,18904 8400,18693 8480,18402 8506,18164 8559,17925 8665,17661 8744,17343 "/>
  <polygon class="fil12 str0" points="7230,16069 7212,16144 7527,16153 7792,16126 8030,16073 8982,15862 8903,15835 7818,16047 7448,16100 "/>
  <polygon class="fil10 str0" points="9040,16971 8934,17976 8797,18402 8718,18666 8665,18931 8639,19275 8586,19407 8559,19725 8546,19789 8533,19857 8533,20042 8588,20042 8612,19830 8665,19513 8718,19222 8744,18904 8771,18746 8961,18059 9069,17171 "/>
  <polygon class="fil10 str0" points="9289,18055 9247,18111 9194,18508 9115,18852 9062,19063 9035,19566 9009,19698 8982,19804 8982,20042 9051,20042 9062,19778 9115,19434 9141,19116 9168,18931 9247,18587 9274,18428 "/>
  <polygon class="fil10 str0" points="9803,17634 9723,17714 9697,18190 9644,18322 9617,18587 9565,18931 9538,19301 9485,19513 9459,19751 9459,20042 9540,20042 9538,19725 9538,19592 9617,19328 9644,18931 9697,18587 9723,18322 9776,18217 "/>
  <polygon class="fil11 str0" points="7201,17236 6632,18399 7263,18217 7342,18190 7607,17952 8149,17529 8268,17370 8665,17238 8930,17105 9072,16861 9141,16761 9115,16391 7328,16386 "/>
  <polygon class="fil10 str0" points="7505,16399 7612,16406 7554,16814 7448,17158 7183,17687 6998,18031 6786,18508 6601,18931 6522,19010 6442,19751 6442,20042 6352,20042 6363,19566 6439,18940 6734,18428 6945,17952 7289,17317 7342,17105 7421,16894 7448,16735 "/>
  <polygon class="fil10 str0" points="7847,16423 7846,16605 7845,16788 7779,16974 7515,17953 7566,17880 7792,17079 7911,16814 7924,16708 7940,16430 "/>
  <polygon class="fil12 str0" points="8256,16416 8221,16388 8242,16708 8189,17423 8229,17328 8295,16761 "/>
  <polygon class="fil12 str0" points="8669,16432 8605,16389 8657,17210 8718,17185 "/>
  <polygon class="fil10 str0" points="13295,15280 13203,15161 13136,15941 13057,16973 12951,17767 12872,18587 12766,19328 12753,19555 12746,19661 12740,19778 12740,20042 12834,20042 12898,19751 12872,19460 13031,18058 13136,17105 13242,15862 "/>
  <polygon class="fil10 str0" points="13674,15262 13606,15248 13586,16100 13507,17079 13401,17820 13295,18666 13242,19195 13216,19592 13216,20042 13364,20042 13322,19248 13401,18534 13478,17645 13639,16788 13696,15738 "/>
  <polygon class="fil10 str0" points="14207,15410 14095,15375 14062,16206 13930,17343 13798,18269 13745,18508 13692,19169 13639,19725 13639,20042 13747,20042 13745,19592 13877,18587 13957,17952 14089,16947 14168,16100 "/>
  <polygon class="fil10 str0" points="14653,15550 14546,15516 14512,16470 14327,17608 14274,18137 14195,18772 14115,19381 14115,20042 14263,20042 14248,19328 14354,18534 14384,17779 14539,16973 14645,16126 "/>
  <polygon class="fil10 str0" points="15125,15698 15001,15659 15015,16312 14830,17317 14724,18190 14645,18878 14592,19725 14592,20042 14726,20042 14724,19434 14803,18375 14962,17264 15068,16550 "/>
  <polygon class="fil10 str0" points="15564,15836 15490,15813 15438,16285 15332,16999 15253,17529 15147,18111 15068,19063 15041,19513 15041,20042 15150,20042 15174,19592 15200,18746 15280,18137 15385,17370 15491,16735 15571,16179 "/>
  <polygon class="fil10 str0" points="15875,15929 15967,16020 15941,16629 15809,17476 15729,18322 15676,19090 15624,19592 15624,20042 15467,20042 15518,19434 15597,18481 15676,17449 15835,16470 "/>
  <polygon class="fil11 str0" points="13203,15161 12754,15099 12294,14943 11840,14803 11450,15358 10887,16097 10319,16773 9810,17344 9406,17899 10279,17476 10808,17211 11368,16878 11686,16481 12240,16059 "/>
  <polygon class="fil10 str0" points="11399,15430 11351,15499 11205,16947 11126,17634 11046,18137 10967,18746 10887,19434 10835,19672 10835,20042 10956,20042 10967,19672 11073,18772 11126,18243 11205,17767 11284,17105 "/>
  <polygon class="fil10 str0" points="11036,15920 10964,15997 10729,17211 10570,18243 10491,18904 10411,19619 10334,20042 10453,20042 10517,19725 10544,19063 10624,18335 10729,17899 10808,17211 "/>
  <polygon class="fil10 str0" points="10485,16576 10279,17476 10173,17952 10041,18746 9961,19328 9909,19804 9909,20042 10017,20042 10014,19725 10120,18957 10186,18494 10252,17952 10279,17793 10557,16490 "/>
  <polygon class="fil10 str0" points="11924,14920 11818,15952 11655,17529 11549,18560 11417,19407 11443,20042 11366,20042 11311,19619 11364,19090 11496,18190 11522,17793 11628,17132 11681,16550 11840,14803 "/>
  <polygon class="fil10 str0" points="12407,14988 12294,14943 12263,15862 12184,16523 12078,17449 11946,18137 11840,19090 11787,19645 11710,20042 11803,20042 11919,19248 12025,18269 12184,17211 12261,16541 12306,16178 "/>
  <polygon class="fil10 str0" points="12819,15147 12689,15050 12713,15994 12634,16708 12501,17608 12369,18560 12290,19301 12237,19698 12237,20042 12332,20042 12369,19619 12501,18481 12660,17343 12766,16470 12792,15544 "/>
  <polygon class="fil8 str0" points="12131,13745 12369,13851 12819,14089 13216,14248 13745,14486 14380,14777 14989,15015 15571,15227 16020,15421 16020,15970 15564,15836 14962,15647 14241,15421 13574,15241 13203,15172 12978,15130 12524,15021 12003,14853 11840,14803 12052,14433 12184,14063 "/>
  <polygon class="fil10 str0" points="12568,15024 12369,14883 12105,14750 11928,14650 11969,14577 12131,14671 12396,14803 12607,14936 12788,15071 "/>
  <polygon class="fil11 str0" points="13502,14739 13638,14438 13143,14219 12594,13970 12131,13745 12169,14105 12067,14390 11840,14803 12294,14943 13203,15161 "/>
  <polygon class="fil10 str0" points="12184,14063 12153,14148 12607,14354 12978,14539 13348,14671 13824,14883 14274,15094 14697,15333 14962,15465 15174,15544 15385,15677 15676,15835 16020,15930 15650,15756 15359,15597 15147,15465 15015,15412 14777,15280 14380,15068 13930,14857 13533,14671 13136,14539 12687,14301 "/>
  <polygon class="fil10 str0" points="16020,15586 16020,15695 15729,15544 15227,15306 14592,15015 14168,14830 13851,14671 13295,14407 12819,14195 12396,13983 12146,13838 12131,13745 12422,13930 12740,14089 13004,14221 13269,14327 13507,14433 13877,14618 14195,14777 14486,14909 14803,15042 15227,15227 15597,15412 "/>
  <polygon class="fil10 str0" points="12082,14347 12052,14433 12263,14539 12607,14671 12872,14803 13044,14870 13295,14962 13745,15147 14151,15392 14273,15431 14182,15346 13850,15136 13622,15040 13520,14975 13571,15008 13057,14817 12978,14777 12819,14698 12581,14592 12290,14459 "/>
  <polygon class="fil3 str0" points="6905,18320 7077,18296 7563,18152 8530,17283 7924,17555 7554,18005 "/>
  <polygon class="fil10 str0" points="7223,17727 7183,17687 7025,18481 6972,18613 6879,19235 6919,19275 7001,18766 7042,18590 "/>
  <polygon class="fil11 str0" points="11761,12316 11602,12607 11337,13004 11073,13348 10861,13719 10702,13930 10570,14168 10524,14487 10400,14642 10305,14698 10147,14856 10041,14962 9829,15015 9459,15094 9300,15200 8956,15280 8691,15306 8533,15359 8295,15518 7845,15571 7486,15508 7358,15732 7289,15888 7228,16051 7210,16364 7465,16396 7893,16426 8378,16389 8702,16390 9115,16391 9128,16576 9141,17026 9177,17577 9247,18111 9559,17689 9829,17264 10387,16693 10887,16020 11351,15499 11687,15021 11969,14577 12101,14294 12165,14153 12131,13745 12025,13295 11840,12660 "/>
  <polygon class="fil13 str0" points="7259,15970 8700,15817 9272,15543 9439,15411 9829,15015 9723,15022 9431,15313 9330,15432 8857,15584 8625,15704 7289,15888 "/>
  <polygon class="fil13 str0" points="9212,17844 9202,17767 9287,17621 9278,17733 "/>
  <polygon class="fil13 str0" points="9525,17277 9565,17290 9961,16947 10279,16603 10596,16285 10914,15915 11230,15631 11399,15430 10967,15782 10755,15968 10570,16232 10279,16523 9856,16973 "/>
  <polygon class="fil13 str0" points="9141,17026 9148,17129 9591,16682 10094,16206 10491,15809 10914,15438 11417,14989 11734,14618 11972,14248 12146,13838 12131,13745 11946,14168 11734,14459 11470,14777 11179,15094 10835,15412 10491,15729 10067,16126 9565,16603 "/>
  <polygon class="fil13 str0" points="9129,16626 9128,16576 9565,16206 10120,15650 10623,15147 11073,14724 11443,14327 11708,13957 11919,13613 12033,13329 12056,13425 11946,13692 11761,14010 11470,14407 11099,14803 10649,15227 10147,15729 9591,16285 "/>
  <polygon class="fil13 str0" points="9115,15994 9115,16100 9379,15915 9909,15412 10332,15042 10755,14618 11099,14274 11390,13983 11734,13560 11893,13216 11933,12978 11902,12874 11840,13137 11734,13401 11655,13533 11337,13930 11073,14221 10702,14565 10279,14989 9909,15333 9406,15809 "/>
  <polygon class="fil13 str0" points="10570,14248 10570,14340 11179,13798 11390,13428 11575,13004 11734,12687 11800,12488 11777,12389 11708,12528 11549,12845 11417,13084 11311,13401 11126,13719 11126,13719 "/>
  <polygon class="fil13 str0" points="7773,16418 8038,16437 8824,16206 8916,16206 9102,16113 9115,16047 8877,16126 8665,16179 8389,16271 8023,16388 "/>
  <polyline class="fil2 str4" points="9121,16456 9121,16112 9095,15821 9023,15598 8969,15399 8824,15293 "/>
  <line class="fil2 str0" x1="8035" y1="11546" x2="8030" y2= "11549" />
  <polygon class="fil3 str0" points="7739,12528 7924,12554 8268,12554 8462,12533 8506,12528 8956,12581 9750,12554 9406,12449 8930,12422 8453,12449 "/>
  <line class="fil2 str0" x1="6416" y1="8295" x2="6522" y2= "8295" />
  <polygon class="fil2 str0" points="6522,7818 5490,7818 5305,7845 5093,7871 4908,7951 4749,8004 4617,8109 4511,8215 4458,8348 4405,8533 4405,8877 4432,9062 4485,9300 4590,9512 4723,9644 4934,9776 5120,9856 5305,9909 6151,9909 6442,9856 6575,9803 6760,9670 6972,9459 7130,9221 7210,9035 7236,8956 7342,8639 7342,8189 7210,8030 7051,7951 6839,7871 "/>
  <polygon class="fil10 str0" points="7421,8147 7414,8290 7712,8295 8268,8295 8550,8336 8166,8177 7907,8167 7643,8156 "/>
  <polyline class="fil2 str0" points="10524,8281 10471,8367 10379,8456 "/>
  <polyline class="fil2 str5" points="4537,6892 4643,6813 4829,6707 5040,6654 5278,6601 5622,6601 5781,6628 5993,6681 6204,6707 6416,6734 6601,6734 "/>
  <polygon class="fil10 str0" points="8506,1548 8083,1521 7580,1548 7210,1601 6866,1707 6416,1839 6019,1998 5622,2183 5305,2368 5014,2580 4749,2791 4458,3082 4246,3426 4088,3717 3929,4141 3823,4511 3744,4961 3691,5358 3691,5860 3664,6204 3691,6681 3717,7025 3744,7448 3876,7607 3929,7699 4022,7898 4167,8109 4273,8215 4405,8268 4590,8030 4855,7885 6292,7830 7210,8030 7447,8184 8559,8242 8695,7989 10489,7923 11494,7778 11459,7982 11611,8115 12025,8030 12210,7527 12396,6972 12422,6522 12422,5834 12396,5278 12316,4855 12237,4379 12052,3823 11840,3400 11470,2977 11099,2606 10676,2289 10173,1971 9617,1759 8982,1574 "/>
  <polyline class="fil2 str5" points="4643,7422 4723,7316 4855,7183 4987,7078 5146,6998 5305,6998 5596,7025 5807,7104 6072,7183 6257,7236 6416,7263 6707,7289 6892,7316 7104,7395 7210,7395 "/>
  <polyline class="fil2 str5" points="7157,7818 7236,7686 7289,7527 7289,7342 7289,7183 7289,7025 "/>
  <polyline class="fil2 str5" points="6416,6310 6654,6310 6945,6337 7183,6310 7448,6310 7712,6337 7977,6337 8268,6337 8400,6284 8665,6284 9009,6310 9300,6310 9697,6310 10014,6284 10332,6284 10570,6310 10808,6337 10914,6363 "/>
  <polyline class="fil2 str5" points="7686,7713 7845,7686 8030,7474 8004,7316 8004,7633 8083,7686 8295,7765 8506,7871 8639,7918 "/>
  <polyline class="fil2 str5" points="8956,6575 8903,6813 8850,6998 8824,7236 8797,7342 8824,7474 "/>
  <polyline class="fil2 str5" points="9538,7210 9670,7078 9776,6866 10014,6839 10279,6813 10517,6813 10623,6866 10835,6919 11046,6972 "/>
  <polyline class="fil2 str5" points="10914,4802 10782,5093 10623,5384 10517,5728 10411,6019 10173,6284 10067,6495 "/>
  <polyline class="fil2 str5" points="6760,6787 7104,6839 7501,6919 7845,6998 8083,7025 "/>
  <polyline class="fil2 str5" points="8427,7025 8850,6998 9168,6919 9644,6839 "/>
  <polygon class="fil10 str0" points="3770,7660 3559,7660 3400,7448 3267,7342 3135,7316 3029,7342 3003,7422 3003,7607 3003,7845 3003,8057 3056,8321 3109,8612 3215,8850 3267,9115 3294,9459 3400,9618 3532,9776 3559,10014 3585,10279 3611,10464 3664,10544 3797,10729 3929,10808 4088,10888 4194,10914 4220,11099 4273,11443 4379,11840 4458,12131 4511,12316 4617,12554 4723,12766 4855,13004 4961,13110 5150,13335 5331,13507 5516,13709 5653,13886 7104,13957 9141,14010 10226,14195 10551,14182 10676,13978 10881,13684 11047,13393 11105,13306 11226,13148 11390,12925 11523,12725 11652,12515 11733,12366 11787,12105 11866,11840 11919,11549 11972,11232 12025,10888 12131,10649 12263,10649 12422,10623 12554,10491 12660,10305 12713,10120 12740,9882 12766,9723 12819,9565 12898,9459 13004,9327 13084,9194 13084,8903 13084,8692 13189,8480 13269,8242 13322,7951 13348,7686 13348,7422 13295,7183 13242,6998 13136,6945 13031,6945 12925,6998 12792,7130 12660,7263 12554,7369 12435,7395 12224,7485 11938,8048 11618,8139 11485,8184 11377,7918 10874,7868 9670,7871 8956,7924 8758,7918 8632,8059 8559,8242 7418,8218 7329,8030 6257,7924 4855,7885 4670,7845 4670,7977 4379,8348 4088,8242 3969,7964 "/>
  <path class="fil14 str5" d="M5198 7727l-106 -26 -158 -41 -105 0 -133 0 -53 79 27 106 -77 -16 -24 91 5 128 137 32 -6 -31 -88 60 106 27 150 -150 141 -9 264 27 133 0 105 26 106 27 53 -67 159 93 170 3 89 10 164 -39 133 52 264 -52 99 67 211 -79 87 38 159 79 66 -53 119 0 -26 -158 -106 0 -93 -53 -225 13 -106 -40c0,0 -232,-53 -317,-53 -85,0 -608,-79 -608,-79l-27 -26 -225 41 -132 -27 -200 113 -79 -133 -53 20z"/>
  <path class="fil14 str5" d="M10966 7660l106 -26 158 -41 105 0 133 0 53 79 -27 106 77 -16 24 91 -5 128 -137 32 6 -31 88 60 -106 27 -150 -150 -141 -9 -264 27 -133 0 -106 26 -105 27 -53 -67 -159 93 -170 3 -89 10 -164 -39 -133 52 -264 -52 -99 67 -211 -79 -87 38 -159 79 -66 -53 -119 0 26 -158 106 0 93 -53 225 13 106 -40c0,0 232,-53 317,-53 85,0 608,-79 608,-79l27 -26 225 41 132 -27 200 113 79 -133 53 20z"/>
  <polygon class="fil3 str0" points="12396,6972 12290,7157 12131,7289 11999,7448 11946,7580 12025,7660 12105,7607 12025,7765 11946,7898 11761,7924 11734,8030 11602,8083 11655,8268 11893,8268 11999,8189 12025,8030 12131,7792 12184,7633 12210,7527 12290,7607 12422,7501 12449,7289 "/>
  <polygon class="fil15 str0" points="8546,8156 8625,8145 8632,8059 8758,7918 8917,7839 9128,7759 9377,7718 10570,7720 10769,7746 10967,7799 11174,7877 11351,7997 11470,8136 11549,8374 11558,8796 11527,8992 11483,9188 11400,9353 11270,9507 11093,9627 10848,9744 10663,9797 9727,9780 9525,9744 9300,9625 9132,9483 8941,9265 8837,9109 8731,8844 8636,8557 8625,8164 8546,8156 8546,8288 8546,8553 8625,8791 8705,8976 8758,9082 8811,9188 8917,9347 9049,9506 9208,9638 9393,9770 9525,9823 9737,9850 10663,9876 10874,9823 11165,9691 11324,9558 11457,9400 11536,9215 11615,9003 11615,8844 11642,8606 11602,8295 11781,8176 11853,8209 11708,8143 11523,8090 11483,8024 11377,7918 11218,7812 11007,7733 10769,7680 10610,7627 9313,7627 9128,7680 8890,7733 8705,7839 8573,7997 "/>
  <polygon class="fil16 str0" points="8453,8692 8480,8824 8506,9115 8506,9485 8506,9644 8533,9856 8533,9962 8691,10014 8744,10147 8771,10385 8824,10173 8956,10173 9035,10226 9141,10358 9194,10676 9194,10888 9221,10464 9194,10332 9141,10200 9035,10120 8877,10067 8771,9962 8612,9829 8586,9459 8586,9141 8559,8903 "/>
  <polyline class="fil2 str6" points="9406,10755 9670,11179 9935,11364 10252,11523 10438,11814 10570,12052 10676,12210 10676,12475 "/>
  <polygon class="fil17 str0" points="8321,11192 8321,11126 8427,11099 8559,11020 8691,10940 8797,10914 8956,10940 8982,11046 8982,11046 8930,11099 8718,11126 8480,11179 "/>
  <polygon class="fil17 str0" points="7633,11126 7395,10940 7289,10914 7183,10914 7210,10993 7316,11020 7448,11073 "/>
  <polyline class="fil2 str6" points="6760,10702 6495,11126 6231,11311 5913,11470 5728,11761 5596,11999 5490,12158 5384,12316 "/>
  <polygon class="fil18 str7" points="7741,12538 7435,12541 6813,12502 6998,12607 7378,12723 7188,12665 7283,12694 7289,12713 7727,12761 8162,12740 8453,12740 8866,12696 9056,12554 9056,12554 8268,12554 7880,12548 "/>
  <polygon class="fil14 str0" points="5653,13886 5741,14115 5781,14407 5826,14591 5966,14671 6072,14777 6178,14883 6469,15042 6683,15192 6911,15310 7157,15333 7308,15439 7486,15508 7721,15549 7948,15559 8136,15536 8343,15485 8612,15333 8824,15293 9059,15256 9243,15213 9407,15129 9644,15055 9829,15015 10069,14934 10305,14698 10372,14684 10530,14446 10555,14273 10544,13983 10596,13613 10649,13295 10596,13163 10411,12951 10226,12753 10120,12793 9846,13158 9449,13475 9035,13507 8824,13428 8665,13189 8268,13057 8106,12935 8116,12901 7924,12898 7660,13057 7421,13163 7263,13322 7092,13511 6575,13454 6310,13216 5940,13004 5822,12789 5755,13084 5755,13424 5781,13639 "/>
  <polygon class="fil14 str0" points="8040,11530 7686,11549 7104,11549 6707,11628 6337,11787 6019,12131 5860,12369 5834,12528 5854,12710 5993,12634 6046,12687 6099,12607 6151,12634 6204,12581 6284,12607 6363,12528 6416,12581 6522,12475 6601,12449 6760,12449 6991,12449 7236,12449 7421,12449 7633,12449 7792,12449 7898,12449 8040,12429 "/>
  <polygon class="fil14 str5" points="8037,11542 8380,11542 8963,11542 9359,11621 9730,11780 10047,12124 10206,12362 10233,12521 10213,12703 10074,12626 10021,12679 9968,12600 9915,12626 9862,12573 9783,12600 9703,12521 9650,12573 9545,12468 9465,12441 9307,12441 9075,12441 8830,12441 8645,12441 8433,12441 8275,12441 8169,12441 8037,12441 "/>
  <polygon class="fil16 str5" points="8056,11840 8035,11546 8030,11483 7818,11443 7660,11496 7527,11417 7369,11390 7183,11443 7025,11417 6813,11470 6548,11575 6284,11708 6046,11919 5860,12158 5809,12298 5755,12449 5822,12710 5966,12263 6046,12422 6151,12052 6310,12078 6416,11867 6522,11972 6654,11787 6760,11867 6919,11734 7025,11814 7157,11681 7289,11787 7421,11655 7501,11787 7633,11681 7686,11814 7845,11761 7871,11602 "/>
  <polygon class="fil16 str5" points="8017,11836 8038,11542 8043,11479 8255,11439 8427,11453 8546,11413 8705,11387 8890,11439 9049,11413 9260,11466 9525,11572 9789,11704 10028,11916 10213,12154 10264,12295 10319,12445 10251,12706 10107,12260 10028,12418 9922,12048 9763,12074 9657,11863 9551,11969 9419,11783 9313,11863 9154,11731 9049,11810 8916,11678 8784,11783 8652,11651 8572,11783 8440,11678 8387,11810 8228,11757 8202,11598 "/>
  <polyline class="fil2 str5" points="4987,8506 4829,8506 4643,8348 "/>
  <polygon class="fil16 str8" points="5331,8533 5278,8480 5146,8559 5093,8639 5014,8718 4923,8731 4829,8744 5133,8718 5172,8665 5252,8559 "/>
  <polyline class="fil2 str5" points="4981,8731 4696,8718 4414,8712 "/>
  <polygon class="fil0 str0" points="6628,8348 6707,8427 6701,8597 6522,8639 6284,8678 6416,8334 6522,8295 "/>
  <polygon class="fil0 str0" points="5887,8692 5781,8665 5596,8612 5516,8533 5490,8427 5781,8374 "/>
  <polygon class="fil19 str1" points="6730,8436 6681,8586 6676,8557 6956,8524 6952,8529 "/>
  <polygon class="fil15 str0" points="7447,8184 7368,8173 7335,8171 7210,8030 7051,7951 6839,7871 6590,7830 5397,7832 5199,7858 5000,7911 4793,7989 4617,8109 4498,8248 4419,8485 4410,8908 4441,9104 4485,9300 4567,9465 4697,9618 4874,9739 5120,9856 5305,9909 6240,9892 6442,9856 6667,9737 6836,9595 7026,9377 7130,9221 7236,8956 7332,8669 7342,8189 7407,8179 7421,8400 7421,8665 7342,8903 7263,9088 7210,9194 7157,9300 7051,9459 6919,9618 6760,9750 6575,9882 6442,9935 6231,9962 5305,9988 5093,9935 4802,9803 4643,9670 4511,9512 4432,9327 4352,9115 4352,8956 4326,8718 4352,8480 4114,8480 4114,8321 4260,8255 4405,8268 4485,8136 4590,8030 4749,7924 4961,7845 5199,7792 5358,7739 6654,7739 6839,7792 7077,7845 7263,7951 7395,8109 "/>
  <polygon class="fil13 str0" points="6416,8480 6390,8586 6337,8665 6231,8692 6072,8718 5887,8692 5807,8612 5781,8533 5781,8454 5781,8374 6416,8374 "/>
  <polygon class="fil3 str0" points="5794,8448 5979,8526 6111,8539 6191,8526 6270,8473 6350,8367 5794,8367 5794,8405 "/>
  <ellipse class="fil0 str0" cx="6072" cy="8407" rx="46" ry="40"/>
  <polygon class="fil3 str0" points="5278,8480 5331,8533 5411,8453 5569,8400 5728,8374 5940,8374 6567,8357 6522,8295 5437,8321 5252,8400 "/>
  <polygon class="fil3 str0" points="10570,8480 10755,8533 10940,8665 11179,8665 10967,8612 10649,8402 10524,8281 10471,8367 10351,8484 "/>
  <polygon class="fil20 str0" points="9234,8400 9150,8480 9009,8559 9168,8533 9292,8510 "/>
  <polygon class="fil3 str0" points="10662,8389 10636,8415 10557,8336 10398,8283 10239,8256 10027,8256 9400,8239 9400,8219 10359,8201 10689,8362 "/>
  <polygon class="fil0 str0" points="9326,8300 9221,8374 9292,8510 9471,8552 9776,8572 9577,8247 9349,8284 "/>
  <polygon class="fil0 str0" points="10107,8559 10213,8533 10351,8484 10471,8367 10504,8295 10208,8255 "/>
  <polygon class="fil13 str0" points="9591,8361 9617,8467 9670,8546 9776,8572 9935,8599 10120,8572 10200,8493 10226,8414 10226,8335 10226,8255 9591,8255 "/>
  <polygon class="fil3 str0" points="10213,8342 10028,8420 9896,8434 9816,8420 9737,8367 9657,8262 10213,8262 10213,8299 "/>
  <ellipse class="fil0 str0" cx="9922" cy="8308" rx="46" ry="40"/>
  <polygon class="fil16 str5" points="5954,12710 6033,12789 6139,12922 6192,13080 6351,13160 6483,13186 6563,13345 6668,13424 6827,13451 7092,13451 7092,13662 6907,13848 6774,14059 6748,14245 6748,14403 6721,14483 6642,14245 6563,14324 6483,14456 6430,14562 6219,14721 6351,14536 6139,14694 6086,14747 6192,14536 6298,14430 6351,14271 6219,14377 6272,14245 6272,14139 6192,14112 6166,14033 6086,14086 5980,14139 5875,14165 5980,13980 6139,13821 6192,13742 6060,13742 5928,13742 5769,13715 5715,13675 5663,13636 5716,13504 5795,13424 5663,13424 5769,13345 5637,13292 5769,13213 5663,13160 5584,13133 5716,12975 5822,12789 5822,12710 5885,12710 "/>
  <polygon class="fil16 str5" points="10094,12713 10014,12793 9909,12925 9856,13084 9697,13163 9565,13189 9485,13348 9379,13428 9221,13454 8956,13454 8956,13666 9141,13851 9274,14063 9300,14248 9300,14407 9326,14486 9406,14248 9485,14327 9565,14459 9617,14565 9829,14724 9697,14539 9909,14698 9988,14777 9856,14539 9750,14433 9697,14274 9829,14380 9776,14248 9776,14142 9856,14115 9882,14036 9961,14089 10067,14142 10173,14168 10067,13983 9909,13824 9856,13745 9988,13745 10120,13745 10279,13719 10385,13639 10332,13507 10252,13428 10385,13428 10279,13348 10411,13295 10279,13216 10385,13163 10464,13137 10332,12978 10226,12793 10226,12713 10162,12713 "/>
  <polygon class="fil16 str5" points="8106,12898 8106,13189 8185,13374 8223,13298 8265,13216 8344,13401 8397,13189 8503,13401 8635,13269 8608,13586 8714,13718 8767,13533 8938,13662 8938,13451 8820,13242 8661,13110 8450,13004 "/>
  <polygon class="fil16 str5" points="7924,12898 7924,13189 7845,13375 7806,13298 7765,13216 7686,13401 7633,13189 7527,13401 7395,13269 7421,13586 7316,13719 7263,13533 7092,13662 7092,13451 7210,13242 7369,13110 7580,13004 "/>
  <line class="fil2 str0" x1="12766" y1="7818" x2="12660" y2= "8083" />
  <polygon class="fil2 str3" points="12766,7818 12554,8321 12369,8586 12554,8771 12528,9379 12343,9618 12290,9829 12475,9750 12634,9485 12792,9221 12845,8771 12898,8400 12766,8215 "/>
  <polygon class="fil2 str3" points="13163,7263 13057,7395 12978,7607 13004,8030 13031,8374 13189,8004 13216,7501 "/>
  <polyline class="fil2 str3" points="3135,7739 3252,7869 3373,8004 3559,8321 3717,8639 3823,8877 "/>
  <polyline class="fil2 str3" points="3294,8718 3294,8374 3252,7869 "/>
  <polyline class="fil2 str3" points="3823,8877 3691,9088 3691,9300 3638,9565 3850,9776 3929,10014 "/>
  <polyline class="fil2 str3" points="3982,8744 3982,9009 4008,9406 4061,9829 4088,10253 4141,10544 4194,10914 "/>
  <polyline class="fil2 str5" points="12184,9538 12184,9803 12184,10067 12184,10305 12157,10517 12131,10649 "/>
  <polyline class="fil2 str5" points="12237,7713 12184,7845 12157,7951 12184,8162 12210,8374 12210,8559 "/>
  <polyline class="fil2 str3" points="7595,11115 7792,11179 8004,11205 8321,11159 "/>
  <polygon class="fil3 str0" points="5645,16861 5648,17105 5741,17198 5892,17328 6019,17370 6138,17515 6293,17719 6392,17880 6523,18093 6421,17848 6284,17558 6156,17360 6059,17277 5993,17238 5966,17105 6151,17079 6257,17317 6760,17343 6786,17410 6866,17410 6970,17178 6390,16999 5966,16788 5847,16801 5669,16642 "/>
  <polygon class="fil21 str0" points="7563,8292 7756,8295 7990,8295 8268,8295 8546,8295 8546,8241 8332,8246 7982,8241 7712,8242 7527,8242 7417,8237 7416,8290 "/>
 </g>
</svg>
