<?xml version="1.0" encoding="UTF-8"?>
<!DOCTYPE svg PUBLIC "-//W3C//DTD SVG 1.1//EN" "http://www.w3.org/Graphics/SVG/1.1/DTD/svg11.dtd">
<!-- Creator: CorelDRAW Home & Student X8 -->
<svg xmlns="http://www.w3.org/2000/svg" xml:space="preserve" width="253.471mm" height="204.258mm" version="1.1" style="shape-rendering:geometricPrecision; text-rendering:geometricPrecision; image-rendering:optimizeQuality; fill-rule:evenodd; clip-rule:evenodd"
viewBox="0 0 25347 20426"
 xmlns:xlink="http://www.w3.org/1999/xlink">
 <defs>
  <style type="text/css">
   <![CDATA[
    .str3 {stroke:black;stroke-width:79.37}
    .str5 {stroke:#CCCCCC;stroke-width:79.37}
    .str2 {stroke:black;stroke-width:26.46}
    .str0 {stroke:black;stroke-width:52.92}
    .str6 {stroke:#CCCCCC;stroke-width:52.92}
    .str1 {stroke:black;stroke-width:20}
    .str4 {stroke:#1A1A1A;stroke-width:7.62}
    .fil0 {fill:none}
    .fil1 {fill:black}
    .fil2 {fill:black}
    .fil3 {fill:#00CCFF}
    .fil5 {fill:#1A1A1A}
    .fil4 {fill:#BF2C2C}
   ]]>
  </style>
 </defs>
 <g id="Warstwa_x0020_1">
  <metadata id="CorelCorpID_0Corel-Layer"/>
  <polyline class="fil0 str0" points="13216,1495 11470,1495 11470,3400 "/>
  <line class="fil0 str0" x1="13613" y1="1707" x2="13613" y2= "3585" />
  <ellipse class="fil1 str1" transform="matrix(1.01927 -0.68442 -0.260416 0.392686 13130.5 1987.29)" rx="344" ry="423"/>
  <ellipse class="fil1 str1" transform="matrix(-1.01927 -0.68442 0.260416 0.392686 11998.8 1971.11)" rx="344" ry="423"/>
  <ellipse class="fil1 str1" transform="matrix(-1.04596 0.642881 0.275995 -0.381897 11998.8 2976.53)" rx="344" ry="423"/>
  <ellipse class="fil1 str1" transform="matrix(0.979543 0.740157 -0.238128 -0.406588 13083.6 3055.9)" rx="344" ry="423"/>
  <polyline class="fil0 str0" points="11470,3400 11205,3400 10861,3506 10676,3612 10914,3400 11126,3268 11179,3135 11020,3003 10941,2977 11099,2844 11284,2791 11232,2659 11126,2553 10993,2474 10993,2262 11020,2156 10993,1998 10888,1839 10782,1865 10702,1971 10623,2077 10610,2117 "/>
  <polyline class="fil0 str0" points="10464,2209 10358,2103 10200,1998 10094,2050 10041,2183 10067,2368 9962,2500 9882,2633 9909,2791 10041,2924 9697,2977 9618,3162 9644,3426 9776,3612 9882,3744 9882,3876 9803,4035 9697,4088 9750,3929 9723,3717 9644,3638 9591,3532 9512,3373 9459,3188 9459,3347 9512,3612 9565,3823 9565,3982 9565,4247 "/>
  <polyline class="fil0 str0" points="10358,2818 10411,2712 10332,2474 10253,2738 10332,2977 10332,3268 10517,3426 10544,3268 10676,3135 10676,2871 10649,2765 10755,2685 10755,2447 "/>
  <polyline class="fil0 str0" points="16338,5358 16364,5093 16417,4776 16444,4485 16497,4141 16442,4236 16391,4326 16338,4458 16206,4564 16073,4776 15888,4908 15756,5040 15756,4882 15862,4749 16021,4617 16232,4405 16312,4299 16417,4114 16364,3876 16364,3691 16285,3506 16259,3347 16153,3479 16179,3664 16179,3823 16100,3955 16021,3532 15862,3744 15862,3831 15862,3929 15703,3850 15544,3982 15729,4194 15703,4432 15597,4538 15306,4194 15015,3982 14539,3823 14168,3638 13824,3559 14010,3453 14063,3320 14116,3109 14274,3109 14486,3082 14407,2738 14248,2685 14116,2527 14063,2342 14221,2183 14486,2236 14618,2447 14671,2606 14671,2871 14618,3082 14873,2685 14830,3029 14989,2950 15280,3188 14830,2633 14856,2394 14909,2236 15015,1971 15333,2050 15518,2315 15650,2553 15571,2818 15571,2950 15809,2977 15941,3135 15915,3347 "/>
  <polyline class="fil0 str0" points="15227,3400 15161,3664 15386,3903 14909,3664 14645,3506 14168,3453 "/>
  <polyline class="fil0 str0" points="11152,3770 11708,3717 11915,3808 12131,3903 12819,3929 13401,3823 13824,3929 13031,3744 12369,3717 "/>
  <g>
   <path class="fil2" d="M9102 4131l119 -123 344 106 238 238 291 -317 450 -80 714 0 291 133 423 53 -2870 -10zm8559 3343l79 477 27 370 -185 344 -106 344 -27 185 -291 238 -291 291 -291 265 -185 79 -423 0 -477 265 238 106 239 53 211 -186 291 -26 344 132 371 159 132 185 397 238 185 318 159 344 53 370 0 318 264 264 212 556 26 265 -132 317 185 291 344 476 371 424 317 423 688 476 291 238 212 291 185 318 265 556 26 529 53 450 -4657 0 0 -371 80 -53 -80 -79 53 -80 27 -132 0 -132 0 -132 -27 -80 53 -53 -26 -79 106 -79 0 -80 -80 -53 -79 -79 -53 -106 53 -79 26 -106 133 -80 -212 -52 -106 -53 79 -106 -79 -106 132 -53 80 -106 132 -106 -106 -79 -79 -79 -80 -53 53 -133 -79 -79 26 -132 106 -80 1112 807 463 331 185 119 145 53 225 40 -331 -172 -277 -212 -278 -172 -172 -159 -185 -132 -186 -159 -277 -198 -239 -172 -291 -199 -251 -92 -13 -119 106 13 277 119 239 159 277 225 -277 -318 -305 -211 -198 -186 79 -92 252 145 449 344 794 635 212 93 198 0 -1614 -1138 -145 -145 -66 -93 -14 -423 93 -53 -66 -66 -79 -67 -14 -79 106 -53 -92 -92 -133 -67 80 -92 39 -93 -53 -92 -13 -159 40 -66 -40 -146 66 -40 133 80 224 119 159 159 146 198 132 79 93 -66 66 0 66 53 106 80 53 -106 -93 -40 0 -503 106 -79 -93 -93 0 -79 93 -79 -79 -106 -27 -331 -40 -119 -158 -93 -40 -119 -93 -39 0 -146 -79 -26 0 -185 -93 -40 -211 0 -27 159 -119 -14 -119 -79 -172 13 -106 -13 -158 0 -80 -53 -132 27 -27 52 80 106 -146 -53 -39 133 0 185 92 53 -26 132 -80 53 199 93 13 198 -198 -13 -159 -172 -40 -172 -132 -53 -185 0 -80 132 -66 106 -106 40 -53 53 -79 105 -93 40 -39 80 -53 66 -132 26 -53 106 -80 53 -39 66 -120 93 -52 66 -133 0 -119 0 -92 119 -159 119 -13 66 -106 79 -80 40 -132 -40 -119 0 1746 -2857 -79 -3995 2540 1137z"/>
   <path id="1" class="fil0 str1" d="M9102 4131l119 -123 344 106 238 238 291 -317 450 -80 714 0 291 133 423 53m5689 3333l79 477 27 370 -185 344 -106 344 -27 185 -291 238 -291 291 -291 265 -185 79 -423 0 -477 265 238 106 239 53 211 -186 291 -26 344 132 371 159 132 185 397 238 185 318 159 344 53 370 0 318 264 264 212 556 26 265 -132 317 185 291 344 476 371 424 317 423 688 476 291 238 212 291 185 318 265 556 26 529 53 450 -4657 0 0 -371 80 -53 -80 -79 53 -80 27 -132 0 -132 0 -132 -27 -80 53 -53 -26 -79 106 -79 0 -80 -80 -53 -79 -79 -53 -106 53 -79 26 -106 133 -80 -212 -52 -106 -53 79 -106 -79 -106 132 -53 80 -106 132 -106 -106 -79 -79 -79 -80 -53 53 -133 -79 -79 26 -132 106 -80 1112 807 463 331 185 119 145 53 225 40 -331 -172 -277 -212 -278 -172 -172 -159 -185 -132 -186 -159 -277 -198 -239 -172 -291 -199 -251 -92 -13 -119 106 13 277 119 239 159 277 225 -277 -318 -305 -211 -198 -186 79 -92 252 145 449 344 794 635 212 93 198 0 -1614 -1138 -145 -145 -66 -93 -14 -423 93 -53 -66 -66 -79 -67 -14 -79 106 -53 -92 -92 -133 -67 80 -92 39 -93 -53 -92 -13 -159 40 -66 -40 -146 66 -40 133 80 224 119 159 159 146 198 132 79 93 -66 66 0 66 53 106 80 53 -106 -93 -40 0 -503 106 -79 -93 -93 0 -79 93 -79 -79 -106 -27 -331 -40 -119 -158 -93 -40 -119 -93 -39 0 -146 -79 -26 0 -185 -93 -40 -211 0 -27 159 -119 -14 -119 -79 -172 13 -106 -13 -158 0 -80 -53 -132 27 -27 52 80 106 -146 -53 -39 133 0 185 92 53 -26 132 -80 53 199 93 13 198 -198 -13 -159 -172 -40 -172 -132 -53 -185 0 -80 132 -66 106 -106 40 -53 53 -79 105 -93 40 -39 80 -53 66 -132 26 -53 106 -80 53 -39 66 -120 93 -52 66 -133 0 -119 0 -92 119 -159 119 -13 66 -106 79 -80 40 -132 -40 -119 0 1746 -2857 -79 -3995 2540 1137z"/>
  </g>
  <polygon class="fil2 str1" points="9115,4114 9036,4220 8972,4369 8877,4485 8811,4636 8765,4711 8749,4739 8760,4856 8771,4974 8784,5239 8718,5371 8652,5477 8625,5596 8453,5768 8348,5966 8242,6125 8202,6350 8123,6469 8057,6667 8004,6892 8030,7422 8017,7554 8043,7805 8123,7924 8189,8030 8242,8109 8308,8229 8348,8268 8374,8480 8427,8546 8480,8705 8559,8797 8639,8877 8718,9022 8718,9194 8797,9432 8864,9525 8890,9657 8983,9776 9036,9869 9168,9935 9300,10067 9393,10107 9591,10226 9750,10279 9988,10319 9988,10253 9909,10173 9988,9829 9909,9538 9829,9432 9829,9168 9829,7871 9909,7474 9935,7210 10041,7104 9975,6800 9909,6548 10226,6337 10306,6152 10398,5966 10451,5794 10292,5860 10253,5702 10372,5503 10649,5503 10954,5490 11152,5437 11324,5371 11456,5239 11668,5225 12263,5225 12634,5292 12912,5345 13269,5437 13626,5556 13917,5689 14155,5927 14367,6046 14486,6138 14552,6310 14684,6376 14724,6575 14803,6667 14803,6839 14698,6892 14698,7091 14777,7130 14790,7276 14870,7422 14989,7594 15028,7792 14989,7990 15015,8136 15068,8348 15028,8612 15028,8678 15121,8692 15121,8864 15068,8983 14962,9102 14962,9565 14896,9657 14909,9776 14684,9816 14698,9935 14803,9935 14751,10067 14777,10332 14605,10411 14486,10570 14459,10663 14526,10861 14684,10901 14645,11060 14618,11205 14499,11351 14380,11470 14195,11642 14274,11761 14142,11919 13957,12025 13719,12224 13573,12435 13375,12581 13189,12713 13057,12806 12356,12806 12118,12859 12263,12951 12396,12991 12554,13150 12687,13242 12978,13229 13381,13196 13745,13209 14155,12806 14433,12773 15339,11959 15436,11800 15609,11774 15741,11815 15789,11913 15809,11999 15931,12131 15968,12171 16166,12184 16153,11986 15954,11893 16034,11840 16060,11708 15968,11655 15987,11404 16011,11339 16153,11390 16100,11232 15094,10226 15518,9221 16312,7289 15094,4908 14512,4590 11020,4326 9565,4723 "/>
  <polygon class="fil2 str1" points="9102,4131 9512,4908 11612,4520 11946,4458 11841,4124 10888,4035 10094,4035 9948,4194 9646,4195 9299,4032 "/>
  <polygon class="fil2 str1" points="17661,7474 17582,6998 17317,6760 17185,6628 17132,6363 17026,6152 16841,5993 16761,5834 16576,5596 16391,5464 16232,5411 16021,5464 15888,5225 15756,5040 15597,4908 15386,4749 15227,4590 15042,4458 14830,4220 14512,4141 14327,4061 14010,3982 13983,4114 13772,4167 13613,4247 13260,4496 12276,4421 12078,4247 11841,4124 11904,4466 13798,4696 15491,5940 15703,6310 15994,6892 17105,7395 "/>
  <polygon class="fil1 str1" points="10120,10491 10332,10888 10094,10993 9723,10993 9697,11258 9406,11337 9088,11337 8983,11602 8877,11946 8401,12105 8109,12343 7898,12793 7818,13242 7422,13798 6654,14380 6046,14750 6787,14195 7157,13824 7607,13375 7713,12951 7818,12554 8057,12158 8348,11972 8692,11840 8612,11602 8850,11337 8956,11284 9247,11152 9512,11046 9379,10729 9379,10597 9671,10702 9856,10808 9962,10623 "/>
  <polygon class="fil2 str1" points="12131,14671 12422,14909 12872,14936 13348,14936 13851,14856 14195,14724 14195,15491 13798,15968 13507,16153 13110,16179 12793,16047 12502,15756 12263,15333 12131,14909 "/>
  <polygon class="fil2 str1" points="11787,14380 11602,14618 11681,14989 11443,15253 11311,15624 11152,16047 11126,16364 11020,16761 10888,17185 10755,17476 10623,17978 10597,18190 14803,18190 14803,17529 14698,17158 14645,16814 14486,16550 14354,16126 14327,15809 14168,16020 13904,16259 13639,16470 13428,16523 13084,16550 12819,16444 12475,16232 12263,15915 12052,15412 11919,15015 "/>
  <polygon class="fil2 str1" points="8718,15174 8612,15518 8295,15809 8268,16206 8506,15994 8744,15729 8930,15544 "/>
  <polygon class="fil2 str1" points="7977,16126 8149,16328 8586,16841 8506,17290 8189,17687 7871,18296 6443,18296 6787,17978 6945,17687 7131,17476 7316,17238 7660,17079 7766,16920 8030,16761 8295,16655 "/>
  <polygon class="fil2 str1" points="5808,14883 3691,16973 5146,15624 "/>
  <polyline class="fil0 str1" points="14089,13348 14063,13904 13983,14327 "/>
  <polyline class="fil0 str0" points="11655,12634 11708,13110 11840,13586 "/>
  <polyline class="fil0 str2" points="11946,13851 12105,14168 12131,14671 "/>
  <line class="fil0 str3" x1="10067" y1="6443" x2="10008" y2= "6952" />
  <line class="fil0 str3" x1="10358" y1="7527" x2="10200" y2= "7713" />
  <polygon class="fil2 str1" points="13148,8440 13269,8480 13401,8612 13533,8692 13692,8718 13851,8744 14010,8718 14168,8586 14274,8427 14195,8400 14036,8480 13851,8533 13586,8533 13481,8453 "/>
  <polygon class="fil2 str1" points="13586,11046 13269,11046 12951,10967 12660,10914 12422,10967 12316,11046 12158,10940 11972,10914 11576,10967 11311,10967 11576,11258 11787,11443 11999,11549 12158,11575 12449,11575 12687,11575 12898,11523 13137,11417 13375,11258 "/>
  <line class="fil0 str3" x1="11734" y1="9988" x2="11840" y2= "10094" />
  <line class="fil0 str3" x1="12607" y1="9406" x2="12687" y2= "9723" />
  <polygon class="fil2 str1" points="12793,10067 12528,10094 12184,10305 12581,10358 13004,10094 13031,9882 "/>
  <polyline class="fil0 str2" points="9988,10319 10255,10744 10544,11337 10888,11814 "/>
  <polyline class="fil0 str4" points="10888,11814 11179,12131 11549,12422 11946,12687 12237,12832 "/>
  <polygon class="fil3" points="12263,5225 11628,6125 10993,7210 10570,8057 10147,9168 10358,8162 10702,7183 11099,6390 11496,5728 11806,5225 "/>
  <polygon class="fil3" points="11179,8797 11523,8771 11126,9697 10914,10332 10808,10993 10808,10200 10967,9538 "/>
  <polygon class="fil4" points="12263,5225 12773,5318 13269,5437 13772,5622 14155,5927 13375,6734 12687,7501 12369,7845 12237,8057 12713,7885 13213,7776 12568,8308 12025,8877 11496,9644 11179,10226 10914,10808 10782,11205 10914,10332 11324,9234 11523,8771 11179,8797 10729,8983 10120,9406 10236,8932 10690,7817 11365,6575 "/>
  <polygon class="fil5 str1" points="10464,8242 10464,8559 10702,8744 11020,8692 11284,8586 11628,8427 11364,8427 10914,8533 10649,8453 "/>
  <polygon class="fil5 str1" points="10808,7580 11020,7607 11337,7739 11576,7818 11734,8057 11708,7713 11523,7554 11126,7501 "/>
  <polyline class="fil0 str5" points="8824,9274 9036,9644 9300,9935 "/>
  <polygon class="fil2 str1" points="14645,8004 14327,7686 13983,7554 13560,7633 13110,7818 12898,7924 12660,8162 12634,8797 12554,8586 12581,8030 12846,7739 13216,7527 13454,7422 13798,7342 14089,7395 14380,7474 14512,7607 14645,7765 "/>
  <polyline class="fil0 str5" points="8850,5331 8956,5781 9247,6019 8956,5860 8718,5543 8639,5808 8506,5913 8374,6099 8268,6310 8215,6495 8057,6667 8136,6787 8136,7130 8083,7289 8109,7527 8162,7633 8242,7924 8348,8057 8401,8295 8533,8559 8744,8850 8797,9035 8718,9194 "/>
  <polyline class="fil0 str6" points="9299,4032 9088,4247 9062,4405 8930,4617 8850,5014 "/>
  <line class="fil0 str6" x1="9512" y1="4908" x2="9856" y2= "5252" />
  <path class="fil0 str6" d="M9584 4895l-165 -662m-198 622l185 212 53 450 159 291 -53 370"/>
  <polyline class="fil0 str5" points="10411,4670 10570,5014 10491,5305 "/>
  <polyline class="fil0 str5" points="10272,5781 10173,6152 10067,6443 9618,6892 "/>
  <polyline class="fil0 str5" points="9975,6800 9803,7236 9750,7580 "/>
  <line class="fil0 str6" x1="11541" y1="4365" x2="11612" y2= "4520" />
  <line class="fil0 str6" x1="12025" y1="4776" x2="11867" y2= "4908" />
  <line class="fil0 str6" x1="12713" y1="4696" x2="12687" y2= "4934" />
  <line class="fil0 str6" x1="13389" y1="4647" x2="13242" y2= "5014" />
  <line class="fil0 str6" x1="14327" y1="4061" x2="14116" y2= "4299" />
  <polyline class="fil0 str6" points="15306,5040 15200,5331 15012,5588 "/>
  <polyline class="fil0 str5" points="17621,7236 17291,7183 16484,5530 "/>
  <polyline class="fil0 str5" points="14704,6476 14803,6839 15227,7210 14909,7157 14949,7375 15465,7686 "/>
  <polyline class="fil0 str5" points="16364,9935 16708,9723 17079,9300 17317,9035 17396,8718 17661,7474 "/>
 </g>
</svg>
