<?xml version="1.0" encoding="UTF-8"?>
<!DOCTYPE svg PUBLIC "-//W3C//DTD SVG 1.1//EN" "http://www.w3.org/Graphics/SVG/1.1/DTD/svg11.dtd">
<!-- Creator: CorelDRAW Home & Student X8 -->
<svg xmlns="http://www.w3.org/2000/svg" xml:space="preserve" width="259.82mm" height="143.933mm" version="1.1" style="shape-rendering:geometricPrecision; text-rendering:geometricPrecision; image-rendering:optimizeQuality; fill-rule:evenodd; clip-rule:evenodd"
viewBox="0 0 25982 14393"
 xmlns:xlink="http://www.w3.org/1999/xlink">
 <defs>
  <style type="text/css">
   <![CDATA[
    .str3 {stroke:black;stroke-width:79.37}
    .str2 {stroke:black;stroke-width:26.46}
    .str4 {stroke:black;stroke-width:52.92}
    .str1 {stroke:black;stroke-width:132.29}
    .str0 {stroke:black;stroke-width:20}
    .str5 {stroke:black;stroke-width:7.62}
    .fil2 {fill:none}
    .fil1 {fill:black}
    .fil9 {fill:#000066}
    .fil6 {fill:#241206}
    .fil5 {fill:#241206}
    .fil4 {fill:#990000}
    .fil8 {fill:#990000}
    .fil0 {fill:#B3B3B3}
    .fil3 {fill:#E6E6E6}
    .fil7 {fill:#E8E6BE}
    .fil12 {fill:#F7C39E}
    .fil10 {fill:#FFFF66}
    .fil11 {fill:white}
   ]]>
  </style>
 </defs>
 <rect class="fil0" width="25982" height="14393"/>
 <g id="Warstwa_x0020_1">
  <metadata id="CorelCorpID_0Corel-Layer"/>
  <polygon class="fil1 str0" points="9485,7302 9671,7250 9842,7210 10014,7183 10134,7170 10319,7170 10477,7183 10610,7223 10755,7316 10874,7395 10941,7474 10967,7607 10954,7739 10914,7832 10861,7898 10716,8043 10557,8162 10385,8242 10239,8321 10067,8400 9935,8453 9988,8480 10081,8705 10147,8692 10306,8665 10491,8665 10663,8678 10782,8718 10848,8784 10967,8864 11046,8943 11126,9022 11218,9181 11284,9353 11337,9512 11377,9763 11364,9895 11311,10014 11232,10173 11152,10279 11033,10372 11020,10438 11007,10544 10993,10610 10927,10663 10914,10755 10914,10888 10861,11020 10808,11099 10689,11192 10597,11258 10504,11284 10411,11284 10292,11404 10226,11483 10134,11536 10028,11562 9882,11562 9816,11602 9737,11695 9631,11800 9591,11840 9591,11880 9684,11933 9816,12039 9922,12171 10014,12277 10094,12369 10160,12435 10213,12488 10292,12515 10398,12621 10491,12740 10517,12845 10597,12925 10689,13017 10729,13031 10808,13110 10888,13242 10941,13322 11033,13388 11086,13480 11126,13679 11112,13824 11073,14010 11020,14168 10941,14274 10782,14354 10676,14433 10597,14539 10530,14526 10583,14473 10623,14380 10610,14340 10544,14340 10464,14340 10358,14354 10226,14380 10160,14420 10107,14486 10107,14526 9842,14526 9935,14433 10028,14327 10107,14182 10202,13929 10259,13824 10290,13771 10253,13692 10173,13639 10041,13507 9988,13322 9909,13163 9882,13031 9909,12872 9962,12740 9988,12634 9935,12528 9829,12422 9776,12316 9618,12131 9459,12025 9379,11946 9247,11946 9168,11999 9088,12025 8718,12052 8374,12105 8004,12078 7898,12105 7633,11999 7501,11946 7329,11986 7236,12052 7078,12263 6901,12534 6813,12634 6813,12713 6919,12766 7025,12766 7210,12766 7369,12793 7527,12845 7607,12766 7607,12607 7633,12475 7739,12131 7650,12006 7877,12096 7792,12396 7713,12660 7713,12819 7713,12925 7739,13057 7818,13137 7891,13150 7989,13115 8030,12951 8083,12793 8083,12554 8030,12369 8004,12263 7951,12091 8020,12079 8136,12316 8202,12462 8215,12713 8201,12904 8057,13216 7951,13375 7924,13454 8030,13560 8136,13719 8215,13824 8215,13983 8202,14129 8182,14254 8109,14357 8030,14486 7474,14486 7527,14380 7580,14195 7660,14115 7686,14168 7686,14274 7686,14380 7766,14380 7924,14301 8004,14195 8030,14063 8030,13877 7977,13745 7871,13586 7766,13533 7686,13401 7448,13295 7607,13269 7713,13295 7739,13189 7660,13110 7501,13004 7316,12872 7157,12872 6681,12845 6469,12898 6310,13031 6257,13137 6257,13242 6284,13348 6363,13348 6231,13428 6099,13586 6019,13851 5966,14089 6019,14433 5761,14433 5728,14221 5728,13983 5808,13798 5887,13639 5966,13454 6072,13295 6046,13189 6046,13057 6072,12951 6152,12845 6337,12740 6522,12687 6601,12528 6681,12422 6839,12237 6496,12237 6178,12105 5966,11946 5834,11787 5702,11443 5649,11258 5543,11073 5437,10888 5305,10438 5331,10173 5411,10041 5517,9882 5649,9750 5834,9591 5861,9406 5861,9168 5966,8692 6072,8268 6204,7951 6416,7580 6654,7236 6945,6919 7263,6654 7580,6469 7818,6390 8109,6337 8401,6337 8665,6390 8877,6495 9062,6681 9247,6919 9379,7157 "/>
  <g id="_727368568">
   <path class="fil1" d="M9617 9238l194 -229c-42,-114 -101,-230 -167,-321 -127,-176 -230,-186 -230,-23 0,151 89,398 203,573z"/>
   <path class="fil2 str0" d="M9811 9009c-42,-114 -101,-230 -167,-321 -127,-176 -230,-186 -230,-23 0,151 89,398 203,573"/>
  </g>
  <path class="fil3 str0" d="M9112 7667c2,-20 3,-40 3,-61 0,-365 -323,-661 -721,-661 -398,0 -721,296 -721,661 0,294 210,543 500,629 289,86 939,-568 939,-568z"/>
  <polygon class="fil4 str0" points="8903,7078 8983,7144 9062,7250 9115,7369 9141,7527 9221,7514 9221,7395 9194,7263 9141,7157 9022,7011 8811,6800 8692,6720 8559,6654 8401,6575 8229,6588 8043,6588 7898,6628 7739,6654 7633,6720 7474,6813 7289,6919 7183,7038 7064,7157 6906,7355 6760,7501 6654,7699 6522,7871 6416,8109 6324,8414 6244,8639 6165,8943 6125,9194 6099,9340 6085,9657 6085,10028 6006,9763 5913,9829 5808,9909 5728,10001 5609,10186 5556,10305 5530,10504 5569,10676 5596,10769 5702,10901 5808,10967 5847,10848 5953,10689 6059,10570 6178,10491 6310,10438 6403,10398 6509,10385 6667,10398 6667,10319 6667,10186 6720,10054 6773,9895 6839,9750 6919,9591 6959,9485 7091,9247 7210,9088 7316,8930 7435,8811 7554,8639 7713,8480 8017,8268 7832,8109 7752,7964 7698,7778 7673,7606 7688,7469 7726,7316 7792,7183 7898,7078 8017,6985 8149,6906 8308,6853 8480,6853 8612,6892 8758,6959 8824,7025 "/>
  <polygon class="fil4 str0" points="9300,7607 9112,7667 8797,7818 8506,7977 8242,8189 8057,8295 7924,8427 7607,8718 7369,9009 7210,9221 6998,9565 7131,9565 7236,9538 7554,9512 7766,9406 7924,9274 8268,9035 8480,8850 8744,8639 9115,8348 9565,8030 9962,7765 10411,7607 10623,7554 10517,7474 10332,7422 10014,7448 9644,7474 "/>
  <polygon class="fil4 str0" points="8083,7355 8162,8004 8348,8004 8268,7686 8533,7726 8586,7474 8837,7713 8930,7567 8493,7144 8427,7474 "/>
  <line class="fil2 str0" x1="6429" y1="10954" x2="6562" y2= "10980" />
  <polygon class="fil5 str0" points="8506,10385 8453,10464 8453,10623 8559,10782 8599,10848 8665,10888 8744,10940 8824,10954 8916,10954 8983,10993 9009,11099 9009,11152 9062,11258 9141,11311 9247,11324 9366,11337 9472,11337 9538,11284 9644,11232 9697,11205 9763,11218 9829,11258 9922,11284 9988,11258 10028,11192 10067,11205 10147,11179 10186,11126 10213,11073 10253,11007 10306,11020 10372,11007 10451,10980 10517,10980 10597,10927 10649,10835 10610,10795 10623,10729 10610,10636 10557,10610 10464,10623 10332,10649 10226,10663 10081,10702 9962,10702 9856,10676 9723,10623 9644,10570 9538,10544 9393,10530 9207,10544 9036,10530 8930,10517 8811,10504 8731,10477 8652,10477 8586,10411 "/>
  <polygon class="fil6 str0" points="7051,9750 6998,9803 6945,9935 6892,10067 6839,10200 6839,10305 6906,10464 7025,10570 7144,10689 7289,10795 7474,10914 7633,10940 7686,10861 7686,10729 7686,10597 7766,10544 7792,10438 7739,10332 7554,10305 7395,10200 7289,10067 7183,9935 "/>
  <polygon class="fil7 str0" points="6866,10544 6734,10491 6522,10491 6337,10544 6204,10623 6072,10729 5993,10888 5940,11020 5940,11179 5993,11549 6072,11681 6178,11761 6284,11867 6390,11933 6482,11959 6628,11972 6760,11986 6959,11986 7131,11946 7250,11906 7355,11867 7461,11814 7554,11761 7660,11814 7792,11867 7951,11906 8136,11919 8295,11933 8520,11919 8705,11893 8864,11867 9049,11814 9207,11761 9353,11681 9485,11628 9618,11562 9710,11509 9710,11430 9618,11417 9551,11443 9459,11483 9353,11496 9247,11496 9141,11483 9036,11390 8943,11298 8877,11192 8877,11099 8824,11099 8692,11073 8599,11033 8506,10954 8427,10848 8348,10716 8321,10623 8321,10464 8348,10372 8414,10292 8480,10239 8533,10239 8625,10305 8718,10332 8837,10358 8956,10398 9115,10411 9234,10425 9406,10425 9499,10398 9551,10398 9631,10425 9763,10464 9895,10517 10054,10517 10253,10517 10398,10504 10557,10451 10702,10385 10888,10266 11033,10041 11099,9895 11126,9710 11086,9499 10993,9260 10888,9128 10742,9035 10663,8969 10504,8930 10332,8930 10200,8930 10067,8943 9909,9009 9803,9075 9697,9194 9644,9300 9551,9379 9472,9499 9472,9406 9499,9313 9592,9166 9459,8969 9429,8882 9422,8787 9418,8727 9414,8665 9428,8615 9442,8562 9500,8554 9551,8546 9587,8590 9644,8639 9710,8744 9785,8946 9869,8864 9869,8784 9856,8678 9776,8559 9684,8467 9565,8400 9432,8295 9366,8334 9234,8440 9062,8559 8864,8718 8718,8837 8586,8930 8439,9063 8281,9194 8123,9313 7937,9419 7805,9499 7646,9591 7474,9670 7316,9697 7236,9710 7197,9750 7276,9882 7355,9975 7448,10094 7501,10147 7607,10186 7739,10253 7805,10279 7911,10345 7937,10464 7924,10570 7871,10649 7832,10716 7832,10835 7832,10888 7805,10927 7739,11007 7633,11020 7488,10993 7355,10927 7197,10874 7104,10808 7025,10689 6932,10623 "/>
  <ellipse class="fil1 str0" transform="matrix(0.695677 0.961299 -0 0.695677 8659.85 9452.04)" rx="331" ry="423"/>
  <polygon class="fil1 str0" points="6429,10954 6496,10967 6575,10980 6667,11007 6707,11033 6773,11060 6813,11099 6787,11152 6707,11179 6760,11192 6866,11205 6945,11232 6998,11311 7025,11377 7025,11443 6985,11509 6919,11575 6853,11628 6787,11655 6707,11681 6800,11695 6906,11668 6972,11628 7051,11549 7117,11456 7131,11377 7131,11311 7078,11232 7025,11152 6945,11099 6892,11046 6800,10980 6734,10940 6628,10927 6548,10914 "/>
  <polygon class="fil3 str0" points="6019,14433 6031,14433 7485,14464 7527,14327 7541,14248 7580,14195 7620,14155 7660,14115 7699,14129 7713,14155 7713,14195 7713,14248 7699,14314 7699,14354 7699,14380 7766,14380 7802,14362 7856,14335 7898,14287 7970,14240 7990,14168 8004,14115 8017,14049 8030,13877 8011,13829 7977,13745 7924,13666 7858,13600 7818,13560 7759,13522 7726,13467 7673,13414 7634,13378 7576,13352 7515,13325 7448,13295 7488,13269 7646,13256 7684,13288 7713,13295 7752,13256 7713,13163 7614,13080 7541,13017 7448,12951 7374,12913 7316,12872 6628,12872 6545,12879 6456,12925 6390,12965 6337,13009 6290,13071 6257,13137 6271,13295 6363,13348 6321,13373 6257,13428 6191,13494 6138,13573 6099,13666 6043,13773 6014,13875 5988,13993 5993,14142 5993,14235 6019,14327 "/>
  <polygon class="fil1 str0" points="6443,13758 6443,13758 6363,13851 6337,13983 6297,14076 6297,14235 6350,14301 6390,14327 6469,14248 6482,14115 6496,13944 6482,13811 "/>
  <polygon class="fil1 str0" points="6945,13811 6919,13798 6853,13864 6826,13996 6787,14142 6787,14248 6813,14327 6906,14354 6945,14301 6998,14248 6985,14129 6985,13970 6998,13851 "/>
  <polygon class="fil3 str0" points="10597,13295 10583,13428 10544,13560 10491,13679 10438,13785 10411,13930 10372,14036 10332,14115 10306,14182 10319,14261 10411,14261 10570,14208 10663,14129 10755,14023 10821,13877 10848,13732 10835,13626 10808,13533 10769,13441 10676,13335 "/>
  <polygon class="fil8 str0" points="7739,12131 7633,11999 7527,11972 7369,11972 7289,11999 7118,12210 6939,12441 6892,12554 6813,12634 6832,12723 6919,12766 6972,12766 7084,12766 7210,12766 7250,12753 7324,12785 7369,12793 7491,12833 7567,12806 7595,12778 7607,12687 7620,12541 7633,12475 7646,12382 7710,12283 7739,12210 "/>
  <polygon class="fil8 str0" points="7898,12105 7871,12131 7865,12184 7823,12286 7813,12367 7770,12469 7743,12559 7713,12660 7713,12740 7713,12819 7713,12925 7726,12991 7767,13085 7858,13163 7924,13137 8004,13110 8017,13031 8030,12951 8072,12827 8083,12700 8057,12581 8064,12489 8030,12369 8004,12263 7977,12184 7977,12131 "/>
  <polygon class="fil8 str0" points="9128,12052 8903,12039 8658,12072 8599,12091 8718,12210 8784,12330 8864,12435 8930,12502 8969,12581 9049,12581 9194,12581 9313,12568 9419,12568 9512,12541 9565,12515 9459,12396 9353,12290 9274,12184 9181,12118 "/>
  <polygon class="fil9 str0" points="8480,12131 8308,12118 8189,12091 8038,12081 8071,12186 8136,12316 8202,12462 8189,12621 8189,12740 8143,12999 8101,13104 8066,13191 8016,13276 7924,13454 8004,13534 8083,13639 8156,13746 8215,13824 8215,13950 8202,14049 8202,14208 8162,14301 8123,14340 8057,14420 8295,14433 9935,14433 10028,14327 10107,14182 10173,13996 10213,13904 10306,13745 10306,13745 10173,13639 10041,13507 9962,13322 9909,13163 9882,13031 9882,12872 9895,12779 9922,12700 10028,12660 9901,12494 9670,12192 9379,11946 9207,11972 9168,11999 9287,12091 9578,12356 9684,12515 9723,12607 9578,12660 9155,12700 8943,12713 8824,12568 8744,12449 8652,12330 8586,12210 "/>
  <ellipse class="fil10 str1" cx="8916" cy="13348" rx="417" ry="430"/>
  <ellipse class="fil10 str1" transform="matrix(-0.528351 -0.619275 -0.116456 0.656599 10185.4 13161.7)" rx="476" ry="463"/>
  <circle class="fil3 str2" cx="16735" cy="2368" r="26"/>
  <polygon class="fil1 str2" points="18825,4273 18772,4286 18706,4313 18627,4180 18547,3995 18481,3797 18468,3585 18441,3373 18441,3254 18415,3082 18402,2871 18336,2752 18217,2606 18124,2514 18071,2408 18031,2249 18084,2196 18137,2117 18150,1998 18097,1905 18045,1773 17978,1707 17912,1654 17793,1627 17634,1627 17476,1627 17291,1627 17105,1654 16920,1707 16682,1733 16431,1812 15981,1984 15597,2183 15161,2381 14856,2553 14724,2685 14698,2765 14671,2844 14711,3003 14817,3175 14949,3334 15068,3479 15227,3678 15227,3744 15200,3876 15134,4048 15094,4247 15068,4379 15081,4471 15161,4577 15266,4604 15372,4577 15505,4511 15637,4485 15677,4498 15677,4577 15677,4736 15663,4842 15663,4974 15690,5054 15782,5067 15862,5040 15954,5014 16021,5040 16087,5133 16113,5186 16113,5239 16166,5265 16219,5292 16285,5305 16325,5411 16404,5477 16497,5530 16589,5609 16695,5675 16827,5794 16933,5834 17013,5887 17105,5887 17185,5834 17291,5741 17343,5702 17370,5768 17370,5887 17185,6072 17066,6204 16894,6376 16722,6548 16629,6734 16589,6879 16589,7051 16550,7316 16510,7474 16391,7845 16312,8189 16285,8427 16179,8639 16100,8665 16153,8744 16126,8903 16021,9168 15941,9379 15915,9565 15875,9604 15809,9644 15756,9604 15703,9565 15624,9512 15597,9459 15650,9393 15703,9379 15703,9274 15729,9207 15782,9141 15756,9102 15703,9168 15637,9234 15597,9340 15557,9419 15557,9485 15544,9551 15491,9591 15306,9446 15174,9327 15068,9234 14909,9141 14989,8811 15055,8612 15068,8440 15068,8189 15015,8400 14989,8506 14909,8480 14830,8400 14751,8453 14671,8480 14301,8242 14327,8162 14380,8004 14327,7924 14221,7924 14036,8030 13904,8136 13798,8109 13719,8057 13586,8030 13533,7937 13428,7818 13428,7686 13454,7594 13547,7527 13652,7514 13732,7488 13798,7501 13891,7514 13917,7554 13891,7620 13824,7660 13719,7713 13679,7792 13652,7871 13666,7937 13732,7977 13772,7977 13772,7911 13772,7818 13824,7765 13877,7726 13957,7713 14010,7686 13996,7580 13983,7527 13917,7488 13864,7408 13824,7342 13798,7289 13772,7223 13758,7183 13772,7130 13811,7117 13864,7091 13851,7051 13798,7025 13758,7064 13719,7104 13639,7183 13573,7223 13481,7316 13348,7554 13309,7673 13229,7633 13176,7541 13163,7488 13163,7422 13203,7382 13375,7197 13309,7197 13269,7170 13242,7130 13269,7091 13295,7051 13322,7025 13335,6932 13322,6892 13282,6853 13242,6866 13189,6892 13137,6919 13044,7025 12872,7210 12859,7302 12846,7369 12885,7461 12938,7580 12978,7686 13004,7805 13070,7885 13176,7990 13309,8123 13401,8202 13666,8242 13904,8229 14089,8268 14221,8387 14393,8612 14565,8824 14698,8956 14777,9102 14711,9062 14552,9049 14486,9035 14393,9102 14208,9102 14010,9088 14036,9128 14248,9141 14407,9168 14512,9181 14671,9274 14790,9247 14724,9194 14579,9155 14592,9102 14751,9141 15055,9313 15227,9459 15386,9565 15412,9631 15266,9763 15121,9856 15015,9856 14909,9922 14830,10001 14751,9988 14711,9948 14658,9948 14645,9988 14552,10014 14420,10028 14367,10054 14261,10014 14195,9935 14036,9803 13904,9723 13851,9618 13891,9551 13983,9512 14089,9538 14036,9459 13944,9419 13785,9406 13692,9327 13652,9260 13626,9221 13533,9234 13441,9274 13348,9300 13269,9327 13176,9327 13123,9274 13070,9207 13070,9155 13123,9141 13084,9102 12951,9102 12885,9102 12846,9155 12846,9207 12872,9313 12951,9353 13017,9393 13137,9406 13269,9406 13428,9379 13481,9379 13507,9472 13547,9525 13586,9631 13626,9657 13679,9684 13692,9723 13705,9829 13732,9895 13772,9909 13811,9975 13811,10028 13864,10081 13891,10134 13944,10160 13957,10213 13996,10239 14063,10279 14116,10332 14155,10372 14208,10398 14354,10411 14565,10411 14830,10425 15015,10425 15134,10451 15200,10491 15293,10504 15412,10517 15491,10570 15571,10623 15663,10676 15716,10795 15716,10940 15690,11046 15650,11205 15703,11271 15743,11351 15782,11443 15756,11496 15677,11562 15637,11628 15610,11708 15624,11867 15716,11933 15782,11986 15915,12052 16047,12065 16126,12105 16126,12184 16087,12263 16060,12382 16060,12475 16073,12607 16153,12740 16166,12912 16206,12951 16232,13084 16245,13216 16245,13335 16232,13428 16179,13851 16179,14354 20069,14407 20069,14010 20069,13692 20095,13401 20069,13137 19989,12845 19883,12687 19831,12502 19857,12343 19963,12237 20069,12184 20069,12078 20042,11999 19963,11893 20069,11575 20201,11099 20333,10861 20413,10438 20492,10067 20518,9776 20571,9432 20677,9035 20757,8612 20809,8427 20942,8083 20968,7845 20968,7633 20915,7342 20942,7078 20889,6919 20862,6839 20704,6548 20598,6363 20466,6178 20360,6019 20227,5808 20174,5675 20069,5569 19963,5411 19831,5305 19698,5093 19619,5040 19513,4987 19434,4908 19222,4749 19063,4511 18957,4352 "/>
  <polygon class="fil3 str2" points="18666,4405 18455,4564 18190,4723 17873,5093 17661,5358 17555,5569 17502,5728 17449,5860 17423,5940 17449,6019 17542,6006 17701,5900 17886,5808 18111,5636 18269,5503 18415,5318 18481,5225 18666,5093 18878,4934 19116,4829 19169,4749 19143,4696 19090,4630 18997,4498 18957,4432 18878,4366 18838,4326 18746,4352 "/>
  <polygon class="fil3 str0" points="15968,4114 16034,4075 16153,4022 16232,3982 16206,3929 16153,3916 16047,3903 15981,3876 15915,3810 15941,3757 16021,3664 16113,3585 16166,3519 16206,3426 16312,3307 16364,3241 16391,3149 16550,3056 16748,2963 16880,2937 17013,2897 17132,2844 17211,2805 17396,2818 17529,2844 17661,2871 17754,2844 17806,2857 17846,2910 17952,2844 18031,2791 18097,2778 18150,2831 18124,2884 18045,2937 17873,3003 18071,2990 18150,2990 18217,3029 18296,3056 18336,3082 18362,3096 18389,3162 18389,3228 18402,3347 18402,3479 18415,3598 18428,3717 18441,3863 18494,4008 18613,4247 18653,4326 18521,4419 18362,4577 18190,4723 18045,4842 17899,4961 17833,5027 17780,5027 17754,4921 17714,4934 17701,5014 17648,5093 17568,5159 17529,5239 17423,5331 17357,5424 17291,5411 17264,5358 17185,5265 17158,5331 17145,5397 17105,5437 17026,5424 16986,5358 16920,5305 16827,5265 16761,5239 16642,5173 16536,5120 16470,5067 16417,5067 16338,5093 16259,5146 16179,5146 16140,5120 16153,5040 16100,5014 16060,4974 16087,4921 16140,4842 16153,4762 16113,4710 16060,4710 16060,4776 16060,4815 16007,4868 15928,4868 15875,4921 15822,4961 15782,5001 15743,4974 15716,4921 15690,4868 15716,4829 15756,4789 15729,4736 15703,4696 15703,4630 15729,4590 15796,4577 15756,4551 15743,4524 15743,4471 15822,4445 15875,4458 15928,4471 15994,4511 16073,4577 16087,4498 16100,4379 16047,4299 16034,4207 15981,4180 "/>
  <polygon class="fil1 str0" points="17238,3188 17264,3268 17317,3188 17383,3188 17449,3188 17515,3241 17555,3334 17555,3400 17582,3466 17608,3387 17608,3307 17582,3241 17515,3175 17449,3135 17370,3109 17304,3122 "/>
  <polygon class="fil1 str0" points="17529,3043 17595,3096 17674,3175 17674,3122 17608,3029 "/>
  <polygon class="fil1" points="17264,3453 17317,3479 17383,3479 17449,3479 17370,3413 17317,3400 "/>
  <line class="fil2 str3" x1="17542" y1="3572" x2="17502" y2= "3638" />
  <polygon class="fil1 str0" points="17171,3863 17251,3916 17330,3876 17330,3823 "/>
  <polygon class="fil1 str0" points="17568,3863 17489,3929 17423,3982 17357,3995 17291,4008 17291,4088 17396,4061 17489,4035 17555,3955 "/>
  <polygon class="fil1 str4" points="17238,3612 17357,3625 "/>
  <polygon class="fil3" points="15597,3638 15518,3717 15438,3797 15346,3889 15253,3876 15214,3955 15174,4088 15134,4233 15121,4392 15266,4273 15372,4127 15491,4008 15584,3889 15677,3810 15690,3704 15663,3651 "/>
  <polygon class="fil3" points="16470,5159 16417,5146 16325,5239 16338,5331 16378,5397 16470,5411 16536,5490 16629,5503 16775,5556 16854,5583 16920,5517 16880,5450 16841,5345 16775,5318 16669,5318 16576,5278 16523,5186 "/>
  <polygon class="fil3 str2" points="15280,3109 15319,3149 15372,3201 15438,3228 15491,3241 15557,3254 15624,3241 15663,3201 15729,3149 15782,3109 15743,3069 15677,3003 15624,2977 15571,2950 15544,2897 15491,2897 15465,2924 15438,2950 15425,2990 15438,3029 15478,3069 15571,3082 15584,3122 15571,3162 15531,3149 15478,3109 15412,3096 15372,3043 15346,3029 15306,3029 15266,3043 "/>
  <polygon class="fil3 str2" points="15174,3215 15240,3254 15306,3320 15386,3360 15465,3400 15531,3373 15518,3320 15438,3268 15359,3228 15280,3188 15227,3135 15174,3149 "/>
  <polygon class="fil3 str2" points="15663,2791 15624,2818 15597,2857 15637,2897 15677,2950 15729,2950 15756,2897 15756,2844 15729,2805 15690,2791 "/>
  <polygon class="fil3 str2" points="15901,2619 15862,2659 15822,2712 15822,2765 15849,2831 15782,2897 15782,2950 15822,2990 15875,3043 15915,3003 15994,3003 16073,3003 16087,2910 16054,2904 16021,2897 15954,2884 15928,2857 15941,2791 15994,2818 16007,2857 16126,2924 16192,2924 16232,2897 16272,2831 16232,2805 16153,2791 16100,2752 16021,2738 15994,2699 15954,2646 "/>
  <polygon class="fil3 str2" points="16087,2540 16073,2553 16060,2593 16060,2646 16087,2699 16126,2712 16166,2725 16219,2752 16259,2791 16325,2765 16351,2778 16391,2818 16444,2844 16510,2818 16536,2791 16497,2712 16404,2672 16351,2672 16351,2633 16391,2593 16417,2633 16444,2659 16523,2699 16603,2699 16656,2685 16708,2619 16735,2593 16761,2553 16761,2474 16722,2434 16669,2408 16589,2408 16510,2408 16470,2421 16457,2461 16431,2514 16391,2500 16364,2461 16338,2447 16298,2461 16272,2474 16259,2527 16272,2593 16245,2619 16192,2606 16166,2566 16140,2514 "/>
  <ellipse class="fil1 str2" cx="16576" cy="2553" rx="33" ry="26"/>
  <polygon class="fil3 str2" points="16867,2315 16841,2342 16814,2394 16880,2487 16788,2540 16801,2606 16841,2672 16894,2712 16973,2633 16973,2580 16933,2540 16973,2500 17013,2553 17026,2606 17092,2659 17145,2633 17158,2580 17132,2474 17145,2434 17171,2408 17198,2328 17185,2289 17198,2236 17224,2170 17198,2156 17145,2170 17119,2222 17066,2275 17039,2328 17039,2434 16986,2381 16947,2315 16920,2315 "/>
  <polygon class="fil3 str2" points="17410,2103 17370,2117 17317,2156 17277,2196 17264,2249 17264,2289 17277,2315 17238,2368 17224,2434 17238,2474 17264,2527 17330,2527 17370,2500 17396,2447 17370,2368 17396,2342 17410,2421 17436,2487 17502,2500 17555,2474 17555,2421 17542,2355 17568,2328 17608,2381 17621,2434 17674,2461 17727,2461 17754,2408 17754,2355 17740,2289 17767,2209 17740,2077 17687,2077 17582,2077 17515,2064 17489,2117 17462,2156 17462,2249 17423,2209 17410,2143 "/>
  <polygon class="fil3 str2" points="17846,2064 17806,2103 17820,2156 17833,2196 17820,2262 17820,2342 17846,2394 17926,2421 17939,2302 18005,2408 18045,2315 18031,2249 17992,2170 17965,2103 17912,2064 "/>
  <ellipse class="fil1 str2" cx="17608" cy="2216" rx="26" ry="33"/>
  <polygon class="fil2" points="15121,3334 15147,3373 15200,3426 15240,3466 15280,3506 15346,3492 15386,3453 15280,3373 15227,3320 "/>
  <polygon class="fil2" points="15134,3466 15174,3532 15240,3559 15266,3545 "/>
  <polygon class="fil3" points="15042,3241 14975,3241 14962,3294 15266,3545 15253,3413 "/>
  <polygon class="fil3 str3" points="17317,11602 17132,11628 17079,11787 17026,11972 17238,12078 17370,11999 17529,12025 18031,12105 18508,12131 18746,12078 18534,11972 18428,11972 17846,11787 17555,11655 17396,11602 "/>
  <polygon class="fil3 str2" points="17105,10014 16470,9935 16259,9909 16126,9988 16100,10226 16126,10438 16206,10676 16338,10835 16444,11073 16550,11205 16576,11284 16603,11337 16682,11364 16656,11404 16603,11470 16642,11483 16735,11509 16722,11575 16735,11668 16788,11708 16880,11721 16933,11668 16894,11628 16841,11575 16867,11496 16894,11496 16933,11575 16973,11628 17026,11575 17039,11483 17013,11443 16986,11218 16973,11099 16947,10993 16973,10914 17026,10940 17105,10980 17171,10993 17264,11007 17317,10980 17410,10927 17383,10993 17370,11033 17436,11046 17502,11046 17529,11099 17568,11139 17648,11126 17687,11086 17780,11060 17846,11086 17965,11086 18005,11139 18045,11232 18164,11232 18217,11311 18283,11337 18375,11364 18402,11311 18494,11456 18666,11549 18772,11628 18931,11695 19076,11721 19196,11734 19182,11853 19275,11906 19367,11880 19566,11655 19725,11364 19791,11192 19897,10980 19976,10821 20029,10716 20029,10663 20148,10451 20254,10239 20413,9869 20439,9710 20518,9512 20505,9419 20518,9300 20585,9155 20611,8877 20651,8612 20677,8480 20704,8400 20796,8255 20876,8083 20902,7964 20889,7818 20849,7752 20796,7594 20770,7435 20730,7289 20730,7183 20690,7091 20624,6945 20585,6866 20518,6707 20479,6562 20426,6429 20346,6297 20227,6178 20042,6099 19857,6019 19698,5953 19566,5913 19407,5887 19248,5913 19222,5966 19222,6072 19196,6178 19129,6138 19076,6112 18904,6112 18772,6152 18547,6191 18428,6218 18362,6271 18322,6324 18283,6416 18217,6416 18164,6443 18071,6535 17992,6667 17939,6787 17899,6879 17859,6959 17899,6998 17859,7078 17820,7157 17780,7276 17740,7236 17701,7170 17634,7236 17568,7422 17529,7580 17502,7779 17515,7951 17515,8070 17608,8215 17661,8295 17727,8427 17820,8348 17846,8400 17806,8467 17806,8546 17859,8612 17833,8890 17820,9155 17859,9379 17899,9472 18005,9512 17978,9618 17952,9697 17912,9737 17806,9737 17740,9684 17701,9644 17621,9657 17568,9710 17529,9803 17476,9882 17410,9988 17330,10054 17198,10081 17158,10134 17132,10094 "/>
  <line class="fil2 str2" x1="17132" y1="10597" x2="17211" y2= "10530" />
  <polyline class="fil2 str3" points="18997,10689 19037,10782 19050,10861 19063,10967 "/>
  <polygon class="fil1 str2" points="17648,9776 17740,9882 17899,10041 18045,10134 18217,10213 18362,10239 18468,10226 18521,10173 18613,10226 18627,10081 18706,10014 18719,9948 18627,9948 18547,9975 18494,10014 18441,10067 18375,10094 18243,10107 18084,10067 17992,10014 17859,9922 17754,9816 17687,9776 "/>
  <polyline class="fil2 str3" points="18640,9670 18534,9644 18402,9644 "/>
  <polygon class="fil1 str2" points="18865,11192 18891,11232 19037,11258 19103,11390 19103,11562 19182,11575 19169,11443 19156,11298 19090,11205 18984,11165 "/>
  <polyline class="fil2 str3" points="18269,7342 18190,7474 18111,7633 18031,7951 "/>
  <polygon class="fil1 str2" points="16920,10477 16920,10570 16907,10663 16920,10742 16952,10774 16986,10808 16973,10676 17026,10597 16999,10544 16986,10491 "/>
  <line class="fil2 str4" x1="17132" y1="10597" x2="17196" y2= "10543" />
  <polyline class="fil2 str3" points="17542,10914 17661,10901 17754,10888 17833,10954 "/>
  <polyline class="fil2 str3" points="17978,10279 18031,10358 18084,10438 18164,10570 "/>
  <polyline class="fil2 str4" points="17621,10372 17701,10425 17793,10451 17873,10385 "/>
  <polygon class="fil3 str2" points="19222,4749 18997,4882 18772,5014 18574,5159 18415,5318 18428,5437 18666,5358 18825,5252 18984,5225 19063,5067 19248,5040 19354,4961 19328,4829 "/>
  <ellipse class="fil3 str3" cx="17277" cy="6760" rx="93" ry="79"/>
  <ellipse class="fil3 str3" cx="17185" cy="7025" rx="93" ry="79"/>
  <polygon class="fil3 str3" points="15809,9750 15703,9750 15597,9882 15597,9988 15756,10094 15915,10226 16021,10200 16126,9909 15994,9829 15888,9776 "/>
  <polygon class="fil3 str2" points="15968,11761 15888,11761 15729,11708 15611,11718 15670,11900 15849,12019 16047,11999 16126,11919 16073,11787 "/>
  <polygon class="fil3 str2" points="17132,11152 17132,11245 17238,11324 17343,11390 17449,11417 17423,11337 17370,11258 17291,11179 17238,11126 "/>
  <polygon class="fil3 str2" points="15333,9988 15200,9988 15068,10041 15280,10147 15386,10279 15412,10041 "/>
  <ellipse class="fil3 str2" transform="matrix(-1 -0.666703 0 1 14047.6 9987.72)" rx="106" ry="93"/>
  <line class="fil2 str4" x1="13103" y1="9121" x2="14010" y2= "9088" />
  <polyline class="fil2 str2" points="13858,7071 13917,7038 14049,7223 14182,7355 14287,7488 14340,7646 14526,7832 14737,7937 14949,8096 15214,8229 15372,8308 15505,8387 15531,8572 15531,8916 15610,8599 15690,8493 15796,8467 15796,8374 15796,8281 15796,8149 16486,7549 15716,8176 15716,8414 15584,8414 "/>
  <polygon class="fil4 str2" points="12912,6945 13022,7048 13110,6949 13216,6879 13282,6853 13322,6892 13328,6978 13322,7078 13256,7150 13289,7183 13342,7197 13428,7104 13520,6998 13626,6945 13692,6919 13758,6959 13778,7045 13887,7054 13983,6959 14076,6906 14142,6826 14182,6720 14195,6628 14182,6562 14287,6469 14367,6376 14393,6257 14420,6165 14407,5980 14375,5857 14354,5728 14248,5596 14116,5477 13970,5358 13838,5278 13666,5212 13481,5159 13309,5159 13150,5186 12965,5239 12806,5292 12674,5397 12568,5517 12488,5662 12435,5794 12409,5927 12369,6032 12356,6222 12356,6376 12409,6535 12475,6641 12541,6760 12634,6826 12726,6906 12832,6932 "/>
  <circle class="fil11 str4" cx="13229" cy="5715" r="450"/>
  <circle class="fil11 str4" transform="matrix(0.235275 0.083043 -4.70953E-05 -0.647058 12461.9 6259.7)" r="450"/>
  <circle class="fil11 str4" transform="matrix(0.203174 -0.119688 -0.365132 -0.534176 14194.9 5728.2)" r="450"/>
  <polygon class="fil12 str4" points="13639,6376 13533,6390 13414,6443 13282,6509 13176,6562 13070,6641 12978,6747 12925,6839 12912,6945 12942,6974 13044,7025 13137,6919 13216,6879 13262,6859 13302,6873 13328,6912 13328,6978 13325,7028 13322,7078 13256,7150 13269,7170 13315,7190 13385,7150 13462,7064 13546,6985 13609,6954 13692,6919 13758,6959 13798,7025 13791,7124 13887,7054 14004,6946 14076,6906 14142,6826 14182,6720 14195,6628 14182,6562 14168,6495 14102,6443 14010,6390 13917,6363 13851,6363 13785,6350 13705,6363 "/>
  <ellipse class="fil1 str2" transform="matrix(0.460817 -0.19403 0.388059 0.921635 13321.7 6740.23)" rx="79" ry="126"/>
  <ellipse class="fil1 str2" transform="matrix(0.460817 -0.19403 0.388059 0.921635 13745.1 6601.33)" rx="79" ry="126"/>
  <polygon class="fil3 str5" points="14036,9128 13719,9128 13520,9128 13123,9141 13070,9181 13097,9241 13150,9300 13223,9327 13309,9313 13348,9300 13395,9287 13487,9254 13580,9227 13639,9241 13672,9293 13738,9366 13801,9407 13944,9419 13990,9439 14063,9499 14102,9578 14036,9525 13956,9524 13891,9551 13871,9585 13877,9670 13904,9723 13970,9763 14089,9816 14141,9891 14261,10014 14367,10054 14420,10028 14515,10018 14598,10001 14658,9948 14731,9968 14830,10001 14870,9962 14962,9889 15015,9856 15150,9837 15216,9795 15266,9763 15339,9697 15412,9631 15333,9551 15264,9484 15171,9412 15055,9313 14962,9287 14858,9202 14793,9165 14671,9121 14585,9128 14636,9170 14724,9194 14790,9247 14790,9287 14731,9260 14692,9269 14592,9227 14512,9181 14407,9168 14314,9181 14182,9168 13996,9155 "/>
  <ellipse class="fil3 str2" cx="13027" cy="7250" rx="69" ry="99"/>
  <polygon class="fil3 str5" points="13679,6959 13609,6954 13560,7025 13454,7117 13356,7216 13246,7335 13183,7402 13163,7465 13176,7541 13229,7594 13269,7653 13322,7594 13335,7514 13401,7422 13467,7302 13520,7250 13613,7183 13705,7091 13758,7038 13732,7011 13705,6972 "/>
  <polygon class="fil3 str5" points="14010,7554 14010,7686 13957,7713 13864,7752 13824,7792 13785,7832 13772,7977 13705,7990 13666,7937 13639,7911 13639,7858 13666,7779 13692,7726 13758,7660 13864,7620 13904,7587 13891,7541 13844,7508 13667,7509 13626,7541 13533,7554 13481,7580 13454,7660 13441,7726 13454,7818 13469,7865 13538,7945 13579,8018 13679,8030 13745,8057 13811,8096 13891,8123 13970,8083 14036,8030 14102,7964 14182,7924 14235,7885 14327,7924 14366,7983 14380,8030 14393,8096 14367,8176 14433,8189 14314,8202 14316,8252 14393,8281 14486,8361 14579,8400 14682,8476 14740,8457 14790,8427 14830,8400 14896,8440 14975,8480 15008,8431 15002,8295 15015,8242 14975,8215 15055,8202 15068,8189 15046,8145 14989,8116 14817,8030 14698,7951 14592,7898 14486,7832 14367,7726 14314,7646 14274,7554 14221,7461 14168,7369 14089,7289 14023,7210 13957,7144 13917,7091 13891,7078 13838,7104 13765,7203 13792,7274 13838,7355 13891,7448 13950,7508 "/>
  <polygon class="fil1" points="14155,7501 14155,7567 14116,7633 14195,7580 14195,7554 "/>
  <polygon class="fil3 str5" points="16431,7620 16312,7713 16140,7871 16013,7960 15941,8043 15796,8164 15809,8480 15743,8480 15705,8489 15677,8533 15621,8584 15601,8635 15584,8758 15557,8837 15518,8956 15505,8864 15518,8559 15515,8458 15478,8427 15438,8387 15346,8321 15280,8281 15214,8255 15134,8202 15094,8189 15068,8212 15068,8572 15036,8668 15002,8784 14975,8890 14932,9048 14896,9102 14917,9146 15028,9194 15108,9260 15187,9327 15240,9386 15319,9446 15399,9499 15478,9551 15529,9563 15544,9499 15557,9419 15571,9353 15629,9256 15663,9181 15729,9135 15756,9075 15809,9088 15809,9022 15782,8983 15822,8969 15835,9035 15849,9102 15875,9128 15875,9287 15849,9207 15849,9128 15796,9128 15756,9174 15729,9260 15703,9310 15703,9379 15624,9426 15610,9485 15677,9525 15729,9585 15769,9614 15829,9632 15875,9604 15901,9551 15901,9499 15915,9406 15928,9340 15968,9247 16007,9181 16040,9120 16060,9049 16073,8996 16126,8903 16143,8802 16153,8744 16133,8715 16100,8665 16113,8625 16192,8599 16206,8559 16246,8505 16285,8400 16301,8286 16325,8215 16285,8176 16298,8109 16325,8017 16351,7964 16378,7858 16391,7805 16428,7730 16417,7686 16450,7660 "/>
  <polygon class="fil1 str5" points="15544,8414 15624,8400 15716,8400 15716,8275 15716,8176 15796,8149 15798,8227 15805,8384 15791,8480 15705,8489 15650,8546 15610,8599 15591,8707 15564,8785 15511,8910 15510,8735 15525,8531 15518,8440 15506,8397 "/>
  <polygon class="fil1 str5" points="8416,12098 8599,12091 8751,12270 8854,12422 8969,12581 9432,12581 9485,12549 9565,12515 9499,12435 9333,12263 9247,12165 9110,12051 9112,12018 9179,11992 9287,12091 9383,12161 9498,12276 9631,12449 9704,12561 9709,12613 9634,12640 9449,12672 9279,12688 9090,12704 8970,12711 8917,12682 8784,12508 8698,12389 8597,12231 8533,12171 "/>
 </g>
</svg>
