<?xml version="1.0" encoding="UTF-8"?>
<!DOCTYPE svg PUBLIC "-//W3C//DTD SVG 1.1//EN" "http://www.w3.org/Graphics/SVG/1.1/DTD/svg11.dtd">
<!-- Creator: CorelDRAW Home & Student X8 -->
<svg xmlns="http://www.w3.org/2000/svg" xml:space="preserve" width="367.77mm" height="184.15mm" version="1.1" style="shape-rendering:geometricPrecision; text-rendering:geometricPrecision; image-rendering:optimizeQuality; fill-rule:evenodd; clip-rule:evenodd"
viewBox="0 0 36777 18415"
 xmlns:xlink="http://www.w3.org/1999/xlink">
 <defs>
  <style type="text/css">
   <![CDATA[
    .str0 {stroke:black;stroke-width:20}
    .str1 {stroke:#4D4D4D;stroke-width:7.62}
    .fil2 {fill:none}
    .fil1 {fill:black}
    .fil3 {fill:#1A1A1A}
    .fil0 {fill:#E6E6E6}
    .fil4 {fill:#E6FF61}
   ]]>
  </style>
 </defs>
 <rect class="fil0" width="36777" height="18415"/>
 <g id="Warstwa_x0020_1">
  <metadata id="CorelCorpID_0Corel-Layer"/>
  <polygon class="fil1 str0" points="0,-323 36777,-323 36777,18738 31178,18738 31525,16867 31790,15280 32081,13983 32292,12846 32504,11496 32689,10782 32663,10438 32848,9194 33060,8215 32954,7686 33324,7871 33695,8453 34171,9141 34806,10041 35176,10067 35520,10041 35785,10041 35917,9909 36129,9988 36367,10014 36526,9697 36552,9115 36049,8877 35335,8639 34700,8480 34409,8453 33986,8242 33800,8162 33509,7871 33298,7580 33007,7183 32742,6839 32583,6681 32398,6707 32239,6628 32239,6363 32001,6231 31869,6152 31763,6019 31604,6072 31604,6231 31604,6390 31525,6548 31499,6760 31525,6892 31419,7025 31393,7236 31234,7342 31075,7369 30969,7501 30890,7660 30758,7739 30599,7871 30440,7739 30334,7580 30202,7395 30334,7342 30467,7342 30652,7183 30811,7104 30943,6972 31128,6787 31234,6628 31234,5808 31049,5543 30943,5411 30811,5199 30625,4934 30414,4829 30255,4776 30176,4882 30043,4802 29990,4564 29990,4405 29858,4352 29752,4432 29699,4591 29567,4511 29408,4485 29382,4643 29514,4696 29647,4776 29303,4855 29355,4987 29514,5093 29805,5067 29964,5146 30282,5226 29488,5226 29355,5358 29461,5490 29594,5569 29858,5622 29488,5702 29382,5887 29329,6046 29382,6178 29752,6707 29223,6125 29197,5993 29049,6079 28903,6165 28800,6178 28906,6099 29038,6019 29038,5913 29276,5913 29329,5808 29408,5702 29303,5622 29170,5437 28879,5226 28668,5199 28562,5278 28509,5411 28456,5569 28403,5702 28297,5861 28165,5755 28191,5543 28138,5490 28033,5384 28033,5226 27927,5226 27821,5014 27689,4934 27583,4643 27583,4458 27424,4485 27530,4273 27503,3744 27609,3664 27609,3797 27583,3929 27636,4061 27742,3956 27874,3903 27821,3797 27742,3797 27821,3664 27900,3559 27980,3664 28138,3612 28059,3506 28006,3400 28059,3321 28165,3400 28218,3479 28297,3453 28297,3373 28165,3109 28271,3029 28350,3056 28324,3188 28324,3268 28429,3294 28509,3347 28668,3294 28641,3162 28535,3082 28615,3029 28668,2924 28800,2897 28826,2791 28932,2765 29038,2686 29012,2844 29170,2844 29170,2765 29303,2791 29408,2818 29488,2738 29567,2765 29699,2738 29673,2580 29541,2553 29541,2421 29620,2394 29752,2315 29766,2248 29779,2183 29673,2156 29832,2103 29938,2209 29832,2262 29805,2394 29885,2421 30070,2342 30070,2156 30149,2183 30149,2315 30229,2368 30334,2394 30440,2342 30361,2236 30255,2130 30308,2051 30361,2130 30440,2209 30546,2183 30546,2051 30467,1945 30573,1918 30678,1865 30625,1971 30625,2130 30625,2315 30758,2209 30890,2183 31049,2051 30996,1918 30917,1865 31049,1707 31075,1892 31208,1971 31208,2130 31234,2262 31366,2209 31446,2077 31419,1971 31631,1945 31710,1918 31710,1812 31604,1627 31684,1601 31737,1707 31843,1786 31843,1945 31763,2051 31816,2183 31922,2236 32001,2051 32081,2130 32187,2156 32160,2024 32292,2051 32398,2130 32345,2209 32292,2289 32319,2368 32398,2342 32451,2262 32504,2342 32636,2289 32663,2394 32742,2447 32742,2527 32848,2580 32822,2765 32927,2738 33007,2871 32980,3056 32954,3215 33060,3241 33139,3347 33192,3479 33218,3612 33271,3717 33218,3823 33245,3982 33271,4194 33351,4326 33457,4352 33404,4511 33271,4538 33245,4749 33298,4934 33351,5067 33483,4961 33483,4802 33430,4696 33562,4617 33615,4564 33668,4405 33589,4299 33509,4273 33562,4114 33589,4008 33430,4008 33509,3823 33430,3744 33509,3638 33404,3506 33483,3426 33509,3321 33324,3321 33351,3109 33298,2977 33245,2844 33165,2791 33298,2712 33218,2474 33165,2342 32980,2262 33007,2103 32927,2077 32848,1892 32716,1812 32689,1680 32557,1654 32583,1442 32583,1257 32478,1151 32425,1204 32398,1045 32319,1045 32345,886 32160,833 31975,833 31869,728 31763,648 31710,542 31419,569 31287,542 31181,463 31049,384 30731,331 30414,331 30229,357 29990,357 29858,410 29805,489 29647,463 29461,542 29355,622 29091,675 28959,595 28694,595 28668,754 28694,833 28747,939 28588,833 28482,860 28429,992 28297,1151 28112,1310 28138,1389 27927,1389 27794,1495 27662,1627 27662,1812 27556,1998 27371,2156 27318,2368 27239,2394 27239,2606 27186,2686 27107,2791 27054,2924 27080,3056 26974,3082 26948,3268 27054,3321 26948,3373 26868,3453 26895,3585 27027,3559 27107,3664 26974,3717 26895,3876 26842,3982 26736,3982 26789,4088 26921,4141 26948,4220 27080,4326 26974,4379 26974,4485 27054,4511 27054,4670 27133,4723 27265,4723 27371,4802 27318,4855 27239,4882 27265,4987 27345,5040 27450,5067 27609,5014 27609,5120 27689,5252 27794,5384 27900,5569 27953,5649 27980,5834 28006,5966 27980,6152 27980,6257 28033,6416 28006,6681 27953,6760 28059,6813 28165,6945 28138,7051 28059,7131 28059,7210 28165,7236 28324,7131 28377,7051 28350,6839 28403,6681 28350,6601 28294,6601 28244,6601 28165,6628 28138,6443 28218,6522 28324,6522 28377,6390 28482,6469 28588,6496 28668,6416 28906,6390 29091,6496 29038,6548 28826,6548 28747,6628 28800,6760 28932,6813 29038,6919 29144,7051 29276,7051 29355,6998 29514,7025 29514,7263 29699,7289 29805,7474 29752,7580 29832,7766 29858,7924 29990,8030 30043,8136 30123,8321 30176,8427 30308,8427 30493,8374 30652,8268 30678,8374 30573,8480 30652,8665 30678,8744 30864,8718 31049,8718 31208,8559 31446,8374 31340,8215 31499,8295 31737,8215 32001,8057 32239,7792 32398,7660 32451,7501 32425,7369 32557,7236 32557,6998 32478,6839 32451,6760 32557,6839 32636,6998 32742,7263 32636,7422 32504,7554 32478,7713 32372,7792 32266,7924 32107,8030 31948,8162 31843,8242 31843,8321 31710,8321 31578,8401 31446,8453 31393,8559 31287,8639 31128,8771 31022,8824 30917,8930 30917,9036 30996,9194 31022,9379 30996,9591 30890,9671 30837,9803 30784,9909 30837,10014 30969,10120 30969,10438 30917,10597 30864,10729 30890,10861 30811,10967 30811,11099 30864,11258 30811,11443 30811,11708 30758,12343 30705,12581 30731,12872 30678,13137 30652,13401 30573,13719 30414,14486 30308,15068 30255,15359 30096,16047 30043,16444 29938,17555 29938,18322 29938,18738 19596,18738 19566,18534 19672,18084 19698,17740 19804,17396 19857,16973 19857,16761 19936,16285 19936,15968 20042,15729 20042,15438 20069,15227 20016,15174 19883,15306 19804,15412 19804,15650 19698,15544 19592,15597 19513,15729 19407,15729 19381,15624 19407,15359 19381,15121 19407,14936 19301,14909 19248,14989 19169,15068 18984,15068 18957,15147 18825,15174 18746,15253 18772,15386 18799,15518 18772,15994 18746,16100 18772,16179 18746,16788 18719,16894 18746,17079 18746,17343 18666,18031 18587,18455 18587,18738 17499,18738 17529,18481 17634,17820 17714,17634 17767,17026 17767,16232 17793,15915 17793,15624 17820,15465 17846,15333 17634,15042 17687,14883 17714,14777 17634,14724 17582,14565 17529,14512 17529,14274 17555,14116 17634,14010 17582,13877 17502,13798 17502,13401 17582,13348 17687,13242 17634,13110 17555,12898 17634,12713 17661,12528 17767,12422 17846,12396 17873,12475 17952,12502 17873,12634 17873,12819 17978,12846 17952,12925 17820,13057 17793,13269 17820,13560 17978,13639 17873,13824 17873,13957 17925,14036 18058,14248 18031,14380 18031,14486 17978,14539 17978,14698 17873,14777 17873,14856 17978,14883 17846,14962 17899,15015 18058,15094 17978,15227 18005,15333 18137,15438 18455,15333 18375,15227 18296,15121 18455,15015 18534,14883 18587,14751 18508,14618 18375,14539 18269,14459 18269,14354 18428,14274 18455,14089 18455,13957 18402,13824 18322,13745 18190,13692 18190,13560 18243,13428 18349,13295 18349,13216 18217,13084 18243,13004 18322,12951 18190,12898 18217,12687 18217,12607 18243,12422 18428,12422 18613,12449 18693,12475 18825,12528 19010,12528 19222,12475 19301,12343 19275,12105 19354,11972 19460,11972 19619,11999 19698,11946 19778,11787 19698,11628 19751,11576 19883,11470 19910,11523 19830,11602 19883,11734 19936,11840 19830,11946 19778,12078 19539,12131 19460,12237 19381,12396 19301,12528 19354,12607 19381,12713 19460,12766 19619,12740 19672,12607 19778,12554 19804,12422 19910,12316 20095,12263 20148,12158 20651,12131 20757,12025 20809,12316 20889,12475 20889,12687 21180,12978 21312,13163 21392,13163 21418,13004 21550,13295 21577,13401 21656,13401 21577,13560 21735,13851 21762,14036 21735,14221 21683,14407 21656,14565 21603,14724 21392,14856 21153,14803 21021,14803 20889,14856 20757,14751 20677,14618 20545,14592 20465,14671 20465,14751 20624,14989 20809,15068 21021,15121 21233,15147 21418,15068 21630,15068 21894,14883 22079,14724 22132,14512 22265,14221 22265,13904 22212,13719 22106,13560 22079,13348 21921,13031 21709,12740 21603,12554 21894,12846 22106,13189 22265,13401 22318,13428 22476,13454 22503,13375 22529,13269 22476,13189 22423,13057 22370,13004 22529,12978 22688,13031 22741,13137 22873,13163 22953,13110 23058,13031 23164,12951 23244,13004 23323,13031 23376,12951 23402,12766 23455,12449 23482,12211 23667,12237 23799,12184 23905,12131 24064,12158 24302,12369 24408,12502 24461,12634 24461,12819 24461,12925 24593,12925 24672,12898 24725,12978 24831,13004 24910,12898 25043,12766 25096,12819 25202,12793 25175,12713 25122,12607 25122,12475 25069,12343 24884,12237 24725,12105 24699,11946 24487,11919 24805,11919 24963,11972 25122,12105 25307,12237 25519,12396 25625,12211 25784,12131 25889,12025 25493,11708 25254,11523 25096,11364 24910,11205 25307,11417 25493,11470 25572,11549 25651,11576 25731,11628 25757,11734 25837,11734 25942,11734 25916,11628 25889,11549 25810,11523 25704,11443 25598,11364 25731,11364 25889,11390 25969,11443 25995,11523 26075,11523 26128,11470 26128,11390 26075,11311 26128,11390 26233,11470 26313,11470 26339,11337 26286,11284 26339,11337 26419,11390 26445,11311 26339,11179 26233,11020 26128,10967 26048,10861 26286,10941 26392,11073 26472,11152 26498,10941 26392,10914 26260,10755 26392,10808 26551,10835 26577,10755 26551,10649 26419,10597 26286,10491 26207,10411 26207,10253 27821,10226 28244,10200 28535,10094 28853,10094 29117,10094 29408,10041 29620,10067 29699,10279 29699,10491 29752,10861 29647,11205 29594,11628 29514,12158 29435,12554 29355,12925 29303,13242 29117,14168 29064,14671 28800,16364 28641,17291 28668,17714 29091,16656 29250,15677 29408,14883 29567,14089 29673,13137 29964,12105 29964,11761 30096,11470 30017,11179 30255,10702 30361,10200 30414,10014 30652,9723 30625,9168 30917,8983 30678,8744 30520,8718 30255,8639 30017,8586 29832,8665 29699,8586 29620,8718 29647,9036 29726,9247 29726,9988 29594,9671 29726,9247 29647,9036 29461,8639 29223,8665 28906,8665 28720,8586 28615,8374 28377,8242 28350,8401 28482,8533 28377,8639 28033,8612 27900,8665 27530,8692 26842,8692 26551,8718 26286,8771 25995,8877 25731,8956 25678,9088 25545,9221 25493,9353 25466,9485 25466,9697 25466,9803 25572,9750 25625,9565 25651,9750 25731,9776 25625,9856 25493,9882 25466,10014 25598,10067 25440,10094 25387,10120 25360,10173 25387,10253 25321,10292 25281,10319 25321,10398 25321,10477 25373,10504 25453,10504 25453,10557 25479,10610 25466,10676 25360,10676 25307,10702 25202,10729 25096,10795 25056,10782 25082,10716 25202,10610 25241,10504 25215,10451 25122,10438 25030,10477 24831,10649 24712,10755 24699,10808 24606,10835 24553,10874 24461,10941 24434,10980 24395,11046 24209,11152 23865,11271 23773,11337 23548,11390 23508,11443 23323,11523 23191,11602 22953,11655 22913,11721 22820,11734 22767,11695 22648,11708 22569,11747 22423,11774 22331,11827 22265,11880 22119,11933 22066,11972 22027,12039 21947,11986 21868,11986 21788,12039 21616,12052 21431,12065 21365,12105 21193,12131 21087,12184 21048,12237 20981,12197 20955,12091 20915,11893 20876,11814 20836,11787 20757,11708 20677,11642 20571,11576 20505,11536 20333,11549 20333,11404 20267,11377 20201,11351 20082,11351 20161,11271 20241,11139 20254,10993 20280,10861 20201,10782 20188,10649 20201,10464 20174,10372 20122,10266 20201,10239 20227,10120 20227,10028 20161,9922 20042,9816 20042,9723 20108,9657 20174,9591 20188,9525 20122,9459 20069,9419 20095,9366 20135,9274 20108,9194 20069,9168 20069,9102 20135,9049 20095,9009 20029,8916 19963,8890 19883,8916 19817,8996 19751,9062 19738,9168 19606,9181 19566,9247 19526,9300 19487,9353 19460,9327 19487,9274 19487,9221 19420,9181 19526,9128 19619,9062 19685,8930 19764,8811 19778,8718 19778,8506 19751,8414 19685,8387 19606,8374 19553,8467 19487,8599 19420,8665 19341,8744 19301,8797 19209,8811 19076,8930 18878,9088 18680,9194 18547,9260 18388,9287 18164,9194 17992,9075 17767,8890 17634,8771 17529,8652 17449,8586 17383,8586 17317,8506 17092,8255 16973,8083 16880,7977 16801,7898 16748,7885 16695,7911 16655,7977 16669,8070 16708,8149 16708,8321 16695,8467 16708,8546 16722,8599 16788,8625 16814,8718 16814,8824 16841,8890 16841,9022 16841,9102 16841,9207 16854,9287 16841,9353 16880,9366 16894,9432 16894,9512 16920,9565 16960,9591 16986,9631 16986,9710 16986,9763 16947,9803 16947,9856 16973,9895 16973,10134 16999,10186 17052,10200 17105,10253 17105,10782 17092,10941 17105,11337 16841,11496 16523,11734 16259,11972 16126,12184 15994,12369 15862,12793 15782,12978 15729,13189 15729,13375 15782,13454 15968,13533 16100,13507 16312,13322 16550,13084 16761,12872 17052,12713 17026,13031 16894,13613 16788,14195 16708,14909 16576,15412 16364,16417 16100,17476 16047,17926 15915,18481 15869,18738 9492,18738 0,18738 "/>
  <polyline class="fil2 str0" points="0,-323 5232,-323 10352,-323 15273,-323 24812,-323 28873,-323 34939,-323 36777,-323 36777,4424 36777,10443 36777,14656 36777,18738 31178,18738 31185,18698 "/>
  <polygon class="fil0 str0" points="32213,4326 32160,4366 32147,4445 32120,4511 32054,4511 32054,4591 32107,4683 32001,4617 31935,4630 31895,4749 31922,4815 31948,4882 32041,4895 32187,4895 32200,4987 32292,5040 32319,5173 32306,5305 32239,5384 32134,5384 32067,5450 32041,5503 31948,5596 31922,5530 31856,5477 31856,5424 31909,5397 31962,5437 32028,5437 32081,5371 32134,5305 32120,5239 32147,5146 32107,5093 32067,5040 32015,5027 31948,5040 31882,5001 31843,5014 31843,5093 31723,5027 31671,5040 31684,5530 31763,5675 31803,5702 31829,5794 31895,5874 31962,5953 32015,5980 32067,5966 32134,5940 32213,5966 32253,5940 32292,5861 32345,5794 32358,5715 32425,5636 32464,5609 32478,5503 32504,5424 32570,5345 32610,5278 32583,5212 32544,5173 32517,5106 32491,5027 32530,5027 32610,5040 32663,5001 32676,4921 32650,4802 32597,4749 32570,4670 32504,4551 32478,4498 32385,4485 32332,4432 32266,4392 32239,4339 "/>
  <polygon class="fil1 str0" points="26472,10173 26419,10173 26313,10094 26233,10120 26167,10094 26101,10041 26022,10014 25956,9935 25969,9869 26207,9869 26313,9935 26352,9988 26405,10054 26458,10094 26498,10134 "/>
  <polygon class="fil1 str0" points="26577,9538 26577,9657 26604,9750 26577,9842 26604,9922 26630,10014 26723,10001 26710,9922 26683,9842 26683,9737 26657,9657 26670,9551 "/>
  <polygon class="fil1 str0" points="27768,9671 27821,9750 27834,9829 27768,9856 27702,9842 27636,9776 27570,9697 27503,9631 27384,9631 27305,9684 27239,9790 27186,9882 27120,9948 27107,10054 27001,10067 26961,10160 26925,10241 27507,10231 27503,10147 27609,10120 27675,10081 27728,10041 27887,10041 27927,9975 28006,9935 28006,9856 27927,9803 27887,9737 27861,9684 "/>
  <polygon class="fil3 str0" points="26668,10039 26630,10041 26617,10107 26591,10147 26551,10160 26524,10147 26458,10200 26479,10248 26756,10244 26710,10200 26670,10173 26657,10147 26641,10105 "/>
  <line class="fil2 str0" x1="28588" y1="7369" x2="28509" y2= "7316" />
  <polygon class="fil0 str0" points="28548,7342 28482,7289 28403,7342 28363,7435 28297,7514 28257,7580 28310,7646 28350,7686 28429,7713 28496,7699 28575,7713 28641,7699 28694,7660 28800,7660 28853,7713 28932,7726 28998,7792 29078,7858 29170,7871 29276,7818 29316,7779 29435,7752 29448,7713 29541,7660 29541,7554 29501,7527 29448,7501 29422,7435 29408,7355 29355,7316 29263,7289 29236,7316 29183,7342 29104,7342 29064,7289 29012,7289 28879,7289 28826,7342 28813,7382 28588,7369 "/>
  <polygon class="fil0 str0" points="28879,8004 28826,8057 28773,8123 28720,8123 28681,8096 28681,7977 28628,7911 28562,7845 28429,7832 28456,7951 28350,8004 28350,8109 28390,8176 28456,8229 28522,8281 28654,8295 28694,8268 28773,8321 28773,8374 28800,8453 28959,8480 29170,8453 29303,8506 29435,8506 29475,8467 29607,8374 29699,8268 29699,8123 29647,8083 29580,8030 29567,7924 29527,7832 29448,7832 29408,7885 29382,7964 29276,7977 29210,8004 29051,8017 29012,7977 "/>
  <polygon class="fil0 str0" points="18693,12554 18587,12554 18508,12621 18481,12687 18508,12766 18574,12832 18653,12951 18772,13097 18878,13137 19010,13123 19116,13070 19169,12951 19195,12819 19169,12713 19116,12647 19063,12621 18931,12634 18785,12621 "/>
  <polygon class="fil1" points="18613,9565 18521,9512 18375,9499 18283,9578 18243,9644 18190,9750 18203,9829 18243,9882 18296,9988 18217,10067 18150,10200 18124,10279 18097,10663 18071,10782 18111,10914 18111,11073 18071,11258 18468,11271 18587,11271 18428,11073 18415,10980 18441,10848 18534,10716 18534,10583 18508,10266 18508,10081 18521,10028 18600,9975 18666,9869 18680,9790 18666,9671 "/>
  <polygon class="fil4 str1" points="19698,11628 19381,11470 19090,11364 18719,11284 18366,11268 17925,11258 17555,11284 17185,11337 17001,11400 16682,11615 16318,11919 16060,12277 15941,12422 15862,12793 15729,13189 15756,13414 15968,13533 16100,13507 16312,13322 16655,12978 16970,12758 17211,12581 17396,12502 17608,12422 17846,12396 18005,12369 18428,12422 18653,12462 18825,12528 19116,12502 19262,12409 19288,12224 19275,12105 19354,11972 19619,11999 19698,11946 19778,11787 "/>
  <polygon class="fil1 str0" points="17343,11919 17132,11999 16947,12078 16735,12290 16444,12502 16073,12872 16298,12687 16523,12475 16788,12277 16960,12118 17158,12025 "/>
  <polygon class="fil3" points="18243,11800 18045,11787 17806,11814 17542,11840 17343,11919 17542,11880 17727,11840 17899,11827 18097,11814 "/>
  <polygon class="fil2 str0" points="6231,13189 6072,13216 6046,13375 6204,13454 6257,13639 6204,13798 6178,13930 6310,13904 6416,13798 6443,13666 6416,13481 6363,13322 "/>
  <polygon class="fil4 str0" points="3929,8744 3744,8718 3373,8718 2950,8824 2527,8956 2209,9115 1839,9353 1548,9591 1336,9803 1124,10094 992,10358 913,10570 860,10861 939,10888 1098,10861 1124,10967 1124,11073 1257,11073 1415,11020 1468,10914 1680,10861 1918,10702 2156,10597 2342,10491 2606,10411 2871,10332 3109,10306 3294,10279 3479,10279 3638,10306 3850,10358 4035,10464 3955,10491 4273,10676 4405,10649 4485,10676 4564,10755 4617,10888 4696,10941 4908,10941 4934,10861 5067,10835 5199,10782 5305,10623 5411,10464 5596,10306 5728,10173 5675,9803 5464,9591 5199,9379 4829,9088 4590,8983 4485,8930 4432,9088 4379,9194 4220,9194 4088,9036 4008,8903 "/>
  <path class="fil1 str0" d="M5424 10425c-27,0 -132,-14 -132,-14l-119 -105 -172 -159 -172 -133 -146 -119 -198 -132 -212 -132 -172 -66 -132 -14 -146 0 -344 27 -317 40 -278 39 -172 66 -199 53 -105 66 -146 93 -317 212 -159 106 -78 78 -81 80 -264 291 264 -185 146 -172 185 -159 317 -211 252 -172 185 -40 450 -119 648 -53 278 0 225 93 145 92 132 93 225 172 159 132 172 159 119 93 93 119 66 -119z"/>
  <polygon class="fil0 str0" points="20968,6522 20809,6548 20783,6681 20915,6813 20730,6839 20757,7236 20836,7369 20836,7633 20889,7766 20889,8083 20836,8242 20915,8374 20730,8559 20730,8797 20757,8930 20915,9009 20757,9115 20862,9274 21021,9406 21180,9485 21418,9591 21603,9723 21788,9723 21921,9750 21947,9909 22106,9962 22212,10041 22397,10067 22529,10041 22662,10067 22714,10014 22847,10094 22979,10253 23138,10279 23191,10173 23058,10041 22979,9909 22873,9803 22741,9671 22662,9591 22503,9565 22423,9485 22265,9432 22132,9300 22027,9274 21868,9274 21735,9247 21656,9141 21550,9088 21444,9088 21418,8983 21286,8983 21180,8877 21074,8797 21127,8665 21100,8559 21153,8401 21127,8321 21180,8162 21153,8030 21100,7951 21127,7871 21127,7686 21074,7501 21074,7316 21021,7183 20968,7104 20995,6945 20995,6839 20942,6681 20995,6601 "/>
  <polygon class="fil0 str0" points="20704,4352 20809,4352 20809,4141 20809,3903 20783,3612 20704,3426 20624,3188 20465,2950 20386,2738 20254,2606 20122,2421 19910,2289 19804,2156 19619,2051 19460,1865 19275,1759 18957,1680 18984,1548 18825,1442 18640,1416 18428,1416 18243,1442 18005,1468 17873,1521 17846,1601 17925,1654 17714,1680 17396,1707 17343,1627 17264,1574 17264,1468 17264,1363 17079,1363 17052,1468 16947,1521 16999,1627 17079,1654 16920,1707 16814,1733 16682,1786 16655,1918 16523,1998 16417,2024 16391,2077 16444,2183 16417,2262 16391,2342 16312,2474 16285,2633 16126,2659 16073,2712 15968,2791 15862,2977 15862,3082 15782,3135 15809,3268 15703,3268 15677,3426 15597,3559 15544,3691 15544,3797 15571,3876 15677,3876 15729,3770 15862,3638 15968,3506 16020,3400 16061,3244 16047,3188 15968,3162 16047,3109 16444,2765 16470,2871 16364,2897 16100,3135 16126,3268 16232,3188 16232,3268 16153,3347 16179,3453 16259,3506 16312,3612 16417,3638 16417,3453 16523,3294 16550,3162 16576,3029 16655,2977 16682,2818 16814,2791 16867,2712 16973,2659 17105,2553 17158,2633 17370,2553 17396,2606 17476,2659 17608,2712 17687,2447 17740,2738 17846,2659 17846,2818 17899,2924 17978,2818 18164,2924 18296,2924 18455,2897 18613,2897 18613,2765 18508,2686 18508,2606 18587,2580 18666,2500 18772,2527 18772,2659 18799,2712 18878,2738 18746,2844 18799,2897 18957,2871 19010,2712 19090,2686 19381,2686 19513,2659 19672,2606 19725,2527 19830,2633 19936,2765 20042,2818 20095,2950 20227,3003 20307,3162 20386,3321 20386,3479 20492,3664 20545,3850 20545,4008 20598,4141 20651,4273 "/>
  <polygon class="fil0 str0" points="19434,4485 19434,4352 19619,4273 19407,4141 19381,4008 19407,3876 19248,3823 19381,3638 19328,3532 19301,3347 19222,3215 19063,3082 18825,3029 18587,3029 18375,3056 18111,3109 18005,3215 17767,3294 17476,3268 17238,3215 17290,3109 17370,3029 17370,2924 17370,2818 17290,2765 17079,2738 16999,2844 16894,2897 16761,2977 16735,3056 16682,3135 16536,3228 16523,3400 16470,3717 16444,3850 16470,3956 16391,4141 16364,4326 16364,4485 16470,4591 16417,4696 16417,4776 16312,4908 16338,4987 16417,5040 16391,5146 16338,5331 16364,5490 16391,5596 16364,5755 16391,6019 16364,6204 16444,6337 16338,6363 16285,6429 16232,6509 16192,6588 16153,6681 16126,6760 16126,6839 16153,6972 16206,7025 16272,7078 16312,7131 16378,7131 16444,7104 16470,7051 16444,6998 16378,6959 16338,6866 16312,6800 16325,6720 16351,6654 16364,6601 16417,6562 16483,6548 16483,6667 16497,6787 16510,6959 16523,7157 16550,7289 16603,7448 16629,7554 16722,7673 16814,7752 16920,7871 17026,8004 17105,8057 17198,8176 17264,8281 17330,8374 17370,8480 17449,8506 17582,8520 17714,8506 17767,8480 17873,8414 17965,8427 18058,8480 18150,8520 18283,8520 18455,8520 18494,8467 18560,8387 18666,8308 18759,8229 18865,8149 18971,8030 19063,7924 19195,7792 19315,7673 19367,7567 19460,7448 19592,7342 19698,7210 19751,7104 19738,6945 19711,6866 19738,6747 19778,6667 19830,6522 19910,6496 19976,6456 20029,6416 20069,6284 20069,6178 20069,6059 20122,5887 20148,5755 20174,5543 20214,5477 20201,5384 20201,5252 20174,5186 20069,5199 20042,5226 20002,5159 20002,5106 19950,5027 19897,5040 19857,5093 19857,5173 19897,5226 19897,5477 19963,5490 20016,5530 20002,5583 19923,5662 19910,5755 19910,5900 19897,6032 19883,6152 19791,6165 19751,6099 19738,5993 19725,5940 19698,5887 19711,5781 19698,5728 19711,5609 19778,5543 19804,5464 19791,5331 19778,5278 19778,5212 19751,5146 19698,5093 19672,5014 19645,4895 19645,4829 19619,4749 19566,4710 19539,4643 19487,4577 19447,4551 "/>
  <polygon class="fil0" points="16060,6376 16007,6350 15928,6456 15928,6535 15848,6615 15875,6734 15862,6892 15901,6959 15835,7078 15809,7395 15729,7554 15624,7580 15491,7699 15385,7752 15081,7726 14698,7713 14354,7699 14063,7686 13772,7686 13348,7686 13269,7726 13176,7779 13070,7832 13004,7898 12991,7977 12898,8043 12885,8136 12766,8281 12673,8401 12621,8520 12607,8625 12554,8705 12554,8850 12568,8969 12568,9141 12462,9207 12356,9274 12210,9300 12118,9340 11840,9353 11708,9406 11615,9499 11417,9551 11337,9631 11020,9631 10888,9657 10742,9710 10570,9763 10477,9710 10345,9723 10279,9790 10133,9842 10054,9895 9763,9922 9697,9975 9300,9988 9194,10041 8956,10014 8850,10014 8718,10054 8506,10107 8414,10147 8321,10226 8189,10213 8070,10253 7885,10266 7395,10279 7263,10226 7144,10213 6972,10226 7104,10186 7117,10054 7091,9948 6985,9988 6958,9922 6919,9856 6826,9790 6787,9697 6681,9591 6495,9591 6310,9578 6244,9604 6204,9644 6059,9657 6046,9697 5980,9723 5900,9763 5847,9842 5755,9909 5794,9988 5860,10067 5940,10134 5927,10319 5860,10332 5702,10332 5675,10385 5622,10411 5569,10464 5543,10517 5490,10570 5437,10623 5437,10689 5371,10729 5318,10782 5278,10848 5225,10914 5199,10967 5186,11007 5186,11060 5239,11112 5278,11165 5318,11205 5384,11205 5464,11205 5503,11165 5609,11126 5662,11033 5728,10967 5781,10941 5834,10888 5887,10848 5980,10795 6006,10769 6072,10716 6112,10663 6204,10649 6231,10597 6284,10570 6323,10517 6363,10464 6376,10425 6429,10372 6456,10319 6495,10253 6548,10226 6628,10266 6694,10319 6747,10372 6787,10411 6826,10477 6866,10491 6906,10544 6919,10583 6932,10663 6945,10689 6892,10742 6879,10808 6879,10914 6813,10914 6813,10993 6813,11073 6839,11126 6866,11165 6945,11179 6972,11232 6985,11284 7025,11324 7025,11390 6998,11443 6958,11483 6932,11523 6958,11576 6998,11602 7051,11602 7104,11589 7157,11549 7197,11509 7210,11456 7250,11390 7369,11456 7514,11483 7633,11470 7818,11470 7845,11390 7845,11258 7805,11086 7885,11152 7924,11284 7964,11417 8017,11523 8109,11628 8123,11721 8057,11761 8083,11840 8136,11919 8189,11972 8189,12131 8189,12343 8189,12581 8109,12647 8096,12753 8043,12898 8004,13017 7924,13084 7911,13163 7805,13256 7739,13348 7633,13322 7567,13335 7501,13375 7422,13335 7316,13242 7250,13150 7183,13070 7091,12951 7051,12846 6998,12766 6972,12674 6972,12634 6853,12621 6813,12634 6787,12713 6800,12912 6826,13070 6906,13203 6958,13322 7025,13401 7117,13494 7210,13547 7263,13586 7408,13626 7541,13639 7686,13626 7805,13586 7951,13586 8017,13560 8176,13481 8255,13414 8361,13375 8453,13322 8533,13242 8612,13137 8639,13031 8665,12912 8758,12872 8758,12806 8784,12674 8797,12554 8811,12369 8797,12211 8771,12105 8758,11986 8758,11827 8718,11681 8705,11562 8639,11523 8625,11404 8599,11311 8533,11232 8440,11165 8136,10888 8387,11060 8612,11271 8731,11351 8797,11456 8837,11562 8903,11681 8969,11721 8983,11867 9009,11946 9115,11972 9155,11933 9155,11880 9207,11853 9260,11814 9247,11708 9247,11642 9155,11628 9128,11562 9088,11549 9128,11496 9155,11456 9155,11404 9088,11337 9035,11311 9009,11258 9141,11298 9221,11351 9327,11337 9432,11364 9485,11417 9604,11483 9657,11523 9790,11536 9842,11602 9922,11628 10014,11695 10081,11721 10173,11787 10226,11840 10332,11867 10491,11893 10623,11893 10636,11840 10663,11761 10689,11708 10663,11615 10597,11509 10504,11470 10358,11417 10279,11351 10213,11258 10160,11165 10094,11086 10014,10993 9869,10954 9776,10914 9684,10901 9657,10821 9578,10769 9406,10702 9274,10676 9155,10663 9102,10676 9181,10597 9340,10517 9366,10583 9472,10623 9604,10676 9776,10702 9856,10702 9988,10729 10041,10755 10094,10782 10200,10861 10292,10861 10438,10901 10504,10888 10491,10782 10491,10729 10517,10676 10570,10702 10663,10702 10742,10795 10808,10835 10848,10901 10914,11020 10954,11060 11152,11046 11232,11152 11311,11218 11377,11245 11523,11218 11589,11165 11602,11046 11575,10941 11523,10914 11470,10835 11390,10769 11311,10676 11284,10649 11364,10636 11443,10689 11496,10742 11575,10769 11615,10742 11589,10663 11509,10583 11483,10530 11390,10464 11351,10398 11232,10306 11165,10292 11165,10213 11324,10266 11470,10279 11668,10266 11919,10279 11999,10226 12303,10266 12475,10266 12766,10279 13057,10226 13295,10253 13428,10200 13348,10094 13216,9962 13189,9882 13084,9829 13031,9723 12978,9644 12926,9579 12872,9512 12766,9406 13084,9671 13216,9750 13295,9776 13375,9697 13428,9856 13507,9909 13586,10014 13745,10041 13798,10054 13851,10067 13811,9895 13732,9869 13679,9790 13613,9697 13785,9816 13930,9909 13970,9842 13930,9763 13917,9710 13996,9604 14010,9393 14049,9551 14036,9644 13996,9723 14049,9803 14115,9829 14168,9776 14195,9697 14168,9631 14142,9578 14208,9512 14155,9353 14248,9419 14301,9538 14354,9578 14380,9512 14433,9406 14512,9393 14592,9313 14578,9168 14618,9115 14711,9049 14750,8983 14803,9036 14922,9075 14989,9009 15068,9009 15187,8996 15266,8943 15333,8850 15346,8784 15438,8784 15465,8718 15478,8639 15438,8559 15438,8506 15491,8586 15531,8665 15677,8678 15729,8639 15756,8546 15796,8520 15862,8559 15862,8665 15862,8811 15875,8956 15848,9022 15729,9062 15782,9155 15729,9194 15743,9260 15769,9287 15835,9327 15875,9393 15928,9393 15968,9512 15968,9604 16073,9644 16087,9737 16140,9842 16166,9935 16259,10081 16312,10173 16391,10213 16510,10186 16510,10107 16470,10028 16417,9922 16338,9829 16259,9723 16285,9657 16298,9604 16298,9446 16232,9300 16140,9300 16100,9327 16060,9234 16034,9194 16047,9141 16087,9088 16060,9022 15968,8956 15968,8877 16047,8850 16087,8890 16219,8877 16219,8811 16378,8678 16417,8546 16483,8467 16444,8374 16483,8334 16470,8242 16457,8202 16378,8229 16312,8242 16206,8295 16166,8189 16192,8070 16245,8017 16206,7924 16206,7818 16192,7699 16166,7620 16153,7541 16206,7474 16192,7355 16140,7250 16153,7183 16126,7104 16113,7025 16047,7025 16007,7091 16007,7250 15994,7025 16047,6972 16007,6773 16034,6548 16087,6443 "/>
  <polygon class="fil0" points="3638,10464 3545,10425 3453,10411 3373,10464 3334,10411 3241,10385 3162,10438 3162,10544 3188,10636 3241,10742 3334,10821 3373,10941 3413,11020 3559,11020 3717,11060 3704,11139 3691,11232 3797,11311 3783,11456 3744,11589 3757,11695 3889,11800 3942,11933 3955,12052 3942,12144 3889,12250 3889,12409 3929,12502 3995,12581 4022,12674 4061,12766 4154,12793 4220,12912 4326,12965 4498,12991 4696,13044 4855,13057 5014,13097 5133,13110 5186,13044 5225,12951 5265,12859 5345,12806 5305,12938 5331,13031 5358,13084 5424,13123 5490,13110 5569,13017 5583,12912 5583,12819 5569,12740 5517,12687 5437,12634 5371,12594 5278,12581 5014,12581 4882,12581 4815,12621 4736,12660 4670,12713 4617,12740 4564,12740 4551,12700 4538,12607 4590,12541 4630,12488 4643,12382 4696,12396 4776,12475 4815,12515 4908,12528 4961,12554 5014,12502 5067,12449 5173,12449 5199,12502 5278,12502 5397,12515 5464,12502 5517,12449 5569,12396 5569,12330 5556,12277 5490,12211 5437,12158 5384,12105 5331,12078 5252,12078 5146,12078 5040,12078 4934,12091 4776,12078 4696,12091 4670,12131 4590,12131 4564,12091 4511,12078 4432,12078 4432,11972 4458,11919 4458,11840 4511,11946 4524,11986 4590,12025 4670,12025 4723,11999 4789,11959 4908,11972 4987,11999 5080,12012 5133,11986 5146,11919 5173,11986 5252,11986 5345,11959 5371,11933 5397,11853 5397,11774 5384,11695 5371,11642 5331,11576 5278,11562 5199,11536 5067,11549 5053,11483 4961,11483 4934,11536 4829,11602 4762,11668 4696,11668 4604,11628 4524,11628 4471,11642 4418,11695 4392,11721 4313,11734 4286,11655 4247,11602 4286,11509 4299,11456 4313,11364 4313,11298 4366,11271 4432,11179 4485,11152 4511,11073 4524,10954 4577,10901 4590,10821 4564,10755 4498,10716 4458,10676 4405,10649 4339,10663 4299,10702 4247,10755 4247,10782 4167,10835 4048,10888 3969,10927 4075,10848 4061,10769 4022,10742 3955,10755 3916,10782 3876,10835 3810,10901 3757,10874 3744,10808 3731,10742 3744,10623 3717,10557 3664,10517 "/>
  <polygon class="fil1" points="16894,4961 16973,4961 16999,4987 17052,5001 17118,5027 17145,5054 17185,5093 17238,5120 17330,5106 17462,5106 17410,5054 17330,5027 17238,4987 17158,4961 17066,4948 "/>
  <polygon class="fil1 str0" points="16550,4974 16576,5014 16603,5067 16655,5067 16708,5054 16735,5040 16801,5014 16854,4987 16814,4974 16735,4974 16642,4961 "/>
  <polygon class="fil1" points="16960,5067 16894,5093 16827,5159 16761,5226 16788,5278 16841,5358 16867,5305 16920,5265 16973,5305 16960,5371 16971,5414 16986,5358 16986,5358 16986,5397 16986,5318 16999,5278 17028,5238 17068,5225 17118,5212 17132,5173 17092,5146 17039,5093 "/>
  <polygon class="fil1 str0" points="18071,6390 18005,6390 17886,6390 17820,6443 17701,6548 17582,6535 17529,6509 17462,6443 17383,6456 17370,6522 17436,6535 17515,6562 17608,6601 17767,6615 17833,6509 17899,6443 17952,6443 17992,6469 18071,6469 "/>
  <polygon class="fil1" points="18164,7157 18256,7170 18322,7183 18375,7170 18336,7144 18296,7117 18230,7078 17965,7078 17793,7078 17648,7078 17582,7117 17535,7131 17489,7144 17449,7104 17410,7091 17370,7104 17277,7144 17277,7183 17343,7183 17410,7170 17462,7157 17608,7131 17661,7104 17740,7104 17978,7104 18097,7117 "/>
  <polygon class="fil1 str0" points="17529,7541 17542,7594 17595,7660 17661,7686 17833,7686 17925,7686 17978,7646 17925,7580 17873,7527 17687,7527 17634,7474 17555,7501 "/>
  <line class="fil2 str0" x1="17436" y1="7646" x2="17476" y2= "7686" />
  <polygon class="fil1" points="18137,5067 18230,5133 18269,5199 18362,5265 18402,5199 18481,5173 18560,5120 18653,5133 18706,5133 18746,5146 18772,5186 18785,5226 18732,5292 18812,5226 18812,5186 18785,5159 18746,5120 18666,5106 18600,5093 18534,5054 18481,5014 18468,4974 18508,4961 18560,4934 18613,4921 18653,4908 18878,4908 18904,4934 18918,4948 18971,4961 18984,4921 19037,4882 18984,4855 18402,4855 18309,4868 18164,4882 18071,4882 18124,4921 18150,4974 "/>
 </g>
</svg>
